
<svg viewBox="0.0 0.0 624.2729658792651 319.5459317585302" 
fill="none" stroke="none" 
stroke-linecap="square" 
width="650" height="332"
xmlns="http://www.w3.org/2000/svg">
<g>
<path fill="#1a1a1a" d="m0.005249344 -0.0053007873l625.2598 0l0 318.55118l-625.2598 0z" fill-rule="evenodd"/>
<path stroke="#000000" stroke-width="0.8792650918635171" stroke-linejoin="round" stroke-linecap="butt" d="m0.005249344 -0.0053007873l625.2598 0l0 318.55118l-625.2598 0z" fill-rule="evenodd"/>
<path fill="#d9ead3" d="m157.70341 32.905678c0 -4.6213093 3.7463074 -8.36762 8.367615 -8.36762l164.27263 0c2.2192383 0 4.3475647 0.8815861 5.916809 2.450821c1.5692444 1.569233 2.4508057 3.697569 2.4508057 5.9167995l0 33.469482c0 4.6213074 -3.7463074 8.367622 -8.367615 8.367622l-164.27263 0c-4.6213074 0 -8.367615 -3.746315 -8.367615 -8.367622z" fill-rule="evenodd"/>
<path stroke="#a4c2f4" stroke-width="0.8792650918635171" stroke-linejoin="round" stroke-linecap="butt" d="m157.70341 32.905678c0 -4.6213093 3.7463074 -8.36762 8.367615 -8.36762l164.27263 0c2.2192383 0 4.3475647 0.8815861 5.916809 2.450821c1.5692444 1.569233 2.4508057 3.697569 2.4508057 5.9167995l0 33.469482c0 4.6213074 -3.7463074 8.367622 -8.367615 8.367622l-164.27263 0c-4.6213074 0 -8.367615 -3.746315 -8.367615 -8.367622z" fill-rule="evenodd"/>
<path fill="#000000" d="m233.48212 46.146465l0 -7.296875l1.125 0l0 1.109375q0.421875 -0.78125 0.78125 -1.015625q0.359375 -0.25 0.796875 -0.25q0.625 0 1.265625 0.390625l-0.421875 1.15625q-0.453125 -0.28125 -0.90625 -0.28125q-0.40625 0 -0.734375 0.25q-0.3125 0.25 -0.453125 0.671875q-0.203125 0.671875 -0.203125 1.453125l0 3.8125l-1.25 0zm9.479797 0l0 -1.078125q-0.84375 1.25 -2.3125 1.25q-0.640625 0 -1.203125 -0.25q-0.5625 -0.25 -0.84375 -0.625q-0.265625 -0.375 -0.375 -0.921875q-0.0625 -0.359375 -0.0625 -1.15625l0 -4.515625l1.234375 0l0 4.046875q0 0.96875 0.078125 1.3125q0.109375 0.484375 0.484375 0.765625q0.375 0.265625 0.9375 0.265625q0.5625 0 1.046875 -0.28125q0.484375 -0.28125 0.6875 -0.765625q0.203125 -0.5 0.203125 -1.4375l0 -3.90625l1.234375 0l0 7.296875l-1.109375 0zm3.0396423 0l0 -7.296875l1.125 0l0 1.046875q0.796875 -1.203125 2.3125 -1.203125q0.65625 0 1.203125 0.234375q0.5625 0.234375 0.828125 0.625q0.28125 0.375 0.390625 0.90625q0.078125 0.34375 0.078125 1.203125l0 4.484375l-1.25 0l0 -4.4375q0 -0.75 -0.140625 -1.125q-0.140625 -0.375 -0.515625 -0.59375q-0.359375 -0.234375 -0.859375 -0.234375q-0.78125 0 -1.359375 0.5q-0.578125 0.5 -0.578125 1.90625l0 3.984375l-1.234375 0zm8.180267 0l0 -1.40625l1.40625 0l0 1.40625l-1.40625 0zm8.313263 -2.671875l1.21875 0.15625q-0.203125 1.265625 -1.03125 1.984375q-0.8125 0.703125 -2.015625 0.703125q-1.484375 0 -2.40625 -0.984375q-0.90625 -0.984375 -0.90625 -2.8125q0 -1.171875 0.390625 -2.0625q0.390625 -0.890625 1.1875 -1.328125q0.8125 -0.4375 1.75 -0.4375q1.1875 0 1.9375 0.609375q0.765625 0.59375 0.96875 1.6875l-1.203125 0.1875q-0.171875 -0.734375 -0.609375 -1.09375q-0.4375 -0.375 -1.046875 -0.375q-0.9375 0 -1.53125 0.671875q-0.578125 0.65625 -0.578125 2.109375q0 1.46875 0.5625 2.140625q0.578125 0.671875 1.484375 0.671875q0.71875 0 1.203125 -0.453125q0.5 -0.453125 0.625 -1.375z" fill-rule="nonzero"/>
<path fill="#000000" d="m178.32585 59.615215l1.328125 0.34375q-0.40625 1.640625 -1.5 2.5q-1.09375 0.859375 -2.65625 0.859375q-1.640625 0 -2.65625 -0.65625q-1.015625 -0.671875 -1.546875 -1.921875q-0.53125 -1.265625 -0.53125 -2.703125q0 -1.578125 0.59375 -2.734375q0.609375 -1.171875 1.71875 -1.78125q1.109375 -0.609375 2.4375 -0.609375q1.515625 0 2.53125 0.765625q1.03125 0.765625 1.4375 2.15625l-1.3125 0.3125q-0.34375 -1.09375 -1.015625 -1.59375q-0.65625 -0.5 -1.671875 -0.5q-1.15625 0 -1.9375 0.5625q-0.78125 0.546875 -1.09375 1.484375q-0.3125 0.9375 -0.3125 1.9375q0 1.28125 0.375 2.234375q0.375 0.953125 1.15625 1.4375q0.796875 0.46875 1.71875 0.46875q1.109375 0 1.890625 -0.640625q0.78125 -0.65625 1.046875 -1.921875zm2.921112 3.53125l0 -10.0625l1.328125 0l0 8.875l4.953125 0l0 1.1875l-6.28125 0zm8.102142 0l0 -10.0625l1.328125 0l0 10.0625l-1.328125 0zm3.860138 -5.890625l0 -1.40625l1.40625 0l0 1.40625l-1.40625 0zm0 5.890625l0 -1.40625l1.40625 0l0 1.40625l-1.40625 0zm7.001526 -3.015625l0 -1.25l3.796875 0l0 1.25l-3.796875 0zm5.1516724 3.015625l0 -7.296875l1.109375 0l0 1.03125q0.34375 -0.53125 0.90625 -0.859375q0.578125 -0.328125 1.3125 -0.328125q0.796875 0 1.3125 0.34375q0.53125 0.328125 0.734375 0.921875q0.875 -1.265625 2.265625 -1.265625q1.078125 0 1.65625 0.609375q0.59375 0.59375 0.59375 1.84375l0 5.0l-1.234375 0l0 -4.59375q0 -0.734375 -0.125 -1.0625q-0.109375 -0.328125 -0.4375 -0.53125q-0.3125 -0.203125 -0.734375 -0.203125q-0.765625 0 -1.28125 0.515625q-0.5 0.515625 -0.5 1.640625l0 4.234375l-1.234375 0l0 -4.734375q0 -0.828125 -0.3125 -1.234375q-0.296875 -0.421875 -0.984375 -0.421875q-0.515625 0 -0.96875 0.28125q-0.4375 0.265625 -0.640625 0.796875q-0.203125 0.53125 -0.203125 1.53125l0 3.78125l-1.234375 0zm15.621185 0l0 -7.296875l1.109375 0l0 1.03125q0.34375 -0.53125 0.90625 -0.859375q0.578125 -0.328125 1.3125 -0.328125q0.796875 0 1.3125 0.34375q0.53125 0.328125 0.734375 0.921875q0.875 -1.265625 2.265625 -1.265625q1.078125 0 1.65625 0.609375q0.59375 0.59375 0.59375 1.84375l0 5.0l-1.234375 0l0 -4.59375q0 -0.734375 -0.125 -1.0625q-0.109375 -0.328125 -0.4375 -0.53125q-0.3125 -0.203125 -0.734375 -0.203125q-0.765625 0 -1.28125 0.515625q-0.5 0.515625 -0.5 1.640625l0 4.234375l-1.234375 0l0 -4.734375q0 -0.828125 -0.3125 -1.234375q-0.296875 -0.421875 -0.984375 -0.421875q-0.515625 0 -0.96875 0.28125q-0.4375 0.265625 -0.640625 0.796875q-0.203125 0.53125 -0.203125 1.53125l0 3.78125l-1.234375 0zm11.261047 -3.640625q0 -2.03125 1.125 -3.0q0.9375 -0.8125 2.296875 -0.8125q1.5 0 2.453125 0.984375q0.953125 0.984375 0.953125 2.71875q0 1.40625 -0.421875 2.21875q-0.421875 0.796875 -1.234375 1.25q-0.796875 0.453125 -1.75 0.453125q-1.53125 0 -2.484375 -0.984375q-0.9375 -0.984375 -0.9375 -2.828125zm1.265625 0q0 1.390625 0.609375 2.09375q0.609375 0.703125 1.546875 0.703125q0.921875 0 1.53125 -0.703125q0.609375 -0.703125 0.609375 -2.140625q0 -1.359375 -0.625 -2.046875q-0.609375 -0.703125 -1.515625 -0.703125q-0.9375 0 -1.546875 0.703125q-0.609375 0.6875 -0.609375 2.09375zm11.742767 3.640625l0 -0.921875q-0.6875 1.09375 -2.03125 1.09375q-0.875 0 -1.609375 -0.484375q-0.734375 -0.484375 -1.140625 -1.34375q-0.390625 -0.859375 -0.390625 -1.984375q0 -1.09375 0.359375 -1.984375q0.359375 -0.890625 1.09375 -1.359375q0.734375 -0.46875 1.625 -0.46875q0.65625 0 1.171875 0.28125q0.515625 0.265625 0.84375 0.71875l0 -3.609375l1.21875 0l0 10.0625l-1.140625 0zm-3.90625 -3.640625q0 1.40625 0.59375 2.109375q0.59375 0.6875 1.390625 0.6875q0.8125 0 1.375 -0.65625q0.5625 -0.671875 0.5625 -2.03125q0 -1.5 -0.578125 -2.203125q-0.5625 -0.703125 -1.40625 -0.703125q-0.828125 0 -1.390625 0.671875q-0.546875 0.671875 -0.546875 2.125zm11.992767 1.296875l1.28125 0.15625q-0.3125 1.109375 -1.125 1.734375q-0.8125 0.625 -2.09375 0.625q-1.59375 0 -2.53125 -0.984375q-0.9375 -1.0 -0.9375 -2.765625q0 -1.84375 0.9375 -2.859375q0.953125 -1.015625 2.46875 -1.015625q1.46875 0 2.390625 1.0q0.921875 0.984375 0.921875 2.796875q0 0.109375 0 0.328125l-5.4375 0q0.0625 1.203125 0.671875 1.84375q0.609375 0.640625 1.53125 0.640625q0.671875 0 1.15625 -0.359375q0.484375 -0.359375 0.765625 -1.140625zm-4.0625 -2.0l4.078125 0q-0.09375 -0.921875 -0.46875 -1.390625q-0.59375 -0.703125 -1.53125 -0.703125q-0.859375 0 -1.4375 0.578125q-0.578125 0.5625 -0.640625 1.515625zm6.867752 4.34375l0 -10.0625l1.234375 0l0 10.0625l-1.234375 0zm3.467987 0l0 -1.40625l1.40625 0l0 1.40625q0 0.78125 -0.28125 1.2500038q-0.265625 0.484375 -0.859375 0.734375l-0.34375 -0.515625q0.390625 -0.171875 0.5625 -0.515625q0.1875 -0.3281288 0.21875 -0.9531288l-0.703125 0zm7.017151 -3.015625l0 -1.25l3.796875 0l0 1.25l-3.796875 0zm5.1516724 5.812504l0 -10.093754l1.125 0l0 0.953125q0.40625 -0.5625 0.90625 -0.828125q0.5 -0.28125 1.21875 -0.28125q0.9375 0 1.640625 0.484375q0.71875 0.46875 1.078125 1.34375q0.375 0.875 0.375 1.921875q0 1.125 -0.40625 2.015625q-0.40625 0.890625 -1.171875 1.375q-0.765625 0.484375 -1.609375 0.484375q-0.625 0 -1.109375 -0.265625q-0.484375 -0.265625 -0.8125 -0.65625l0 3.5468788l-1.234375 0zm1.125 -6.406254q0 1.40625 0.5625 2.09375q0.578125 0.671875 1.390625 0.671875q0.8125 0 1.40625 -0.703125q0.59375 -0.703125 0.59375 -2.15625q0 -1.40625 -0.578125 -2.09375q-0.578125 -0.6875 -1.375 -0.6875q-0.78125 0 -1.390625 0.734375q-0.609375 0.734375 -0.609375 2.140625zm10.602905 6.406254l0 -10.093754l1.125 0l0 0.953125q0.40625 -0.5625 0.90625 -0.828125q0.5 -0.28125 1.21875 -0.28125q0.9375 0 1.640625 0.484375q0.71875 0.46875 1.078125 1.34375q0.375 0.875 0.375 1.921875q0 1.125 -0.40625 2.015625q-0.40625 0.890625 -1.171875 1.375q-0.765625 0.484375 -1.609375 0.484375q-0.625 0 -1.109375 -0.265625q-0.484375 -0.265625 -0.8125 -0.65625l0 3.5468788l-1.234375 0zm1.125 -6.406254q0 1.40625 0.5625 2.09375q0.578125 0.671875 1.390625 0.671875q0.8125 0 1.40625 -0.703125q0.59375 -0.703125 0.59375 -2.15625q0 -1.40625 -0.578125 -2.09375q-0.578125 -0.6875 -1.375 -0.6875q-0.78125 0 -1.390625 0.734375q-0.609375 0.734375 -0.609375 2.140625zm6.6802673 3.609375l0 -7.296875l1.125 0l0 1.109375q0.421875 -0.78125 0.78125 -1.015625q0.359375 -0.25 0.796875 -0.25q0.625 0 1.265625 0.390625l-0.421875 1.15625q-0.453125 -0.28125 -0.90625 -0.28125q-0.40625 0 -0.734375 0.25q-0.3125 0.25 -0.453125 0.671875q-0.203125 0.671875 -0.203125 1.453125l0 3.8125l-1.25 0zm4.2454224 -3.640625q0 -2.03125 1.125 -3.0q0.9375 -0.8125 2.296875 -0.8125q1.5 0 2.453125 0.984375q0.953125 0.984375 0.953125 2.71875q0 1.40625 -0.421875 2.21875q-0.421875 0.796875 -1.234375 1.25q-0.796875 0.453125 -1.75 0.453125q-1.53125 0 -2.484375 -0.984375q-0.9375 -0.984375 -0.9375 -2.828125zm1.265625 0q0 1.390625 0.609375 2.09375q0.609375 0.703125 1.546875 0.703125q0.921875 0 1.53125 -0.703125q0.609375 -0.703125 0.609375 -2.140625q0 -1.359375 -0.625 -2.046875q-0.609375 -0.703125 -1.515625 -0.703125q-0.9375 0 -1.546875 0.703125q-0.609375 0.6875 -0.609375 2.09375zm7.0083923 3.640625l0 -7.296875l1.109375 0l0 1.03125q0.34375 -0.53125 0.90625 -0.859375q0.578125 -0.328125 1.3125 -0.328125q0.796875 0 1.3125 0.34375q0.53125 0.328125 0.734375 0.921875q0.875 -1.265625 2.265625 -1.265625q1.078125 0 1.65625 0.609375q0.59375 0.59375 0.59375 1.84375l0 5.0l-1.234375 0l0 -4.59375q0 -0.734375 -0.125 -1.0625q-0.109375 -0.328125 -0.4375 -0.53125q-0.3125 -0.203125 -0.734375 -0.203125q-0.765625 0 -1.28125 0.515625q-0.5 0.515625 -0.5 1.640625l0 4.234375l-1.234375 0l0 -4.734375q0 -0.828125 -0.3125 -1.234375q-0.296875 -0.421875 -0.984375 -0.421875q-0.515625 0 -0.96875 0.28125q-0.4375 0.265625 -0.640625 0.796875q-0.203125 0.53125 -0.203125 1.53125l0 3.78125l-1.234375 0zm11.714172 2.7968788l0 -10.093754l1.125 0l0 0.953125q0.40625 -0.5625 0.90625 -0.828125q0.5 -0.28125 1.21875 -0.28125q0.9375 0 1.640625 0.484375q0.71875 0.46875 1.078125 1.34375q0.375 0.875 0.375 1.921875q0 1.125 -0.40625 2.015625q-0.40625 0.890625 -1.171875 1.375q-0.765625 0.484375 -1.609375 0.484375q-0.625 0 -1.109375 -0.265625q-0.484375 -0.265625 -0.8125 -0.65625l0 3.5468788l-1.234375 0zm1.125 -6.406254q0 1.40625 0.5625 2.09375q0.578125 0.671875 1.390625 0.671875q0.8125 0 1.40625 -0.703125q0.59375 -0.703125 0.59375 -2.15625q0 -1.40625 -0.578125 -2.09375q-0.578125 -0.6875 -1.375 -0.6875q-0.78125 0 -1.390625 0.734375q-0.609375 0.734375 -0.609375 2.140625zm9.399017 2.5l0.171875 1.09375q-0.515625 0.109375 -0.921875 0.109375q-0.671875 0 -1.046875 -0.203125q-0.375 -0.21875 -0.53125 -0.5625q-0.140625 -0.34375 -0.140625 -1.46875l0 -4.1875l-0.90625 0l0 -0.96875l0.90625 0l0 -1.796875l1.21875 -0.75l0 2.546875l1.25 0l0 0.96875l-1.25 0l0 4.265625q0 0.53125 0.0625 0.6875q0.078125 0.140625 0.21875 0.234375q0.15625 0.078125 0.421875 0.078125q0.203125 0 0.546875 -0.046875z" fill-rule="nonzero"/>
<path fill="#d9ead3" d="m30.643045 133.1656c0 -4.6213074 3.7463093 -8.367615 8.36762 -8.367615l118.03641 0c2.2192383 0 4.3475647 0.88158417 5.916809 2.450821c1.5692291 1.5692291 2.450821 3.6975708 2.450821 5.916794l0 33.469482c0 4.6213074 -3.7463226 8.36763 -8.36763 8.36763l-118.03641 0c-4.621311 0 -8.36762 -3.7463226 -8.36762 -8.36763z" fill-rule="evenodd"/>
<path stroke="#a4c2f4" stroke-width="0.8792650918635171" stroke-linejoin="round" stroke-linecap="butt" d="m30.643045 133.1656c0 -4.6213074 3.7463093 -8.367615 8.36762 -8.367615l118.03641 0c2.2192383 0 4.3475647 0.88158417 5.916809 2.450821c1.5692291 1.5692291 2.450821 3.6975708 2.450821 5.916794l0 33.469482c0 4.6213074 -3.7463226 8.36763 -8.36763 8.36763l-118.03641 0c-4.621311 0 -8.36762 -3.7463226 -8.36762 -8.36763z" fill-rule="evenodd"/>
<path fill="#000000" d="m68.04275 145.29701l0.171875 1.09375q-0.515625 0.109375 -0.921875 0.109375q-0.671875 0 -1.046875 -0.203125q-0.375 -0.21875 -0.53125 -0.5625q-0.140625 -0.34375 -0.140625 -1.46875l0 -4.1875l-0.90625 0l0 -0.96875l0.90625 0l0 -1.796875l1.21875 -0.75l0 2.546875l1.25 0l0 0.96875l-1.25 0l0 4.265625q0 0.53125 0.0625 0.6875q0.078125 0.140625 0.21875 0.234375q0.15625 0.078125 0.421875 0.078125q0.203125 0 0.546875 -0.046875zm0.75076294 -2.53125q0 -2.03125 1.125 -3.0q0.9375 -0.8125 2.296875 -0.8125q1.5 0 2.453125 0.984375q0.953125 0.984375 0.953125 2.71875q0 1.40625 -0.421875 2.21875q-0.421875 0.796875 -1.234375 1.25q-0.796875 0.453125 -1.75 0.453125q-1.53125 0 -2.484375 -0.984375q-0.9375 -0.984375 -0.9375 -2.828125zm1.265625 0q0 1.390625 0.609375 2.09375q0.609375 0.703125 1.546875 0.703125q0.921875 0 1.53125 -0.703125q0.609375 -0.703125 0.609375 -2.140625q0 -1.359375 -0.625 -2.046875q-0.609375 -0.703125 -1.515625 -0.703125q-0.9375 0 -1.546875 0.703125q-0.609375 0.6875 -0.609375 2.09375zm7.0240173 3.640625l0 -10.0625l1.234375 0l0 5.734375l2.921875 -2.96875l1.59375 0l-2.78125 2.703125l3.0625 4.59375l-1.515625 0l-2.40625 -3.734375l-0.875 0.84375l0 2.890625l-1.234375 0zm12.015625 -2.34375l1.28125 0.15625q-0.3125 1.109375 -1.125 1.734375q-0.8125 0.625 -2.09375 0.625q-1.59375 0 -2.53125 -0.984375q-0.9375 -1.0 -0.9375 -2.765625q0 -1.84375 0.9375 -2.859375q0.953125 -1.015625 2.46875 -1.015625q1.46875 0 2.390625 1.0q0.921875 0.984375 0.921875 2.796875q0 0.109375 0 0.328125l-5.4375 0q0.0625 1.203125 0.671875 1.84375q0.609375 0.640625 1.53125 0.640625q0.671875 0 1.15625 -0.359375q0.484375 -0.359375 0.765625 -1.140625zm-4.0625 -2.0l4.078125 0q-0.09375 -0.921875 -0.46875 -1.390625q-0.59375 -0.703125 -1.53125 -0.703125q-0.859375 0 -1.4375 0.578125q-0.578125 0.5625 -0.640625 1.515625zm6.8833923 4.34375l0 -7.296875l1.125 0l0 1.046875q0.796875 -1.203125 2.3125 -1.203125q0.65625 0 1.203125 0.234375q0.5625 0.234375 0.828125 0.625q0.28125 0.375 0.390625 0.90625q0.078125 0.34375 0.078125 1.203125l0 4.484375l-1.25 0l0 -4.4375q0 -0.75 -0.140625 -1.125q-0.140625 -0.375 -0.515625 -0.59375q-0.359375 -0.234375 -0.859375 -0.234375q-0.78125 0 -1.359375 0.5q-0.578125 0.5 -0.578125 1.90625l0 3.984375l-1.234375 0zm7.8365173 -8.640625l0 -1.421875l1.234375 0l0 1.421875l-1.234375 0zm0 8.640625l0 -7.296875l1.234375 0l0 7.296875l-1.234375 0zm2.467987 0l0 -1.0l4.640625 -5.328125q-0.796875 0.03125 -1.40625 0.03125l-2.96875 0l0 -1.0l5.96875 0l0 0.828125l-3.953125 4.625l-0.765625 0.84375q0.828125 -0.0625 1.5625 -0.0625l3.375 0l0 1.0625l-6.453125 0zm12.671875 -2.34375l1.28125 0.15625q-0.3125 1.109375 -1.125 1.734375q-0.8125 0.625 -2.09375 0.625q-1.59375 0 -2.53125 -0.984375q-0.9375 -1.0 -0.9375 -2.765625q0 -1.84375 0.9375 -2.859375q0.953125 -1.015625 2.46875 -1.015625q1.46875 0 2.390625 1.0q0.921875 0.984375 0.921875 2.796875q0 0.109375 0 0.328125l-5.4375 0q0.0625 1.203125 0.671875 1.84375q0.609375 0.640625 1.53125 0.640625q0.671875 0 1.15625 -0.359375q0.484375 -0.359375 0.765625 -1.140625zm-4.0625 -2.0l4.078125 0q-0.09375 -0.921875 -0.46875 -1.390625q-0.59375 -0.703125 -1.53125 -0.703125q-0.859375 0 -1.4375 0.578125q-0.578125 0.5625 -0.640625 1.515625zm6.8677673 4.34375l0 -7.296875l1.125 0l0 1.109375q0.421875 -0.78125 0.78125 -1.015625q0.359375 -0.25 0.796875 -0.25q0.625 0 1.265625 0.390625l-0.421875 1.15625q-0.453125 -0.28125 -0.90625 -0.28125q-0.40625 0 -0.734375 0.25q-0.3125 0.25 -0.453125 0.671875q-0.203125 0.671875 -0.203125 1.453125l0 3.8125l-1.25 0zm4.281662 0l0 -1.40625l1.40625 0l0 1.40625l-1.40625 0zm8.313271 -2.671875l1.21875 0.15625q-0.203125 1.265625 -1.03125 1.984375q-0.8125 0.703125 -2.015625 0.703125q-1.4843826 0 -2.4062576 -0.984375q-0.90625 -0.984375 -0.90625 -2.8125q0 -1.171875 0.390625 -2.0625q0.390625 -0.890625 1.1875 -1.328125q0.8125 -0.4375 1.7500076 -0.4375q1.1875 0 1.9375 0.609375q0.765625 0.59375 0.96875 1.6875l-1.203125 0.1875q-0.171875 -0.734375 -0.609375 -1.09375q-0.4375 -0.375 -1.046875 -0.375q-0.9375076 0 -1.5312576 0.671875q-0.578125 0.65625 -0.578125 2.109375q0 1.46875 0.5625 2.140625q0.578125 0.671875 1.4843826 0.671875q0.71875 0 1.203125 -0.453125q0.5 -0.453125 0.625 -1.375z" fill-rule="nonzero"/>
<path fill="#000000" d="m51.777714 163.40639l0 -10.0625l3.78125 0q1.140625 0 1.84375 0.3125q0.703125 0.296875 1.09375 0.9375q0.390625 0.625 0.390625 1.328125q0 0.640625 -0.359375 1.21875q-0.34375 0.5625 -1.046875 0.90625q0.921875 0.265625 1.40625 0.921875q0.484375 0.640625 0.484375 1.515625q0 0.703125 -0.296875 1.3125q-0.296875 0.609375 -0.734375 0.9375q-0.4375 0.328125 -1.109375 0.5q-0.65625 0.171875 -1.609375 0.171875l-3.84375 0zm1.328125 -5.84375l2.171875 0q0.890625 0 1.28125 -0.109375q0.5 -0.15625 0.75 -0.5q0.265625 -0.34375 0.265625 -0.875q0 -0.5 -0.25 -0.875q-0.234375 -0.390625 -0.6875 -0.53125q-0.4375 -0.140625 -1.515625 -0.140625l-2.015625 0l0 3.03125zm0 4.65625l2.515625 0q0.640625 0 0.90625 -0.046875q0.453125 -0.078125 0.765625 -0.265625q0.3125 -0.203125 0.5 -0.5625q0.203125 -0.375 0.203125 -0.859375q0 -0.5625 -0.296875 -0.96875q-0.28125 -0.421875 -0.796875 -0.59375q-0.5 -0.171875 -1.46875 -0.171875l-2.328125 0l0 3.46875zm8.098328 1.1875l0 -10.0625l3.7968712 0q1.015625 0 1.53125 0.09375q0.75 0.125 1.25 0.46875q0.5 0.34375 0.796875 0.96875q0.3125 0.625 0.3125 1.375q0 1.28125 -0.8125 2.171875q-0.8125 0.890625 -2.953125 0.890625l-2.5781212 0l0 4.09375l-1.34375 0zm1.34375 -5.28125l2.5937462 0q1.296875 0 1.828125 -0.46875q0.546875 -0.484375 0.546875 -1.359375q0 -0.640625 -0.328125 -1.078125q-0.3125 -0.453125 -0.828125 -0.609375q-0.34375 -0.078125 -1.25 -0.078125l-2.5624962 0l0 3.59375zm8.067074 5.28125l0 -10.0625l7.28125 0l0 1.1875l-5.953125 0l0 3.078125l5.578125 0l0 1.1875l-5.578125 0l0 3.421875l6.1875 0l0 1.1875l-7.515625 0zm15.802216 -1.109375l0.171875 1.09375q-0.515625 0.109375 -0.921875 0.109375q-0.671875 0 -1.046875 -0.203125q-0.375 -0.21875 -0.53125 -0.5625q-0.140625 -0.34375 -0.140625 -1.46875l0 -4.1875l-0.90625 0l0 -0.96875l0.90625 0l0 -1.796875l1.21875 -0.75l0 2.546875l1.25 0l0 0.96875l-1.25 0l0 4.265625q0 0.53125 0.0625 0.6875q0.078125 0.140625 0.21875 0.234375q0.15625 0.078125 0.421875 0.078125q0.203125 0 0.546875 -0.046875zm6.203888 -1.234375l1.28125 0.15625q-0.3125 1.109375 -1.125 1.734375q-0.8125 0.625 -2.09375 0.625q-1.59375 0 -2.53125 -0.984375q-0.9375 -1.0 -0.9375 -2.765625q0 -1.84375 0.9375 -2.859375q0.953125 -1.015625 2.46875 -1.015625q1.46875 0 2.390625 1.0q0.921875 0.984375 0.921875 2.796875q0 0.109375 0 0.328125l-5.4375 0q0.0625 1.203125 0.671875 1.84375q0.609375 0.640625 1.53125 0.640625q0.671875 0 1.15625 -0.359375q0.484375 -0.359375 0.765625 -1.140625zm-4.0625 -2.0l4.078125 0q-0.09375 -0.921875 -0.46875 -1.390625q-0.59375 -0.703125 -1.53125 -0.703125q-0.859375 0 -1.4375 0.578125q-0.578125 0.5625 -0.640625 1.515625zm6.0708923 4.34375l2.65625 -3.796875l-2.46875 -3.5l1.546875 0l1.125 1.71875q0.3125 0.484375 0.5 0.8125q0.3125 -0.453125 0.5625 -0.796875l1.234375 -1.734375l1.46875 0l-2.515625 3.4375l2.703125 3.859375l-1.515625 0l-1.5 -2.265625l-0.390625 -0.609375l-1.921875 2.875l-1.484375 0zm10.546875 -1.109375l0.171875 1.09375q-0.515625 0.109375 -0.921875 0.109375q-0.671875 0 -1.046875 -0.203125q-0.375 -0.21875 -0.53125 -0.5625q-0.140625 -0.34375 -0.140625 -1.46875l0 -4.1875l-0.90625 0l0 -0.96875l0.90625 0l0 -1.796875l1.21875 -0.75l0 2.546875l1.25 0l0 0.96875l-1.25 0l0 4.265625q0 0.53125 0.0625 0.6875q0.078125 0.140625 0.21875 0.234375q0.15625 0.078125 0.421875 0.078125q0.203125 0 0.546875 -0.046875zm17.70465 -2.59375l0 0.296875q-0.640625 0.296875 -1.265625 0.8125q-0.625 0.5 -1.53125 1.515625l-0.546875 0q0.484375 -1.1875 1.34375 -2.140625l-8.96875 0q0.859375 0.953125 1.328125 2.140625l-0.546875 0q-0.890625 -1.015625 -1.515625 -1.515625q-0.625 -0.515625 -1.265625 -0.8125l0 -0.296875q0.640625 -0.3125 1.265625 -0.796875q0.625 -0.5 1.515625 -1.53125l0.546875 0q-0.46875 1.1875 -1.328125 2.140625l8.96875 0q-0.859375 -0.953125 -1.34375 -2.140625l0.546875 0q0.90625 1.03125 1.53125 1.53125q0.625 0.484375 1.265625 0.796875zm5.391388 -4.9375l0 -1.421875l1.234375 0l0 1.421875l-1.234375 0zm0 8.640625l0 -7.296875l1.234375 0l0 7.296875l-1.234375 0zm7.842987 0l0 -0.921875q-0.6875 1.09375 -2.03125 1.09375q-0.875 0 -1.609375 -0.484375q-0.734375 -0.484375 -1.140625 -1.34375q-0.390625 -0.859375 -0.390625 -1.984375q0 -1.09375 0.359375 -1.984375q0.359375 -0.890625 1.09375 -1.359375q0.734375 -0.46875 1.625 -0.46875q0.65625 0 1.171875 0.28125q0.515625 0.265625 0.84375 0.71875l0 -3.609375l1.21875 0l0 10.0625l-1.140625 0zm-3.90625 -3.640625q0 1.40625 0.59375 2.109375q0.59375 0.6875 1.390625 0.6875q0.8125 0 1.375 -0.65625q0.5625 -0.671875 0.5625 -2.03125q0 -1.5 -0.578125 -2.203125q-0.5625 -0.703125 -1.40625 -0.703125q-0.828125 0 -1.390625 0.671875q-0.546875 0.671875 -0.546875 2.125zm6.5083923 1.46875l1.21875 -0.203125q0.109375 0.734375 0.578125 1.140625q0.46875 0.390625 1.3125 0.390625q0.84375 0 1.25 -0.34375q0.421875 -0.359375 0.421875 -0.828125q0 -0.421875 -0.359375 -0.65625q-0.265625 -0.15625 -1.265625 -0.421875q-1.359375 -0.34375 -1.890625 -0.59375q-0.515625 -0.25 -0.796875 -0.6875q-0.265625 -0.4375 -0.265625 -0.984375q0 -0.484375 0.21875 -0.890625q0.21875 -0.421875 0.609375 -0.703125q0.296875 -0.203125 0.78125 -0.34375q0.5 -0.15625 1.078125 -0.15625q0.859375 0 1.5 0.25q0.65625 0.234375 0.953125 0.65625q0.3125 0.421875 0.4375 1.140625l-1.21875 0.15625q-0.078125 -0.5625 -0.46875 -0.875q-0.390625 -0.3125 -1.125 -0.3125q-0.84375 0 -1.21875 0.28125q-0.359375 0.28125 -0.359375 0.65625q0 0.234375 0.15625 0.4375q0.15625 0.1875 0.46875 0.328125q0.1875 0.0625 1.09375 0.3125q1.3125 0.34375 1.828125 0.578125q0.515625 0.21875 0.8125 0.640625q0.296875 0.421875 0.296875 1.0625q0 0.609375 -0.359375 1.15625q-0.359375 0.546875 -1.046875 0.859375q-0.671875 0.296875 -1.53125 0.296875q-1.421875 0 -2.171875 -0.59375q-0.734375 -0.59375 -0.9375 -1.75z" fill-rule="nonzero"/>
<path fill="#d9ead3" d="m180.82152 133.16553c0 -4.6213226 3.7463226 -8.36763 8.36763 -8.36763l118.03641 0c2.2192383 0 4.3475647 0.8815918 5.916809 2.450821c1.5692139 1.5692291 2.4508057 3.6975708 2.4508057 5.916809l0 33.469482c0 4.6213074 -3.7463074 8.367615 -8.367615 8.367615l-118.03641 0c-4.6213074 0 -8.36763 -3.7463074 -8.36763 -8.367615z" fill-rule="evenodd"/>
<path stroke="#a4c2f4" stroke-width="0.8792650918635171" stroke-linejoin="round" stroke-linecap="butt" d="m180.82152 133.16553c0 -4.6213226 3.7463226 -8.36763 8.36763 -8.36763l118.03641 0c2.2192383 0 4.3475647 0.8815918 5.916809 2.450821c1.5692139 1.5692291 2.4508057 3.6975708 2.4508057 5.916809l0 33.469482c0 4.6213074 -3.7463074 8.367615 -8.367615 8.367615l-118.03641 0c-4.6213074 0 -8.36763 -3.7463074 -8.36763 -8.367615z" fill-rule="evenodd"/>
<path fill="#000000" d="m224.50955 146.40631l0 -7.296875l1.109375 0l0 1.03125q0.34375 -0.53125 0.90625 -0.859375q0.578125 -0.328125 1.3125 -0.328125q0.796875 0 1.3125 0.34375q0.53125 0.328125 0.734375 0.921875q0.875 -1.265625 2.265625 -1.265625q1.078125 0 1.65625 0.609375q0.59375 0.59375 0.59375 1.84375l0 5.0l-1.234375 0l0 -4.59375q0 -0.734375 -0.125 -1.0625q-0.109375 -0.328125 -0.4375 -0.53125q-0.3125 -0.203125 -0.734375 -0.203125q-0.765625 0 -1.28125 0.515625q-0.5 0.515625 -0.5 1.640625l0 4.234375l-1.234375 0l0 -4.734375q0 -0.828125 -0.3125 -1.234375q-0.296875 -0.421875 -0.984375 -0.421875q-0.515625 0 -0.96875 0.28125q-0.4375 0.265625 -0.640625 0.796875q-0.203125 0.53125 -0.203125 1.53125l0 3.78125l-1.234375 0zm11.261047 -3.640625q0 -2.03125 1.125 -3.0q0.9375 -0.8125 2.296875 -0.8125q1.5 0 2.453125 0.984375q0.953125 0.984375 0.953125 2.71875q0 1.40625 -0.421875 2.21875q-0.421875 0.796875 -1.234375 1.25q-0.796875 0.453125 -1.75 0.453125q-1.53125 0 -2.484375 -0.984375q-0.9375 -0.984375 -0.9375 -2.828125zm1.265625 0q0 1.390625 0.609375 2.09375q0.609375 0.703125 1.546875 0.703125q0.921875 0 1.53125 -0.703125q0.609375 -0.703125 0.609375 -2.140625q0 -1.359375 -0.625 -2.046875q-0.609375 -0.703125 -1.515625 -0.703125q-0.9375 0 -1.546875 0.703125q-0.609375 0.6875 -0.609375 2.09375zm11.742767 3.640625l0 -0.921875q-0.6875 1.09375 -2.03125 1.09375q-0.875 0 -1.609375 -0.484375q-0.734375 -0.484375 -1.140625 -1.34375q-0.390625 -0.859375 -0.390625 -1.984375q0 -1.09375 0.359375 -1.984375q0.359375 -0.890625 1.09375 -1.359375q0.734375 -0.46875 1.625 -0.46875q0.65625 0 1.171875 0.28125q0.515625 0.265625 0.84375 0.71875l0 -3.609375l1.21875 0l0 10.0625l-1.140625 0zm-3.90625 -3.640625q0 1.40625 0.59375 2.109375q0.59375 0.6875 1.390625 0.6875q0.8125 0 1.375 -0.65625q0.5625 -0.671875 0.5625 -2.03125q0 -1.5 -0.578125 -2.203125q-0.5625 -0.703125 -1.40625 -0.703125q-0.828125 0 -1.390625 0.671875q-0.546875 0.671875 -0.546875 2.125zm11.992767 1.296875l1.28125 0.15625q-0.3125 1.109375 -1.125 1.734375q-0.8125 0.625 -2.09375 0.625q-1.59375 0 -2.53125 -0.984375q-0.9375 -1.0 -0.9375 -2.765625q0 -1.84375 0.9375 -2.859375q0.953125 -1.015625 2.46875 -1.015625q1.46875 0 2.390625 1.0q0.921875 0.984375 0.921875 2.796875q0 0.109375 0 0.328125l-5.4375 0q0.0625 1.203125 0.671875 1.84375q0.609375 0.640625 1.53125 0.640625q0.671875 0 1.15625 -0.359375q0.484375 -0.359375 0.765625 -1.140625zm-4.0625 -2.0l4.078125 0q-0.09375 -0.921875 -0.46875 -1.390625q-0.59375 -0.703125 -1.53125 -0.703125q-0.859375 0 -1.4375 0.578125q-0.578125 0.5625 -0.640625 1.515625zm6.8677673 4.34375l0 -10.0625l1.234375 0l0 10.0625l-1.234375 0zm3.499237 0l0 -1.40625l1.40625 0l0 1.40625l-1.40625 0zm8.313263 -2.671875l1.21875 0.15625q-0.203125 1.265625 -1.03125 1.984375q-0.8125 0.703125 -2.015625 0.703125q-1.484375 0 -2.40625 -0.984375q-0.90625 -0.984375 -0.90625 -2.8125q0 -1.171875 0.390625 -2.0625q0.390625 -0.890625 1.1875 -1.328125q0.8125 -0.4375 1.75 -0.4375q1.1875 0 1.9375 0.609375q0.765625 0.59375 0.96875 1.6875l-1.203125 0.1875q-0.171875 -0.734375 -0.609375 -1.09375q-0.4375 -0.375 -1.046875 -0.375q-0.9375 0 -1.53125 0.671875q-0.578125 0.65625 -0.578125 2.109375q0 1.46875 0.5625 2.140625q0.578125 0.671875 1.484375 0.671875q0.71875 0 1.203125 -0.453125q0.5 -0.453125 0.625 -1.375z" fill-rule="nonzero"/>
<path fill="#000000" d="m203.6736 160.73444l1.21875 0.15625q-0.203125 1.265625 -1.03125 1.984375q-0.8125 0.703125 -2.015625 0.703125q-1.484375 0 -2.40625 -0.984375q-0.90625 -0.984375 -0.90625 -2.8125q0 -1.171875 0.390625 -2.0625q0.390625 -0.890625 1.1875 -1.328125q0.8125 -0.4375 1.75 -0.4375q1.1875 0 1.9375 0.609375q0.765625 0.59375 0.96875 1.6875l-1.203125 0.1875q-0.171875 -0.734375 -0.609375 -1.09375q-0.4375 -0.375 -1.046875 -0.375q-0.9375 0 -1.53125 0.671875q-0.578125 0.65625 -0.578125 2.109375q0 1.46875 0.5625 2.140625q0.578125 0.671875 1.484375 0.671875q0.71875 0 1.203125 -0.453125q0.5 -0.453125 0.625 -1.375zm1.8125 -0.96875q0 -2.03125 1.125 -3.0q0.9375 -0.8125 2.296875 -0.8125q1.5 0 2.453125 0.984375q0.953125 0.984375 0.953125 2.71875q0 1.40625 -0.421875 2.21875q-0.421875 0.796875 -1.234375 1.25q-0.796875 0.453125 -1.75 0.453125q-1.53125 0 -2.484375 -0.984375q-0.9375 -0.984375 -0.9375 -2.828125zm1.265625 0q0 1.390625 0.609375 2.09375q0.609375 0.703125 1.546875 0.703125q0.921875 0 1.53125 -0.703125q0.609375 -0.703125 0.609375 -2.140625q0 -1.359375 -0.625 -2.046875q-0.609375 -0.703125 -1.515625 -0.703125q-0.9375 0 -1.546875 0.703125q-0.609375 0.6875 -0.609375 2.09375zm7.0083923 3.640625l0 -7.296875l1.125 0l0 1.046875q0.796875 -1.203125 2.3125 -1.203125q0.65625 0 1.203125 0.234375q0.5625 0.234375 0.828125 0.625q0.28125 0.375 0.390625 0.90625q0.078125 0.34375 0.078125 1.203125l0 4.484375l-1.25 0l0 -4.4375q0 -0.75 -0.140625 -1.125q-0.140625 -0.375 -0.515625 -0.59375q-0.359375 -0.234375 -0.859375 -0.234375q-0.78125 0 -1.359375 0.5q-0.578125 0.5 -0.578125 1.90625l0 3.984375l-1.234375 0zm8.117767 0l0 -6.328125l-1.09375 0l0 -0.96875l1.09375 0l0 -0.765625q0 -0.734375 0.140625 -1.09375q0.171875 -0.484375 0.625 -0.78125q0.453125 -0.296875 1.25 -0.296875q0.53125 0 1.15625 0.125l-0.1875 1.078125q-0.375 -0.078125 -0.71875 -0.078125q-0.5625 0 -0.796875 0.25q-0.234375 0.234375 -0.234375 0.890625l0 0.671875l1.421875 0l0 0.96875l-1.421875 0l0 6.328125l-1.234375 0zm3.625763 -8.640625l0 -1.421875l1.234375 0l0 1.421875l-1.234375 0zm0 8.640625l0 -7.296875l1.234375 0l0 7.296875l-1.234375 0zm2.889862 0.609375l1.203125 0.171875q0.078125 0.5625 0.421875 0.8125q0.453125 0.34375 1.25 0.34375q0.859375 0 1.328125 -0.34375q0.46875 -0.34375 0.625 -0.96875q0.09375 -0.375 0.09375 -1.578125q-0.8125 0.953125 -2.015625 0.953125q-1.515625 0 -2.34375 -1.078125q-0.8125 -1.09375 -0.8125 -2.609375q0 -1.046875 0.375 -1.921875q0.375 -0.890625 1.09375 -1.359375q0.71875 -0.484375 1.6875 -0.484375q1.296875 0 2.125 1.046875l0 -0.890625l1.140625 0l0 6.3125q0 1.703125 -0.34375 2.40625q-0.34375 0.71875 -1.09375 1.125q-0.75 0.40625 -1.859375 0.40625q-1.296875 0 -2.109375 -0.59375q-0.796875 -0.578125 -0.765625 -1.75zm1.015625 -4.390625q0 1.4375 0.5625 2.109375q0.578125 0.65625 1.4375 0.65625q0.859375 0 1.4375 -0.65625q0.578125 -0.65625 0.578125 -2.0625q0 -1.34375 -0.609375 -2.015625q-0.59375 -0.6875 -1.421875 -0.6875q-0.828125 0 -1.40625 0.671875q-0.578125 0.671875 -0.578125 1.984375zm13.52478 2.15625l0 -2.765625l-2.734375 0l0 -1.15625l2.734375 0l0 -2.734375l1.171875 0l0 2.734375l2.734375 0l0 1.15625l-2.734375 0l0 2.765625l-1.171875 0zm9.822418 1.625l0 -6.328125l-1.09375 0l0 -0.96875l1.09375 0l0 -0.765625q0 -0.734375 0.140625 -1.09375q0.171875 -0.484375 0.625 -0.78125q0.453125 -0.296875 1.25 -0.296875q0.53125 0 1.15625 0.125l-0.1875 1.078125q-0.375 -0.078125 -0.71875 -0.078125q-0.5625 0 -0.796875 0.25q-0.234375 0.234375 -0.234375 0.890625l0 0.671875l1.421875 0l0 0.96875l-1.421875 0l0 6.328125l-1.234375 0zm3.157013 -3.640625q0 -2.03125 1.1249847 -3.0q0.9375 -0.8125 2.296875 -0.8125q1.5 0 2.453125 0.984375q0.953125 0.984375 0.953125 2.71875q0 1.40625 -0.421875 2.21875q-0.421875 0.796875 -1.234375 1.25q-0.796875 0.453125 -1.75 0.453125q-1.53125 0 -2.484375 -0.984375q-0.93748474 -0.984375 -0.93748474 -2.828125zm1.2656097 0q0 1.390625 0.609375 2.09375q0.609375 0.703125 1.546875 0.703125q0.921875 0 1.53125 -0.703125q0.609375 -0.703125 0.609375 -2.140625q0 -1.359375 -0.625 -2.046875q-0.609375 -0.703125 -1.515625 -0.703125q-0.9375 0 -1.546875 0.703125q-0.609375 0.6875 -0.609375 2.09375zm6.9927673 3.640625l0 -7.296875l1.125 0l0 1.109375q0.421875 -0.78125 0.78125 -1.015625q0.359375 -0.25 0.796875 -0.25q0.625 0 1.265625 0.390625l-0.421875 1.15625q-0.453125 -0.28125 -0.90625 -0.28125q-0.40625 0 -0.734375 0.25q-0.3125 0.25 -0.453125 0.671875q-0.203125 0.671875 -0.203125 1.453125l0 3.8125l-1.25 0zm6.0422974 0l-2.21875 -7.296875l1.265625 0l1.171875 4.21875l0.421875 1.5625q0.03125 -0.125 0.375 -1.5l1.171875 -4.28125l1.265625 0l1.09375 4.234375l0.359375 1.390625l0.421875 -1.40625l1.25 -4.21875l1.203125 0l-2.28125 7.296875l-1.28125 0l-1.15625 -4.359375l-0.28125 -1.25l-1.484375 5.609375l-1.296875 0zm13.577362 -0.90625q-0.6875 0.59375 -1.328125 0.84375q-0.625 0.234375 -1.359375 0.234375q-1.203125 0 -1.84375 -0.59375q-0.640625 -0.59375 -0.640625 -1.5q0 -0.53125 0.234375 -0.96875q0.25 -0.453125 0.640625 -0.71875q0.390625 -0.265625 0.890625 -0.40625q0.359375 -0.09375 1.09375 -0.1875q1.5 -0.171875 2.203125 -0.421875q0.015625 -0.25 0.015625 -0.328125q0 -0.75 -0.359375 -1.0625q-0.46875 -0.421875 -1.40625 -0.421875q-0.875 0 -1.296875 0.3125q-0.40625 0.296875 -0.609375 1.078125l-1.203125 -0.171875q0.171875 -0.765625 0.546875 -1.234375q0.375 -0.484375 1.078125 -0.734375q0.71875 -0.265625 1.671875 -0.265625q0.921875 0 1.5 0.21875q0.59375 0.21875 0.859375 0.5625q0.28125 0.328125 0.390625 0.828125q0.0625 0.3125 0.0625 1.140625l0 1.640625q0 1.734375 0.078125 2.1875q0.078125 0.453125 0.3125 0.875l-1.28125 0q-0.203125 -0.390625 -0.25 -0.90625zm-0.109375 -2.75q-0.671875 0.265625 -2.015625 0.46875q-0.765625 0.109375 -1.078125 0.25q-0.3125 0.125 -0.484375 0.390625q-0.171875 0.265625 -0.171875 0.59375q0 0.484375 0.375 0.828125q0.375 0.328125 1.09375 0.328125q0.71875 0 1.265625 -0.3125q0.5625 -0.3125 0.828125 -0.859375q0.1875 -0.421875 0.1875 -1.234375l0 -0.453125zm3.1490173 3.65625l0 -7.296875l1.125 0l0 1.109375q0.421875 -0.78125 0.78125 -1.015625q0.359375 -0.25 0.796875 -0.25q0.625 0 1.265625 0.390625l-0.421875 1.15625q-0.453125 -0.28125 -0.90625 -0.28125q-0.40625 0 -0.734375 0.25q-0.3125 0.25 -0.453125 0.671875q-0.203125 0.671875 -0.203125 1.453125l0 3.8125l-1.25 0zm9.432922 0l0 -0.921875q-0.6875 1.09375 -2.03125 1.09375q-0.875 0 -1.609375 -0.484375q-0.734375 -0.484375 -1.140625 -1.34375q-0.390625 -0.859375 -0.390625 -1.984375q0 -1.09375 0.359375 -1.984375q0.359375 -0.890625 1.09375 -1.359375q0.734375 -0.46875 1.625 -0.46875q0.65625 0 1.171875 0.28125q0.515625 0.265625 0.84375 0.71875l0 -3.609375l1.21875 0l0 10.0625l-1.140625 0zm-3.90625 -3.640625q0 1.40625 0.59375 2.109375q0.59375 0.6875 1.390625 0.6875q0.8125 0 1.375 -0.65625q0.5625 -0.671875 0.5625 -2.03125q0 -1.5 -0.578125 -2.203125q-0.5625 -0.703125 -1.40625 -0.703125q-0.828125 0 -1.390625 0.671875q-0.546875 0.671875 -0.546875 2.125z" fill-rule="nonzero"/>
<path fill="#d9ead3" d="m331.0 133.16553c0 -4.6213226 3.7463074 -8.36763 8.367615 -8.36763l247.26477 0c2.2192383 0 4.347534 0.8815918 5.916809 2.450821c1.5692139 1.5692291 2.4508057 3.6975708 2.4508057 5.916809l0 33.469482c0 4.6213074 -3.746338 8.367615 -8.367615 8.367615l-247.26477 0c-4.6213074 0 -8.367615 -3.7463074 -8.367615 -8.367615z" fill-rule="evenodd"/>
<path stroke="#a4c2f4" stroke-width="0.8792650918635171" stroke-linejoin="round" stroke-linecap="butt" d="m331.0 133.16553c0 -4.6213226 3.7463074 -8.36763 8.367615 -8.36763l247.26477 0c2.2192383 0 4.347534 0.8815918 5.916809 2.450821c1.5692139 1.5692291 2.4508057 3.6975708 2.4508057 5.916809l0 33.469482c0 4.6213074 -3.746338 8.367615 -8.367615 8.367615l-247.26477 0c-4.6213074 0 -8.367615 -3.7463074 -8.367615 -8.367615z" fill-rule="evenodd"/>
<path fill="#000000" d="m444.54916 147.01569l1.203125 0.171875q0.078125 0.5625 0.421875 0.8125q0.453125 0.34375 1.25 0.34375q0.859375 0 1.328125 -0.34375q0.46875 -0.34375 0.625 -0.96875q0.09375 -0.375 0.09375 -1.578125q-0.8125 0.953125 -2.015625 0.953125q-1.515625 0 -2.34375 -1.078125q-0.8125 -1.09375 -0.8125 -2.609375q0 -1.046875 0.375 -1.921875q0.375 -0.890625 1.09375 -1.359375q0.71875 -0.484375 1.6875 -0.484375q1.296875 0 2.125 1.046875l0 -0.890625l1.140625 0l0 6.3125q0 1.703125 -0.34375 2.40625q-0.34375 0.71875 -1.09375 1.125q-0.75 0.40625 -1.859375 0.40625q-1.296875 0 -2.109375 -0.59375q-0.796875 -0.578125 -0.765625 -1.75zm1.015625 -4.390625q0 1.4375 0.5625 2.109375q0.578125 0.65625 1.4375 0.65625q0.859375 0 1.4375 -0.65625q0.578125 -0.65625 0.578125 -2.0625q0 -1.34375 -0.609375 -2.015625q-0.59375 -0.6875 -1.421875 -0.6875q-0.828125 0 -1.40625 0.671875q-0.578125 0.671875 -0.578125 1.984375zm6.8052673 4.390625l1.203125 0.171875q0.078125 0.5625 0.421875 0.8125q0.453125 0.34375 1.25 0.34375q0.859375 0 1.328125 -0.34375q0.46875 -0.34375 0.625 -0.96875q0.09375 -0.375 0.09375 -1.578125q-0.8125 0.953125 -2.015625 0.953125q-1.515625 0 -2.34375 -1.078125q-0.8125 -1.09375 -0.8125 -2.609375q0 -1.046875 0.375 -1.921875q0.375 -0.890625 1.09375 -1.359375q0.71875 -0.484375 1.6875 -0.484375q1.296875 0 2.125 1.046875l0 -0.890625l1.140625 0l0 6.3125q0 1.703125 -0.34375 2.40625q-0.34375 0.71875 -1.09375 1.125q-0.75 0.40625 -1.859375 0.40625q-1.296875 0 -2.109375 -0.59375q-0.796875 -0.578125 -0.765625 -1.75zm1.015625 -4.390625q0 1.4375 0.5625 2.109375q0.578125 0.65625 1.4375 0.65625q0.859375 0 1.4375 -0.65625q0.578125 -0.65625 0.578125 -2.0625q0 -1.34375 -0.609375 -2.015625q-0.59375 -0.6875 -1.421875 -0.6875q-0.828125 0 -1.40625 0.671875q-0.578125 0.671875 -0.578125 1.984375zm11.805267 3.78125l0 -1.078125q-0.84375 1.25 -2.3125 1.25q-0.640625 0 -1.203125 -0.25q-0.5625 -0.25 -0.84375 -0.625q-0.265625 -0.375 -0.375 -0.921875q-0.0625 -0.359375 -0.0625 -1.15625l0 -4.515625l1.234375 0l0 4.046875q0 0.96875 0.078125 1.3125q0.109375 0.484375 0.484375 0.765625q0.375 0.265625 0.9375 0.265625q0.5625 0 1.046875 -0.28125q0.484375 -0.28125 0.6875 -0.765625q0.203125 -0.5 0.203125 -1.4375l0 -3.90625l1.234375 0l0 7.296875l-1.109375 0zm3.3365173 0l0 -6.328125l-1.09375 0l0 -0.96875l1.09375 0l0 -0.765625q0 -0.734375 0.140625 -1.09375q0.171875 -0.484375 0.625 -0.78125q0.453125 -0.296875 1.25 -0.296875q0.53125 0 1.15625 0.125l-0.1875 1.078125q-0.375 -0.078125 -0.71875 -0.078125q-0.5625 0 -0.796875 0.25q-0.234375 0.234375 -0.234375 0.890625l0 0.671875l1.421875 0l0 0.96875l-1.421875 0l0 6.328125l-1.234375 0zm3.969513 0l0 -1.40625l1.40625 0l0 1.40625l-1.40625 0zm8.313263 -2.671875l1.21875 0.15625q-0.203125 1.265625 -1.03125 1.984375q-0.8125 0.703125 -2.015625 0.703125q-1.484375 0 -2.40625 -0.984375q-0.90625 -0.984375 -0.90625 -2.8125q0 -1.171875 0.390625 -2.0625q0.390625 -0.890625 1.1875 -1.328125q0.8125 -0.4375 1.75 -0.4375q1.1875 0 1.9375 0.609375q0.765625 0.59375 0.96875 1.6875l-1.203125 0.1875q-0.171875 -0.734375 -0.609375 -1.09375q-0.4375 -0.375 -1.046875 -0.375q-0.9375 0 -1.53125 0.671875q-0.578125 0.65625 -0.578125 2.109375q0 1.46875 0.5625 2.140625q0.578125 0.671875 1.484375 0.671875q0.71875 0 1.203125 -0.453125q0.5 -0.453125 0.625 -1.375z" fill-rule="nonzero"/>
<path fill="#000000" d="m343.29584 166.20319l0 -10.09375l1.125 0l0 0.953125q0.40625 -0.5625 0.90625 -0.828125q0.5 -0.28125 1.21875 -0.28125q0.9375 0 1.640625 0.484375q0.71875 0.46875 1.078125 1.34375q0.375 0.875 0.375 1.921875q0 1.125 -0.40625 2.015625q-0.40625 0.890625 -1.171875 1.375q-0.765625 0.484375 -1.609375 0.484375q-0.625 0 -1.109375 -0.265625q-0.484375 -0.265625 -0.8125 -0.65625l0 3.546875l-1.234375 0zm1.125 -6.40625q0 1.40625 0.5625 2.09375q0.578125 0.671875 1.390625 0.671875q0.8125 0 1.40625 -0.703125q0.59375 -0.703125 0.59375 -2.15625q0 -1.40625 -0.578125 -2.09375q-0.578125 -0.6875 -1.375 -0.6875q-0.78125 0 -1.390625 0.734375q-0.609375 0.734375 -0.609375 2.140625zm11.461517 2.703125q-0.6875 0.59375 -1.328125 0.84375q-0.625 0.234375 -1.359375 0.234375q-1.203125 0 -1.84375 -0.59375q-0.640625 -0.59375 -0.640625 -1.5q0 -0.53125 0.234375 -0.96875q0.25 -0.453125 0.640625 -0.71875q0.390625 -0.265625 0.890625 -0.40625q0.359375 -0.09375 1.09375 -0.1875q1.5 -0.171875 2.203125 -0.421875q0.015625 -0.25 0.015625 -0.328125q0 -0.75 -0.359375 -1.0625q-0.46875 -0.421875 -1.40625 -0.421875q-0.875 0 -1.296875 0.3125q-0.40625 0.296875 -0.609375 1.078125l-1.203125 -0.171875q0.171875 -0.765625 0.546875 -1.234375q0.375 -0.484375 1.078125 -0.734375q0.71875 -0.265625 1.671875 -0.265625q0.921875 0 1.5 0.21875q0.59375 0.21875 0.859375 0.5625q0.28125 0.328125 0.390625 0.828125q0.0625 0.3125 0.0625 1.140625l0 1.640625q0 1.734375 0.078125 2.1875q0.078125 0.453125 0.3125 0.875l-1.28125 0q-0.203125 -0.390625 -0.25 -0.90625zm-0.109375 -2.75q-0.671875 0.265625 -2.015625 0.46875q-0.765625 0.109375 -1.078125 0.25q-0.3125 0.125 -0.484375 0.390625q-0.171875 0.265625 -0.171875 0.59375q0 0.484375 0.375 0.828125q0.375 0.328125 1.09375 0.328125q0.71875 0 1.265625 -0.3125q0.5625 -0.3125 0.828125 -0.859375q0.1875 -0.421875 0.1875 -1.234375l0 -0.453125zm3.1490173 3.65625l0 -7.296875l1.125 0l0 1.109375q0.421875 -0.78125 0.78125 -1.015625q0.359375 -0.25 0.796875 -0.25q0.625 0 1.265625 0.390625l-0.421875 1.15625q-0.453125 -0.28125 -0.90625 -0.28125q-0.40625 0 -0.734375 0.25q-0.3125 0.25 -0.453125 0.671875q-0.203125 0.671875 -0.203125 1.453125l0 3.8125l-1.25 0zm4.2141724 -2.171875l1.21875 -0.203125q0.109375 0.734375 0.578125 1.140625q0.46875 0.390625 1.3125 0.390625q0.84375 0 1.25 -0.34375q0.421875 -0.359375 0.421875 -0.828125q0 -0.421875 -0.359375 -0.65625q-0.265625 -0.15625 -1.265625 -0.421875q-1.359375 -0.34375 -1.890625 -0.59375q-0.515625 -0.25 -0.796875 -0.6875q-0.265625 -0.4375 -0.265625 -0.984375q0 -0.484375 0.21875 -0.890625q0.21875 -0.421875 0.609375 -0.703125q0.296875 -0.203125 0.78125 -0.34375q0.5 -0.15625 1.078125 -0.15625q0.859375 0 1.5 0.25q0.65625 0.234375 0.953125 0.65625q0.3125 0.421875 0.4375 1.140625l-1.21875 0.15625q-0.078125 -0.5625 -0.46875 -0.875q-0.390625 -0.3125 -1.125 -0.3125q-0.84375 0 -1.21875 0.28125q-0.359375 0.28125 -0.359375 0.65625q0 0.234375 0.15625 0.4375q0.15625 0.1875 0.46875 0.328125q0.1875 0.0625 1.09375 0.3125q1.3125 0.34375 1.828125 0.578125q0.515625 0.21875 0.8125 0.640625q0.296875 0.421875 0.296875 1.0625q0 0.609375 -0.359375 1.15625q-0.359375 0.546875 -1.046875 0.859375q-0.671875 0.296875 -1.53125 0.296875q-1.421875 0 -2.171875 -0.59375q-0.734375 -0.59375 -0.9375 -1.75zm12.515625 -0.171875l1.28125 0.15625q-0.3125 1.109375 -1.125 1.734375q-0.8125 0.625 -2.09375 0.625q-1.59375 0 -2.53125 -0.984375q-0.9375 -1.0 -0.9375 -2.765625q0 -1.84375 0.9375 -2.859375q0.953125 -1.015625 2.46875 -1.015625q1.46875 0 2.390625 1.0q0.921875 0.984375 0.921875 2.796875q0 0.109375 0 0.328125l-5.4375 0q0.0625 1.203125 0.671875 1.84375q0.609375 0.640625 1.53125 0.640625q0.671875 0 1.15625 -0.359375q0.484375 -0.359375 0.765625 -1.140625zm-4.0625 -2.0l4.078125 0q-0.09375 -0.921875 -0.46875 -1.390625q-0.59375 -0.703125 -1.53125 -0.703125q-0.859375 0 -1.4375 0.578125q-0.578125 0.5625 -0.640625 1.515625zm20.540405 -1.671875q0.921875 1.0 1.578125 1.515625q0.671875 0.515625 1.265625 0.765625l0 0.3125q-0.6875 0.328125 -1.328125 0.84375q-0.625 0.515625 -1.515625 1.5l-0.53125 0q0.640625 -1.375 1.359375 -2.125l-10.953125 0l0 -0.6875l10.953125 0q-0.53125 -0.671875 -0.734375 -0.984375q-0.203125 -0.328125 -0.609375 -1.140625l0.515625 0zm12.985138 3.34375l1.21875 0.15625q-0.203125 1.265625 -1.03125 1.984375q-0.8125 0.703125 -2.015625 0.703125q-1.484375 0 -2.40625 -0.984375q-0.90625 -0.984375 -0.90625 -2.8125q0 -1.171875 0.390625 -2.0625q0.390625 -0.890625 1.1875 -1.328125q0.8125 -0.4375 1.75 -0.4375q1.1875 0 1.9375 0.609375q0.765625 0.59375 0.96875 1.6875l-1.203125 0.1875q-0.171875 -0.734375 -0.609375 -1.09375q-0.4375 -0.375 -1.046875 -0.375q-0.9375 0 -1.53125 0.671875q-0.578125 0.65625 -0.578125 2.109375q0 1.46875 0.5625 2.140625q0.578125 0.671875 1.484375 0.671875q0.71875 0 1.203125 -0.453125q0.5 -0.453125 0.625 -1.375zm4.96875 1.5625l0.171875 1.09375q-0.515625 0.109375 -0.921875 0.109375q-0.671875 0 -1.046875 -0.203125q-0.375 -0.21875 -0.53125 -0.5625q-0.140625 -0.34375 -0.140625 -1.46875l0 -4.1875l-0.90625 0l0 -0.96875l0.90625 0l0 -1.796875l1.21875 -0.75l0 2.546875l1.25 0l0 0.96875l-1.25 0l0 4.265625q0 0.53125 0.0625 0.6875q0.078125 0.140625 0.21875 0.234375q0.15625 0.078125 0.421875 0.078125q0.203125 0 0.546875 -0.046875zm0.39138794 1.109375l2.65625 -3.796875l-2.46875 -3.5l1.546875 0l1.125 1.71875q0.3125 0.484375 0.5 0.8125q0.3125 -0.453125 0.5625 -0.796875l1.234375 -1.734375l1.46875 0l-2.515625 3.4375l2.703125 3.859375l-1.515625 0l-1.5 -2.265625l-0.390625 -0.609375l-1.921875 2.875l-1.484375 0zm14.110138 2.953125q-1.015625 -1.28125 -1.734375 -3.015625q-0.703125 -1.734375 -0.703125 -3.578125q0 -1.640625 0.53125 -3.140625q0.625 -1.734375 1.90625 -3.453125l0.890625 0q-0.828125 1.421875 -1.09375 2.03125q-0.421875 0.953125 -0.65625 1.984375q-0.296875 1.28125 -0.296875 2.578125q0 3.296875 2.046875 6.59375l-0.890625 0zm2.3235474 -2.953125l0 -10.0625l1.234375 0l0 3.609375q0.875 -1.0 2.1875 -1.0q0.8125 0 1.40625 0.328125q0.59375 0.3125 0.84375 0.875q0.265625 0.5625 0.265625 1.625l0 4.625l-1.234375 0l0 -4.625q0 -0.921875 -0.40625 -1.34375q-0.390625 -0.421875 -1.125 -0.421875q-0.546875 0 -1.03125 0.28125q-0.484375 0.28125 -0.703125 0.78125q-0.203125 0.484375 -0.203125 1.34375l0 3.984375l-1.234375 0zm12.820892 -2.34375l1.28125 0.15625q-0.3125 1.109375 -1.125 1.734375q-0.8125 0.625 -2.09375 0.625q-1.59375 0 -2.53125 -0.984375q-0.9375 -1.0 -0.9375 -2.765625q0 -1.84375 0.9375 -2.859375q0.953125 -1.015625 2.46875 -1.015625q1.46875 0 2.390625 1.0q0.921875 0.984375 0.921875 2.796875q0 0.109375 0 0.328125l-5.4375 0q0.0625 1.203125 0.671875 1.84375q0.609375 0.640625 1.53125 0.640625q0.671875 0 1.15625 -0.359375q0.484375 -0.359375 0.765625 -1.140625zm-4.0625 -2.0l4.078125 0q-0.09375 -0.921875 -0.46875 -1.390625q-0.59375 -0.703125 -1.53125 -0.703125q-0.859375 0 -1.4375 0.578125q-0.578125 0.5625 -0.640625 1.515625zm11.649017 3.4375q-0.6875 0.59375 -1.328125 0.84375q-0.625 0.234375 -1.359375 0.234375q-1.203125 0 -1.84375 -0.59375q-0.640625 -0.59375 -0.640625 -1.5q0 -0.53125 0.234375 -0.96875q0.25 -0.453125 0.640625 -0.71875q0.390625 -0.265625 0.890625 -0.40625q0.359375 -0.09375 1.09375 -0.1875q1.5 -0.171875 2.203125 -0.421875q0.015625 -0.25 0.015625 -0.328125q0 -0.75 -0.359375 -1.0625q-0.46875 -0.421875 -1.40625 -0.421875q-0.875 0 -1.296875 0.3125q-0.40625 0.296875 -0.609375 1.078125l-1.203125 -0.171875q0.171875 -0.765625 0.546875 -1.234375q0.375 -0.484375 1.078125 -0.734375q0.71875 -0.265625 1.671875 -0.265625q0.921875 0 1.5 0.21875q0.59375 0.21875 0.859375 0.5625q0.28125 0.328125 0.390625 0.828125q0.0625 0.3125 0.0625 1.140625l0 1.640625q0 1.734375 0.078125 2.1875q0.078125 0.453125 0.3125 0.875l-1.28125 0q-0.203125 -0.390625 -0.25 -0.90625zm-0.109375 -2.75q-0.671875 0.265625 -2.015625 0.46875q-0.765625 0.109375 -1.078125 0.25q-0.3125 0.125 -0.484375 0.390625q-0.171875 0.265625 -0.171875 0.59375q0 0.484375 0.375 0.828125q0.375 0.328125 1.09375 0.328125q0.71875 0 1.265625 -0.3125q0.5625 -0.3125 0.828125 -0.859375q0.1875 -0.421875 0.1875 -1.234375l0 -0.453125zm7.8990173 3.65625l0 -0.921875q-0.6875 1.09375 -2.03125 1.09375q-0.875 0 -1.609375 -0.484375q-0.734375 -0.484375 -1.140625 -1.34375q-0.390625 -0.859375 -0.390625 -1.984375q0 -1.09375 0.359375 -1.984375q0.359375 -0.890625 1.09375 -1.359375q0.734375 -0.46875 1.625 -0.46875q0.65625 0 1.171875 0.28125q0.515625 0.265625 0.84375 0.71875l0 -3.609375l1.21875 0l0 10.0625l-1.140625 0zm-3.90625 -3.640625q0 1.40625 0.59375 2.109375q0.59375 0.6875 1.390625 0.6875q0.8125 0 1.375 -0.65625q0.5625 -0.671875 0.5625 -2.03125q0 -1.5 -0.578125 -2.203125q-0.5625 -0.703125 -1.40625 -0.703125q-0.828125 0 -1.390625 0.671875q-0.546875 0.671875 -0.546875 2.125zm11.992767 1.296875l1.28125 0.15625q-0.3125 1.109375 -1.125 1.734375q-0.8125 0.625 -2.09375 0.625q-1.59375 0 -2.53125 -0.984375q-0.9375 -1.0 -0.9375 -2.765625q0 -1.84375 0.9375 -2.859375q0.953125 -1.015625 2.46875 -1.015625q1.46875 0 2.390625 1.0q0.921875 0.984375 0.921875 2.796875q0 0.109375 0 0.328125l-5.4375 0q0.0625 1.203125 0.671875 1.84375q0.609375 0.640625 1.53125 0.640625q0.671875 0 1.15625 -0.359375q0.484375 -0.359375 0.765625 -1.140625zm-4.0625 -2.0l4.078125 0q-0.09375 -0.921875 -0.46875 -1.390625q-0.59375 -0.703125 -1.53125 -0.703125q-0.859375 0 -1.4375 0.578125q-0.578125 0.5625 -0.640625 1.515625zm6.8677673 4.34375l0 -7.296875l1.125 0l0 1.109375q0.421875 -0.78125 0.78125 -1.015625q0.359375 -0.25 0.796875 -0.25q0.625 0 1.265625 0.390625l-0.421875 1.15625q-0.453125 -0.28125 -0.90625 -0.28125q-0.40625 0 -0.734375 0.25q-0.3125 0.25 -0.453125 0.671875q-0.203125 0.671875 -0.203125 1.453125l0 3.8125l-1.25 0zm4.2504272 0l0 -1.40625l1.40625 0l0 1.40625q0 0.78125 -0.28125 1.25q-0.265625 0.484375 -0.859375 0.734375l-0.34375 -0.515625q0.390625 -0.171875 0.5625 -0.515625q0.1875 -0.328125 0.21875 -0.953125l-0.703125 0zm7.501526 0l0 -10.0625l1.234375 0l0 5.734375l2.921875 -2.96875l1.59375 0l-2.78125 2.703125l3.0625 4.59375l-1.515625 0l-2.40625 -3.734375l-0.875 0.84375l0 2.890625l-1.234375 0zm9.046875 0l-2.78125 -7.296875l1.3125 0l1.5625 4.375q0.25 0.703125 0.46875 1.46875q0.171875 -0.578125 0.453125 -1.390625l1.625 -4.453125l1.265625 0l-2.75 7.296875l-1.15625 0zm4.2839355 0l0 -1.40625l1.40625 0l0 1.40625q0 0.78125 -0.28125 1.25q-0.265625 0.484375 -0.859375 0.734375l-0.34375 -0.515625q0.390625 -0.171875 0.5625 -0.515625q0.1875 -0.328125 0.21875 -0.953125l-0.703125 0zm10.189026 -1.109375l0.171875 1.09375q-0.515625 0.109375 -0.921875 0.109375q-0.671875 0 -1.046875 -0.203125q-0.375 -0.21875 -0.53125 -0.5625q-0.140625 -0.34375 -0.140625 -1.46875l0 -4.1875l-0.90625 0l0 -0.96875l0.90625 0l0 -1.796875l1.21875 -0.75l0 2.546875l1.25 0l0 0.96875l-1.25 0l0 4.265625q0 0.53125 0.0625 0.6875q0.078125 0.140625 0.21875 0.234375q0.15625 0.078125 0.421875 0.078125q0.203125 0 0.546875 -0.046875zm6.203888 -1.234375l1.28125 0.15625q-0.3125 1.109375 -1.125 1.734375q-0.8125 0.625 -2.09375 0.625q-1.59375 0 -2.53125 -0.984375q-0.9375 -1.0 -0.9375 -2.765625q0 -1.84375 0.9375 -2.859375q0.953125 -1.015625 2.46875 -1.015625q1.46875 0 2.390625 1.0q0.921875 0.984375 0.921875 2.796875q0 0.109375 0 0.328125l-5.4375 0q0.0625 1.203125 0.671875 1.84375q0.609375 0.640625 1.53125 0.640625q0.671875 0 1.15625 -0.359375q0.484375 -0.359375 0.765625 -1.140625zm-4.0625 -2.0l4.078125 0q-0.09375 -0.921875 -0.46875 -1.390625q-0.59375 -0.703125 -1.53125 -0.703125q-0.859375 0 -1.4375 0.578125q-0.578125 0.5625 -0.640625 1.515625zm6.8833923 4.34375l0 -7.296875l1.125 0l0 1.046875q0.796875 -1.203125 2.3125 -1.203125q0.65625 0 1.203125 0.234375q0.5625 0.234375 0.828125 0.625q0.28125 0.375 0.390625 0.90625q0.078125 0.34375 0.078125 1.203125l0 4.484375l-1.25 0l0 -4.4375q0 -0.75 -0.140625 -1.125q-0.140625 -0.375 -0.515625 -0.59375q-0.359375 -0.234375 -0.859375 -0.234375q-0.78125 0 -1.359375 0.5q-0.578125 0.5 -0.578125 1.90625l0 3.984375l-1.234375 0zm7.336548 -2.171875l1.21875 -0.203125q0.109375 0.734375 0.578125 1.140625q0.46875 0.390625 1.3125 0.390625q0.84375 0 1.25 -0.34375q0.421875 -0.359375 0.421875 -0.828125q0 -0.421875 -0.359375 -0.65625q-0.265625 -0.15625 -1.265625 -0.421875q-1.359375 -0.34375 -1.890625 -0.59375q-0.515625 -0.25 -0.796875 -0.6875q-0.265625 -0.4375 -0.265625 -0.984375q0 -0.484375 0.21875 -0.890625q0.21875 -0.421875 0.609375 -0.703125q0.296875 -0.203125 0.78125 -0.34375q0.5 -0.15625 1.078125 -0.15625q0.859375 0 1.5 0.25q0.65625 0.234375 0.953125 0.65625q0.3125 0.421875 0.4375 1.140625l-1.21875 0.15625q-0.078125 -0.5625 -0.46875 -0.875q-0.390625 -0.3125 -1.125 -0.3125q-0.84375 0 -1.21875 0.28125q-0.359375 0.28125 -0.359375 0.65625q0 0.234375 0.15625 0.4375q0.15625 0.1875 0.46875 0.328125q0.1875 0.0625 1.09375 0.3125q1.3125 0.34375 1.828125 0.578125q0.515625 0.21875 0.8125 0.640625q0.296875 0.421875 0.296875 1.0625q0 0.609375 -0.359375 1.15625q-0.359375 0.546875 -1.046875 0.859375q-0.671875 0.296875 -1.53125 0.296875q-1.421875 0 -2.171875 -0.59375q-0.734375 -0.59375 -0.9375 -1.75zm7.0625 -1.46875q0 -2.03125 1.125 -3.0q0.9375 -0.8125 2.296875 -0.8125q1.5 0 2.453125 0.984375q0.953125 0.984375 0.953125 2.71875q0 1.40625 -0.421875 2.21875q-0.421875 0.796875 -1.234375 1.25q-0.796875 0.453125 -1.75 0.453125q-1.53125 0 -2.484375 -0.984375q-0.9375 -0.984375 -0.9375 -2.828125zm1.265625 0q0 1.390625 0.609375 2.09375q0.609375 0.703125 1.546875 0.703125q0.921875 0 1.53125 -0.703125q0.609375 -0.703125 0.609375 -2.140625q0 -1.359375 -0.625 -2.046875q-0.609375 -0.703125 -1.515625 -0.703125q-0.9375 0 -1.546875 0.703125q-0.609375 0.6875 -0.609375 2.09375zm6.992737 3.640625l0 -7.296875l1.125 0l0 1.109375q0.421875 -0.78125 0.78125 -1.015625q0.359375 -0.25 0.796875 -0.25q0.625 0 1.265625 0.390625l-0.421875 1.15625q-0.453125 -0.28125 -0.90625 -0.28125q-0.40625 0 -0.734375 0.25q-0.3125 0.25 -0.453125 0.671875q-0.203125 0.671875 -0.203125 1.453125l0 3.8125l-1.25 0zm4.2141724 -2.171875l1.21875 -0.203125q0.109375 0.734375 0.578125 1.140625q0.46875 0.390625 1.3125 0.390625q0.84375 0 1.25 -0.34375q0.421875 -0.359375 0.421875 -0.828125q0 -0.421875 -0.359375 -0.65625q-0.265625 -0.15625 -1.265625 -0.421875q-1.359375 -0.34375 -1.890625 -0.59375q-0.515625 -0.25 -0.796875 -0.6875q-0.265625 -0.4375 -0.265625 -0.984375q0 -0.484375 0.21875 -0.890625q0.21875 -0.421875 0.609375 -0.703125q0.296875 -0.203125 0.78125 -0.34375q0.5 -0.15625 1.078125 -0.15625q0.859375 0 1.5 0.25q0.65625 0.234375 0.953125 0.65625q0.3125 0.421875 0.4375 1.140625l-1.21875 0.15625q-0.078125 -0.5625 -0.46875 -0.875q-0.390625 -0.3125 -1.125 -0.3125q-0.84375 0 -1.21875 0.28125q-0.359375 0.28125 -0.359375 0.65625q0 0.234375 0.15625 0.4375q0.15625 0.1875 0.46875 0.328125q0.1875 0.0625 1.09375 0.3125q1.3125 0.34375 1.828125 0.578125q0.515625 0.21875 0.8125 0.640625q0.296875 0.421875 0.296875 1.0625q0 0.609375 -0.359375 1.15625q-0.359375 0.546875 -1.046875 0.859375q-0.671875 0.296875 -1.53125 0.296875q-1.421875 0 -2.171875 -0.59375q-0.734375 -0.59375 -0.9375 -1.75zm7.84375 2.171875l0 -1.40625l1.40625 0l0 1.40625q0 0.78125 -0.28125 1.25q-0.265625 0.484375 -0.859375 0.734375l-0.34375 -0.515625q0.390625 -0.171875 0.5625 -0.515625q0.1875 -0.328125 0.21875 -0.953125l-0.703125 0zm12.220276 0l0 -0.921875q-0.6875 1.09375 -2.03125 1.09375q-0.875 0 -1.609375 -0.484375q-0.734375 -0.484375 -1.140625 -1.34375q-0.390625 -0.859375 -0.390625 -1.984375q0 -1.09375 0.359375 -1.984375q0.359375 -0.890625 1.09375 -1.359375q0.734375 -0.46875 1.625 -0.46875q0.65625 0 1.171875 0.28125q0.515625 0.265625 0.84375 0.71875l0 -3.609375l1.21875 0l0 10.0625l-1.140625 0zm-3.90625 -3.640625q0 1.40625 0.59375 2.109375q0.59375 0.6875 1.390625 0.6875q0.8125 0 1.375 -0.65625q0.5625 -0.671875 0.5625 -2.03125q0 -1.5 -0.578125 -2.203125q-0.5625 -0.703125 -1.40625 -0.703125q-0.828125 0 -1.390625 0.671875q-0.546875 0.671875 -0.546875 2.125zm11.758423 2.734375q-0.6875 0.59375 -1.328125 0.84375q-0.625 0.234375 -1.359375 0.234375q-1.203125 0 -1.84375 -0.59375q-0.640625 -0.59375 -0.640625 -1.5q0 -0.53125 0.234375 -0.96875q0.25 -0.453125 0.640625 -0.71875q0.390625 -0.265625 0.890625 -0.40625q0.359375 -0.09375 1.09375 -0.1875q1.5 -0.171875 2.203125 -0.421875q0.015625 -0.25 0.015625 -0.328125q0 -0.75 -0.359375 -1.0625q-0.46875 -0.421875 -1.40625 -0.421875q-0.875 0 -1.296875 0.3125q-0.40625 0.296875 -0.609375 1.078125l-1.203125 -0.171875q0.171875 -0.765625 0.546875 -1.234375q0.375 -0.484375 1.078125 -0.734375q0.71875 -0.265625 1.671875 -0.265625q0.921875 0 1.5 0.21875q0.59375 0.21875 0.859375 0.5625q0.28125 0.328125 0.390625 0.828125q0.0625 0.3125 0.0625 1.140625l0 1.640625q0 1.734375 0.078125 2.1875q0.078125 0.453125 0.3125 0.875l-1.28125 0q-0.203125 -0.390625 -0.25 -0.90625zm-0.109375 -2.75q-0.671875 0.265625 -2.015625 0.46875q-0.765625 0.109375 -1.078125 0.25q-0.3125 0.125 -0.484375 0.390625q-0.171875 0.265625 -0.171875 0.59375q0 0.484375 0.375 0.828125q0.375 0.328125 1.09375 0.328125q0.71875 0 1.265625 -0.3125q0.5625 -0.3125 0.828125 -0.859375q0.1875 -0.421875 0.1875 -1.234375l0 -0.453125zm5.867737 2.546875l0.171875 1.09375q-0.515625 0.109375 -0.921875 0.109375q-0.671875 0 -1.046875 -0.203125q-0.375 -0.21875 -0.53125 -0.5625q-0.140625 -0.34375 -0.140625 -1.46875l0 -4.1875l-0.90625 0l0 -0.96875l0.90625 0l0 -1.796875l1.21875 -0.75l0 2.546875l1.25 0l0 0.96875l-1.25 0l0 4.265625q0 0.53125 0.0625 0.6875q0.078125 0.140625 0.21875 0.234375q0.15625 0.078125 0.421875 0.078125q0.203125 0 0.546875 -0.046875zm5.9695435 0.203125q-0.6875 0.59375 -1.328125 0.84375q-0.625 0.234375 -1.359375 0.234375q-1.203125 0 -1.84375 -0.59375q-0.640625 -0.59375 -0.640625 -1.5q0 -0.53125 0.234375 -0.96875q0.25 -0.453125 0.640625 -0.71875q0.390625 -0.265625 0.890625 -0.40625q0.359375 -0.09375 1.09375 -0.1875q1.5 -0.171875 2.203125 -0.421875q0.015625 -0.25 0.015625 -0.328125q0 -0.75 -0.359375 -1.0625q-0.46875 -0.421875 -1.40625 -0.421875q-0.875 0 -1.296875 0.3125q-0.40625 0.296875 -0.609375 1.078125l-1.203125 -0.171875q0.171875 -0.765625 0.546875 -1.234375q0.375 -0.484375 1.078125 -0.734375q0.71875 -0.265625 1.671875 -0.265625q0.921875 0 1.5 0.21875q0.59375 0.21875 0.859375 0.5625q0.28125 0.328125 0.390625 0.828125q0.0625 0.3125 0.0625 1.140625l0 1.640625q0 1.734375 0.078125 2.1875q0.078125 0.453125 0.3125 0.875l-1.28125 0q-0.203125 -0.390625 -0.25 -0.90625zm-0.109375 -2.75q-0.671875 0.265625 -2.015625 0.46875q-0.765625 0.109375 -1.078125 0.25q-0.3125 0.125 -0.484375 0.390625q-0.171875 0.265625 -0.171875 0.59375q0 0.484375 0.375 0.828125q0.375 0.328125 1.09375 0.328125q0.71875 0 1.265625 -0.3125q0.5625 -0.3125 0.828125 -0.859375q0.1875 -0.421875 0.1875 -1.234375l0 -0.453125zm3.9771118 6.609375l-0.890625 0q2.0625 -3.296875 2.0625 -6.59375q0 -1.296875 -0.296875 -2.5625q-0.234375 -1.03125 -0.65625 -1.96875q-0.265625 -0.625 -1.109375 -2.0625l0.890625 0q1.296875 1.71875 1.90625 3.453125q0.53125 1.5 0.53125 3.140625q0 1.84375 -0.71875 3.578125q-0.703125 1.734375 -1.71875 3.015625z" fill-rule="nonzero"/><path fill="#000000" fill-opacity="0.0" d="m248.20735 74.74278l0 50.04724" fill-rule="evenodd"/><path stroke="#ffffff" stroke-width="0.8792650918635171" stroke-linejoin="round" stroke-linecap="butt" d="m248.20735 74.74278l0 44.771652" fill-rule="evenodd"/><path fill="#ffffff" stroke="#ffffff" stroke-width="0.8792650918635171" stroke-linecap="butt" d="m246.75504 119.514435l1.4523163 3.9901886l1.452301 -3.9901886z" fill-rule="evenodd"/><path fill="#000000" fill-opacity="0.0" d="m338.71127 49.64042c62.141754 0 124.28348 37.574806 124.28348 75.149605" fill-rule="evenodd"/><path stroke="#ffffff" stroke-width="0.8792650918635171" stroke-linejoin="round" stroke-linecap="butt" d="m338.71127 49.64042c31.070892 0 62.141754 9.393703 85.444885 23.484253c11.651581 7.045273 21.361237 15.264763 28.15799 24.071358c3.3983765 4.4032974 6.068512 8.953369 7.889099 13.576836c0.9102783 2.3117294 1.6081543 4.641815 2.0784607 6.981064c0.11758423 0.58480835 0.22091675 1.1701889 0.30981445 1.7560043l0.00289917 0.019714355" fill-rule="evenodd"/><path fill="#ffffff" stroke="#ffffff" stroke-width="0.8792650918635171" stroke-linecap="butt" d="m461.14627 119.63986l1.750946 3.8684692l1.1452942 -4.0888977z" fill-rule="evenodd"/><path fill="#000000" fill-opacity="0.0" d="m463.0 175.00262c0 45.02362 -56.141724 90.04724 -112.28348 90.04724" fill-rule="evenodd"/><path stroke="#ffffff" stroke-width="2.0" stroke-linejoin="round" stroke-linecap="butt" stroke-dasharray="2.0,6.0" d="m463.0 175.00262c0 22.51181 -14.035431 45.02362 -35.088593 61.907486c-10.52655 8.441925 -22.807556 15.476868 -35.96579 20.401321c-6.5791016 2.4622192 -13.377533 4.3968506 -20.285583 5.7158813c-1.7269897 0.32977295 -3.4608765 0.62106323 -5.19989 0.87249756c-0.86950684 0.12573242 -1.7402954 0.2414856 -2.6121826 0.34710693l-1.150177 0.13256836" fill-rule="evenodd"/><path fill="#ffffff" stroke="#ffffff" stroke-width="2.0" stroke-linecap="butt" d="m362.51324 261.08118l-8.877472 3.805359l9.246582 2.7912598z" fill-rule="evenodd"/><path fill="#000000" fill-opacity="0.0" d="m157.70341 49.64042c-29.842522 0 -59.685043 37.574806 -59.685043 75.149605" fill-rule="evenodd"/><path stroke="#ffffff" stroke-width="0.8792650918635171" stroke-linejoin="round" stroke-linecap="butt" d="m157.70341 49.64042c-14.921265 0 -29.842522 9.393703 -41.03347 23.484253c-5.5954666 7.045273 -10.258362 15.264763 -13.522392 24.071358c-1.6320114 4.4032974 -2.9143066 8.953369 -3.788597 13.576836c-0.43714142 2.3117294 -0.7722931 4.641815 -0.9981537 6.981064c-0.05646515 0.58480835 -0.10609436 1.1701889 -0.14878845 1.7560043l-5.340576E-4 0.008041382" fill-rule="evenodd"/><path fill="#ffffff" stroke="#ffffff" stroke-width="0.8792650918635171" stroke-linecap="butt" d="m96.76014 119.46481l1.3052826 4.0406723l1.5973892 -3.9343567z" fill-rule="evenodd"/><path fill="#000000" fill-opacity="0.0" d="m401.0446 211.60367l144.22049 0l0 34.92914l-144.22049 0z" fill-rule="evenodd"/><path fill="#ffffff" d="m414.6227 235.90659l0 -3.578125q-0.296875 0.40625 -0.8125 0.6875q-0.515625 0.265625 -1.09375 0.265625q-1.296875 0 -2.234375 -1.03125q-0.9375 -1.046875 -0.9375 -2.859375q0 -1.09375 0.375 -1.96875q0.375 -0.875 1.09375 -1.3125q0.734375 -0.453125 1.609375 -0.453125q1.34375 0 2.125 1.140625l0 -0.984375l1.109375 0l0 10.09375l-1.234375 0zm-3.8125 -6.46875q0 1.40625 0.59375 2.125q0.59375 0.703125 1.40625 0.703125q0.796875 0 1.359375 -0.671875q0.578125 -0.671875 0.578125 -2.046875q0 -1.453125 -0.609375 -2.1875q-0.59375 -0.734375 -1.40625 -0.734375q-0.796875 0 -1.359375 0.6875q-0.5625 0.6875 -0.5625 2.125zm11.758392 3.671875l0 -1.078125q-0.84375 1.25 -2.3125 1.25q-0.640625 0 -1.203125 -0.25q-0.5625 -0.25 -0.84375 -0.625q-0.265625 -0.375 -0.375 -0.921875q-0.0625 -0.359375 -0.0625 -1.15625l0 -4.515625l1.234375 0l0 4.046875q0 0.96875 0.078125 1.3125q0.109375 0.484375 0.484375 0.765625q0.375 0.265625 0.9375 0.265625q0.5625 0 1.046875 -0.28125q0.484375 -0.28125 0.6875 -0.765625q0.203125 -0.5 0.203125 -1.4375l0 -3.90625l1.234375 0l0 7.296875l-1.109375 0zm7.8052673 -0.90625q-0.6875 0.59375 -1.328125 0.84375q-0.625 0.234375 -1.359375 0.234375q-1.203125 0 -1.84375 -0.59375q-0.640625 -0.59375 -0.640625 -1.5q0 -0.53125 0.234375 -0.96875q0.25 -0.453125 0.640625 -0.71875q0.390625 -0.265625 0.890625 -0.40625q0.359375 -0.09375 1.09375 -0.1875q1.5 -0.171875 2.203125 -0.421875q0.015625 -0.25 0.015625 -0.328125q0 -0.75 -0.359375 -1.0625q-0.46875 -0.421875 -1.40625 -0.421875q-0.875 0 -1.296875 0.3125q-0.40625 0.296875 -0.609375 1.078125l-1.203125 -0.171875q0.171875 -0.765625 0.546875 -1.234375q0.375 -0.484375 1.078125 -0.734375q0.71875 -0.265625 1.671875 -0.265625q0.921875 0 1.5 0.21875q0.59375 0.21875 0.859375 0.5625q0.28125 0.328125 0.390625 0.828125q0.0625 0.3125 0.0625 1.140625l0 1.640625q0 1.734375 0.078125 2.1875q0.078125 0.453125 0.3125 0.875l-1.28125 0q-0.203125 -0.390625 -0.25 -0.90625zm-0.109375 -2.75q-0.671875 0.265625 -2.015625 0.46875q-0.765625 0.109375 -1.078125 0.25q-0.3125 0.125 -0.484375 0.390625q-0.171875 0.265625 -0.171875 0.59375q0 0.484375 0.375 0.828125q0.375 0.328125 1.09375 0.328125q0.71875 0 1.265625 -0.3125q0.5625 -0.3125 0.828125 -0.859375q0.1875 -0.421875 0.1875 -1.234375l0 -0.453125zm3.1646423 3.65625l0 -7.296875l1.125 0l0 1.046875q0.796875 -1.203125 2.3125 -1.203125q0.65625 0 1.203125 0.234375q0.5625 0.234375 0.828125 0.625q0.28125 0.375 0.390625 0.90625q0.078125 0.34375 0.078125 1.203125l0 4.484375l-1.25 0l0 -4.4375q0 -0.75 -0.140625 -1.125q-0.140625 -0.375 -0.515625 -0.59375q-0.359375 -0.234375 -0.859375 -0.234375q-0.78125 0 -1.359375 0.5q-0.578125 0.5 -0.578125 1.90625l0 3.984375l-1.234375 0zm10.524017 -1.109375l0.171875 1.09375q-0.515625 0.109375 -0.921875 0.109375q-0.671875 0 -1.046875 -0.203125q-0.375 -0.21875 -0.53125 -0.5625q-0.140625 -0.34375 -0.140625 -1.46875l0 -4.1875l-0.90625 0l0 -0.96875l0.90625 0l0 -1.796875l1.21875 -0.75l0 2.546875l1.25 0l0 0.96875l-1.25 0l0 4.265625q0 0.53125 0.0625 0.6875q0.078125 0.140625 0.21875 0.234375q0.15625 0.078125 0.421875 0.078125q0.203125 0 0.546875 -0.046875zm1.2195129 -7.53125l0 -1.421875l1.234375 0l0 1.421875l-1.234375 0zm0 8.640625l0 -7.296875l1.234375 0l0 7.296875l-1.234375 0zm2.467987 0l0 -1.0l4.640625 -5.328125q-0.796875 0.03125 -1.40625 0.03125l-2.96875 0l0 -1.0l5.96875 0l0 0.828125l-3.953125 4.625l-0.765625 0.84375q0.828125 -0.0625 1.5625 -0.0625l3.375 0l0 1.0625l-6.453125 0zm12.671875 -2.34375l1.28125 0.15625q-0.3125 1.109375 -1.125 1.734375q-0.8125 0.625 -2.09375 0.625q-1.59375 0 -2.53125 -0.984375q-0.9375 -1.0 -0.9375 -2.765625q0 -1.84375 0.9375 -2.859375q0.953125 -1.015625 2.46875 -1.015625q1.46875 0 2.390625 1.0q0.921875 0.984375 0.921875 2.796875q0 0.109375 0 0.328125l-5.4375 0q0.0625 1.203125 0.671875 1.84375q0.609375 0.640625 1.53125 0.640625q0.671875 0 1.15625 -0.359375q0.484375 -0.359375 0.765625 -1.140625zm-4.0625 -2.0l4.078125 0q-0.09375 -0.921875 -0.46875 -1.390625q-0.59375 -0.703125 -1.53125 -0.703125q-0.859375 0 -1.4375 0.578125q-0.578125 0.5625 -0.640625 1.515625zm11.617767 4.34375l0 -0.921875q-0.6875 1.09375 -2.03125 1.09375q-0.875 0 -1.609375 -0.484375q-0.734375 -0.484375 -1.140625 -1.34375q-0.390625 -0.859375 -0.390625 -1.984375q0 -1.09375 0.359375 -1.984375q0.359375 -0.890625 1.09375 -1.359375q0.734375 -0.46875 1.625 -0.46875q0.65625 0 1.171875 0.28125q0.515625 0.265625 0.84375 0.71875l0 -3.609375l1.21875 0l0 10.0625l-1.140625 0zm-3.90625 -3.640625q0 1.40625 0.59375 2.109375q0.59375 0.6875 1.390625 0.6875q0.8125 0 1.375 -0.65625q0.5625 -0.671875 0.5625 -2.03125q0 -1.5 -0.578125 -2.203125q-0.5625 -0.703125 -1.40625 -0.703125q-0.828125 0 -1.390625 0.671875q-0.546875 0.671875 -0.546875 2.125zm12.24353 3.640625l-2.21875 -7.296875l1.265625 0l1.171875 4.21875l0.421875 1.5625q0.03125 -0.125 0.375 -1.5l1.171875 -4.28125l1.265625 0l1.09375 4.234375l0.359375 1.390625l0.421875 -1.40625l1.25 -4.21875l1.203125 0l-2.28125 7.296875l-1.28125 0l-1.15625 -4.359375l-0.28125 -1.25l-1.484375 5.609375l-1.296875 0zm13.811737 -2.34375l1.28125 0.15625q-0.3125 1.109375 -1.125 1.734375q-0.8125 0.625 -2.09375 0.625q-1.59375 0 -2.53125 -0.984375q-0.9375 -1.0 -0.9375 -2.765625q0 -1.84375 0.9375 -2.859375q0.953125 -1.015625 2.46875 -1.015625q1.46875 0 2.390625 1.0q0.921875 0.984375 0.921875 2.796875q0 0.109375 0 0.328125l-5.4375 0q0.0625 1.203125 0.671875 1.84375q0.609375 0.640625 1.53125 0.640625q0.671875 0 1.15625 -0.359375q0.484375 -0.359375 0.765625 -1.140625zm-4.0625 -2.0l4.078125 0q-0.09375 -0.921875 -0.46875 -1.390625q-0.59375 -0.703125 -1.53125 -0.703125q-0.859375 0 -1.4375 0.578125q-0.578125 0.5625 -0.640625 1.515625zm6.8990173 -4.296875l0 -1.421875l1.234375 0l0 1.421875l-1.234375 0zm0 8.640625l0 -7.296875l1.234375 0l0 7.296875l-1.234375 0zm2.889862 0.609375l1.203125 0.171875q0.078125 0.5625 0.421875 0.8125q0.453125 0.34375 1.25 0.34375q0.859375 0 1.328125 -0.34375q0.46875 -0.34375 0.625 -0.96875q0.09375 -0.375 0.09375 -1.578125q-0.8125 0.953125 -2.015625 0.953125q-1.515625 0 -2.34375 -1.078125q-0.8125 -1.09375 -0.8125 -2.609375q0 -1.046875 0.375 -1.921875q0.375 -0.890625 1.09375 -1.359375q0.71875 -0.484375 1.6875 -0.484375q1.296875 0 2.125 1.046875l0 -0.890625l1.140625 0l0 6.3125q0 1.703125 -0.34375 2.40625q-0.34375 0.71875 -1.09375 1.125q-0.75 0.40625 -1.859375 0.40625q-1.296875 0 -2.109375 -0.59375q-0.796875 -0.578125 -0.765625 -1.75zm1.015625 -4.390625q0 1.4375 0.5625 2.109375q0.578125 0.65625 1.4375 0.65625q0.859375 0 1.4375 -0.65625q0.578125 -0.65625 0.578125 -2.0625q0 -1.34375 -0.609375 -2.015625q-0.59375 -0.6875 -1.421875 -0.6875q-0.828125 0 -1.40625 0.671875q-0.578125 0.671875 -0.578125 1.984375zm7.0240173 3.78125l0 -10.0625l1.234375 0l0 3.609375q0.875 -1.0 2.1875 -1.0q0.8125 0 1.40625 0.328125q0.59375 0.3125 0.84375 0.875q0.265625 0.5625 0.265625 1.625l0 4.625l-1.234375 0l0 -4.625q0 -0.921875 -0.40625 -1.34375q-0.390625 -0.421875 -1.125 -0.421875q-0.546875 0 -1.03125 0.28125q-0.484375 0.28125 -0.703125 0.78125q-0.203125 0.484375 -0.203125 1.34375l0 3.984375l-1.234375 0zm10.523987 -1.109375l0.171875 1.09375q-0.515625 0.109375 -0.921875 0.109375q-0.671875 0 -1.046875 -0.203125q-0.375 -0.21875 -0.5312195 -0.5625q-0.140625 -0.34375 -0.140625 -1.46875l0 -4.1875l-0.90625 0l0 -0.96875l0.90625 0l0 -1.796875l1.2187195 -0.75l0 2.546875l1.25 0l0 0.96875l-1.25 0l0 4.265625q0 0.53125 0.0625 0.6875q0.078125 0.140625 0.21875 0.234375q0.15625 0.078125 0.421875 0.078125q0.203125 0 0.546875 -0.046875zm0.71954346 -1.0625l1.21875 -0.203125q0.109375 0.734375 0.578125 1.140625q0.46875 0.390625 1.3125 0.390625q0.84375 0 1.25 -0.34375q0.421875 -0.359375 0.421875 -0.828125q0 -0.421875 -0.359375 -0.65625q-0.265625 -0.15625 -1.265625 -0.421875q-1.359375 -0.34375 -1.890625 -0.59375q-0.515625 -0.25 -0.796875 -0.6875q-0.265625 -0.4375 -0.265625 -0.984375q0 -0.484375 0.21875 -0.890625q0.21875 -0.421875 0.609375 -0.703125q0.296875 -0.203125 0.78125 -0.34375q0.5 -0.15625 1.078125 -0.15625q0.859375 0 1.5 0.25q0.65625 0.234375 0.953125 0.65625q0.3125 0.421875 0.4375 1.140625l-1.21875 0.15625q-0.078125 -0.5625 -0.46875 -0.875q-0.390625 -0.3125 -1.125 -0.3125q-0.84375 0 -1.21875 0.28125q-0.359375 0.28125 -0.359375 0.65625q0 0.234375 0.15625 0.4375q0.15625 0.1875 0.46875 0.328125q0.1875 0.0625 1.09375 0.3125q1.3125 0.34375 1.828125 0.578125q0.515625 0.21875 0.8125 0.640625q0.296875 0.421875 0.296875 1.0625q0 0.609375 -0.359375 1.15625q-0.359375 0.546875 -1.046875 0.859375q-0.671875 0.296875 -1.53125 0.296875q-1.421875 0 -2.171875 -0.59375q-0.734375 -0.59375 -0.9375 -1.75z" fill-rule="nonzero"/><path fill="#d9ead3" d="m145.70341 246.71147c0 -5.061981 4.103546 -9.165543 9.165527 -9.165543l186.6768 0c2.4308472 0 4.762146 0.96565247 6.481018 2.6845245c1.7188721 1.7188721 2.6845093 4.050171 2.6845093 6.481018l0 36.661057c0 5.061981 -4.103546 9.165527 -9.165527 9.165527l-186.6768 0c-5.061981 0 -9.165527 -4.103546 -9.165527 -9.165527z" fill-rule="evenodd"/><path stroke="#a4c2f4" stroke-width="0.8792650918635171" stroke-linejoin="round" stroke-linecap="butt" d="m145.70341 246.71147c0 -5.061981 4.103546 -9.165543 9.165527 -9.165543l186.6768 0c2.4308472 0 4.762146 0.96565247 6.481018 2.6845245c1.7188721 1.7188721 2.6845093 4.050171 2.6845093 6.481018l0 36.661057c0 5.061981 -4.103546 9.165527 -9.165527 9.165527l-186.6768 0c-5.061981 0 -9.165527 -4.103546 -9.165527 -9.165527z" fill-rule="evenodd"/><path fill="#000000" d="m230.72105 264.3449l0 -3.578125q-0.296875 0.40625 -0.8125 0.6875q-0.515625 0.265625 -1.09375 0.265625q-1.296875 0 -2.234375 -1.03125q-0.9375 -1.046875 -0.9375 -2.859375q0 -1.09375 0.375 -1.96875q0.375 -0.875 1.09375 -1.3125q0.734375 -0.453125 1.609375 -0.453125q1.34375 0 2.125 1.140625l0 -0.984375l1.109375 0l0 10.09375l-1.234375 0zm-3.8125 -6.46875q0 1.40625 0.59375 2.125q0.59375 0.703125 1.40625 0.703125q0.796875 0 1.359375 -0.671875q0.578125 -0.671875 0.578125 -2.046875q0 -1.453125 -0.609375 -2.1875q-0.59375 -0.734375 -1.40625 -0.734375q-0.796875 0 -1.359375 0.6875q-0.5625 0.6875 -0.5625 2.125zm11.758392 3.671875l0 -1.078125q-0.84375 1.25 -2.3125 1.25q-0.640625 0 -1.203125 -0.25q-0.5625 -0.25 -0.84375 -0.625q-0.265625 -0.375 -0.375 -0.921875q-0.0625 -0.359375 -0.0625 -1.15625l0 -4.515625l1.234375 0l0 4.046875q0 0.96875 0.078125 1.3125q0.109375 0.484375 0.484375 0.765625q0.375 0.265625 0.9375 0.265625q0.5625 0 1.046875 -0.28125q0.484375 -0.28125 0.6875 -0.765625q0.203125 -0.5 0.203125 -1.4375l0 -3.90625l1.234375 0l0 7.296875l-1.109375 0zm7.8052673 -0.90625q-0.6875 0.59375 -1.328125 0.84375q-0.625 0.234375 -1.359375 0.234375q-1.203125 0 -1.84375 -0.59375q-0.640625 -0.59375 -0.640625 -1.5q0 -0.53125 0.234375 -0.96875q0.25 -0.453125 0.640625 -0.71875q0.390625 -0.265625 0.890625 -0.40625q0.359375 -0.09375 1.09375 -0.1875q1.5 -0.171875 2.203125 -0.421875q0.015625 -0.25 0.015625 -0.328125q0 -0.75 -0.359375 -1.0625q-0.46875 -0.421875 -1.40625 -0.421875q-0.875 0 -1.296875 0.3125q-0.40625 0.296875 -0.609375 1.078125l-1.203125 -0.171875q0.171875 -0.765625 0.546875 -1.234375q0.375 -0.484375 1.078125 -0.734375q0.71875 -0.265625 1.671875 -0.265625q0.921875 0 1.5 0.21875q0.59375 0.21875 0.859375 0.5625q0.28125 0.328125 0.390625 0.828125q0.0625 0.3125 0.0625 1.140625l0 1.640625q0 1.734375 0.078125 2.1875q0.078125 0.453125 0.3125 0.875l-1.28125 0q-0.203125 -0.390625 -0.25 -0.90625zm-0.109375 -2.75q-0.671875 0.265625 -2.015625 0.46875q-0.765625 0.109375 -1.078125 0.25q-0.3125 0.125 -0.484375 0.390625q-0.171875 0.265625 -0.171875 0.59375q0 0.484375 0.375 0.828125q0.375 0.328125 1.09375 0.328125q0.71875 0 1.265625 -0.3125q0.5625 -0.3125 0.828125 -0.859375q0.1875 -0.421875 0.1875 -1.234375l0 -0.453125zm3.1646423 3.65625l0 -7.296875l1.125 0l0 1.046875q0.796875 -1.203125 2.3125 -1.203125q0.65625 0 1.203125 0.234375q0.5625 0.234375 0.828125 0.625q0.28125 0.375 0.390625 0.90625q0.078125 0.34375 0.078125 1.203125l0 4.484375l-1.25 0l0 -4.4375q0 -0.75 -0.140625 -1.125q-0.140625 -0.375 -0.515625 -0.59375q-0.359375 -0.234375 -0.859375 -0.234375q-0.78125 0 -1.359375 0.5q-0.578125 0.5 -0.578125 1.90625l0 3.984375l-1.234375 0zm10.524002 -1.109375l0.171875 1.09375q-0.515625 0.109375 -0.921875 0.109375q-0.671875 0 -1.046875 -0.203125q-0.375 -0.21875 -0.53125 -0.5625q-0.140625 -0.34375 -0.140625 -1.46875l0 -4.1875l-0.90625 0l0 -0.96875l0.90625 0l0 -1.796875l1.21875 -0.75l0 2.546875l1.25 0l0 0.96875l-1.25 0l0 4.265625q0 0.53125 0.0625 0.6875q0.078125 0.140625 0.21875 0.234375q0.15625 0.078125 0.421875 0.078125q0.203125 0 0.546875 -0.046875zm1.5632629 1.109375l0 -1.40625l1.40625 0l0 1.40625l-1.40625 0zm8.313263 -2.671875l1.21875 0.15625q-0.203125 1.265625 -1.03125 1.984375q-0.8125 0.703125 -2.015625 0.703125q-1.484375 0 -2.40625 -0.984375q-0.90625 -0.984375 -0.90625 -2.8125q0 -1.171875 0.390625 -2.0625q0.390625 -0.890625 1.1875 -1.328125q0.8125 -0.4375 1.75 -0.4375q1.1875 0 1.9375 0.609375q0.765625 0.59375 0.96875 1.6875l-1.203125 0.1875q-0.171875 -0.734375 -0.609375 -1.09375q-0.4375 -0.375 -1.046875 -0.375q-0.9375 0 -1.53125 0.671875q-0.578125 0.65625 -0.578125 2.109375q0 1.46875 0.5625 2.140625q0.578125 0.671875 1.484375 0.671875q0.71875 0 1.203125 -0.453125q0.5 -0.453125 0.625 -1.375z" fill-rule="nonzero"/><path fill="#000000" d="m165.91118 278.54803l0 -0.921875q-0.6875 1.09375 -2.03125 1.09375q-0.875 0 -1.609375 -0.484375q-0.734375 -0.484375 -1.140625 -1.34375q-0.390625 -0.859375 -0.390625 -1.984375q0 -1.09375 0.359375 -1.984375q0.359375 -0.890625 1.09375 -1.359375q0.734375 -0.46875 1.625 -0.46875q0.65625 0 1.171875 0.28125q0.515625 0.265625 0.84375 0.71875l0 -3.609375l1.21875 0l0 10.0625l-1.140625 0zm-3.90625 -3.640625q0 1.40625 0.59375 2.109375q0.59375 0.6875 1.390625 0.6875q0.8125 0 1.375 -0.65625q0.5625 -0.671875 0.5625 -2.03125q0 -1.5 -0.578125 -2.203125q-0.5625 -0.703125 -1.40625 -0.703125q-0.828125 0 -1.390625 0.671875q-0.546875 0.671875 -0.546875 2.125zm11.992767 1.296875l1.28125 0.15625q-0.3125 1.109375 -1.125 1.734375q-0.8125 0.625 -2.09375 0.625q-1.59375 0 -2.53125 -0.984375q-0.9375 -1.0 -0.9375 -2.765625q0 -1.84375 0.9375 -2.859375q0.953125 -1.015625 2.46875 -1.015625q1.46875 0 2.390625 1.0q0.921875 0.984375 0.921875 2.796875q0 0.109375 0 0.328125l-5.4375 0q0.0625 1.203125 0.671875 1.84375q0.609375 0.640625 1.53125 0.640625q0.671875 0 1.15625 -0.359375q0.484375 -0.359375 0.765625 -1.140625zm-4.0625 -2.0l4.078125 0q-0.09375 -0.921875 -0.46875 -1.390625q-0.59375 -0.703125 -1.53125 -0.703125q-0.859375 0 -1.4375 0.578125q-0.578125 0.5625 -0.640625 1.515625zm11.539642 7.140625l0 -3.578125q-0.296875 0.40625 -0.8125 0.6875q-0.515625 0.265625 -1.09375 0.265625q-1.296875 0 -2.234375 -1.03125q-0.9375 -1.046875 -0.9375 -2.859375q0 -1.09375 0.375 -1.96875q0.375 -0.875 1.09375 -1.3125q0.734375 -0.453125 1.609375 -0.453125q1.34375 0 2.125 1.140625l0 -0.984375l1.109375 0l0 10.09375l-1.234375 0zm-3.8125 -6.46875q0 1.40625 0.59375 2.125q0.59375 0.703125 1.40625 0.703125q0.796875 0 1.359375 -0.671875q0.578125 -0.671875 0.578125 -2.046875q0 -1.453125 -0.609375 -2.1875q-0.59375 -0.734375 -1.40625 -0.734375q-0.796875 0 -1.359375 0.6875q-0.5625 0.6875 -0.5625 2.125zm11.758392 3.671875l0 -1.078125q-0.84375 1.25 -2.3125 1.25q-0.640625 0 -1.203125 -0.25q-0.5625 -0.25 -0.84375 -0.625q-0.265625 -0.375 -0.375 -0.921875q-0.0625 -0.359375 -0.0625 -1.15625l0 -4.515625l1.234375 0l0 4.046875q0 0.96875 0.078125 1.3125q0.109375 0.484375 0.484375 0.765625q0.375 0.265625 0.9375 0.265625q0.5625 0 1.046875 -0.28125q0.484375 -0.28125 0.6875 -0.765625q0.203125 -0.5 0.203125 -1.4375l0 -3.90625l1.234375 0l0 7.296875l-1.109375 0zm7.8052673 -0.90625q-0.6875 0.59375 -1.328125 0.84375q-0.625 0.234375 -1.359375 0.234375q-1.203125 0 -1.84375 -0.59375q-0.640625 -0.59375 -0.640625 -1.5q0 -0.53125 0.234375 -0.96875q0.25 -0.453125 0.640625 -0.71875q0.390625 -0.265625 0.890625 -0.40625q0.359375 -0.09375 1.09375 -0.1875q1.5 -0.171875 2.203125 -0.421875q0.015625 -0.25 0.015625 -0.328125q0 -0.75 -0.359375 -1.0625q-0.46875 -0.421875 -1.40625 -0.421875q-0.875 0 -1.296875 0.3125q-0.40625 0.296875 -0.609375 1.078125l-1.203125 -0.171875q0.171875 -0.765625 0.546875 -1.234375q0.375 -0.484375 1.078125 -0.734375q0.71875 -0.265625 1.671875 -0.265625q0.921875 0 1.5 0.21875q0.59375 0.21875 0.859375 0.5625q0.28125 0.328125 0.390625 0.828125q0.0625 0.3125 0.0625 1.140625l0 1.640625q0 1.734375 0.078125 2.1875q0.078125 0.453125 0.3125 0.875l-1.28125 0q-0.203125 -0.390625 -0.25 -0.90625zm-0.109375 -2.75q-0.671875 0.265625 -2.015625 0.46875q-0.765625 0.109375 -1.078125 0.25q-0.3125 0.125 -0.484375 0.390625q-0.171875 0.265625 -0.171875 0.59375q0 0.484375 0.375 0.828125q0.375 0.328125 1.09375 0.328125q0.71875 0 1.265625 -0.3125q0.5625 -0.3125 0.828125 -0.859375q0.1875 -0.421875 0.1875 -1.234375l0 -0.453125zm3.1646423 3.65625l0 -7.296875l1.125 0l0 1.046875q0.796875 -1.203125 2.3125 -1.203125q0.65625 0 1.203125 0.234375q0.5625 0.234375 0.828125 0.625q0.28125 0.375 0.390625 0.90625q0.078125 0.34375 0.078125 1.203125l0 4.484375l-1.25 0l0 -4.4375q0 -0.75 -0.140625 -1.125q-0.140625 -0.375 -0.515625 -0.59375q-0.359375 -0.234375 -0.859375 -0.234375q-0.78125 0 -1.359375 0.5q-0.578125 0.5 -0.578125 1.90625l0 3.984375l-1.234375 0zm10.524017 -1.109375l0.171875 1.09375q-0.515625 0.109375 -0.921875 0.109375q-0.671875 0 -1.046875 -0.203125q-0.375 -0.21875 -0.53125 -0.5625q-0.140625 -0.34375 -0.140625 -1.46875l0 -4.1875l-0.90625 0l0 -0.96875l0.90625 0l0 -1.796875l1.21875 -0.75l0 2.546875l1.25 0l0 0.96875l-1.25 0l0 4.265625q0 0.53125 0.0625 0.6875q0.078125 0.140625 0.21875 0.234375q0.15625 0.078125 0.421875 0.078125q0.203125 0 0.546875 -0.046875zm1.2195129 -7.53125l0 -1.421875l1.234375 0l0 1.421875l-1.234375 0zm0 8.640625l0 -7.296875l1.234375 0l0 7.296875l-1.234375 0zm2.467987 0l0 -1.0l4.640625 -5.328125q-0.796875 0.03125 -1.40625 0.03125l-2.96875 0l0 -1.0l5.96875 0l0 0.828125l-3.953125 4.625l-0.765625 0.84375q0.828125 -0.0625 1.5625 -0.0625l3.375 0l0 1.0625l-6.453125 0zm12.671875 -2.34375l1.28125 0.15625q-0.3125 1.109375 -1.125 1.734375q-0.8125 0.625 -2.09375 0.625q-1.59375 0 -2.53125 -0.984375q-0.9375 -1.0 -0.9375 -2.765625q0 -1.84375 0.9375 -2.859375q0.953125 -1.015625 2.46875 -1.015625q1.46875 0 2.390625 1.0q0.921875 0.984375 0.921875 2.796875q0 0.109375 0 0.328125l-5.4375 0q0.0625 1.203125 0.671875 1.84375q0.609375 0.640625 1.53125 0.640625q0.671875 0 1.15625 -0.359375q0.484375 -0.359375 0.765625 -1.140625zm-4.0625 -2.0l4.078125 0q-0.09375 -0.921875 -0.46875 -1.390625q-0.59375 -0.703125 -1.53125 -0.703125q-0.859375 0 -1.4375 0.578125q-0.578125 0.5625 -0.640625 1.515625zm15.446655 7.140625l0 -3.578125q-0.296875 0.40625 -0.8125 0.6875q-0.515625 0.265625 -1.09375 0.265625q-1.296875 0 -2.234375 -1.03125q-0.9375 -1.046875 -0.9375 -2.859375q0 -1.09375 0.375 -1.96875q0.375 -0.875 1.09375 -1.3125q0.734375 -0.453125 1.609375 -0.453125q1.34375 0 2.125 1.140625l0 -0.984375l1.109375 0l0 10.09375l-1.234375 0zm-3.8125 -6.46875q0 1.40625 0.59375 2.125q0.59375 0.703125 1.40625 0.703125q0.796875 0 1.359375 -0.671875q0.578125 -0.671875 0.578125 -2.046875q0 -1.453125 -0.609375 -2.1875q-0.59375 -0.734375 -1.40625 -0.734375q-0.796875 0 -1.359375 0.6875q-0.5625 0.6875 -0.5625 2.125zm6.6490173 1.015625l1.234375 -0.171875q0.21875 1.0625 0.71875 1.53125q0.515625 0.453125 1.25 0.453125q0.875 0 1.46875 -0.59375q0.609375 -0.609375 0.609375 -1.515625q0 -0.84375 -0.5625 -1.390625q-0.546875 -0.5625 -1.40625 -0.5625q-0.359375 0 -0.875 0.140625l0.140625 -1.078125q0.109375 0 0.1875 0q0.796875 0 1.421875 -0.40625q0.640625 -0.40625 0.640625 -1.265625q0 -0.6875 -0.46875 -1.125q-0.453125 -0.453125 -1.1875 -0.453125q-0.71875 0 -1.203125 0.453125q-0.46875 0.453125 -0.609375 1.359375l-1.234375 -0.21875q0.21875 -1.234375 1.015625 -1.921875q0.8125 -0.6875 2.015625 -0.6875q0.8125 0 1.5 0.359375q0.703125 0.34375 1.0625 0.96875q0.375 0.609375 0.375 1.296875q0 0.640625 -0.359375 1.1875q-0.34375 0.53125 -1.03125 0.84375q0.890625 0.203125 1.390625 0.859375q0.5 0.640625 0.5 1.625q0 1.3125 -0.96875 2.234375q-0.953125 0.90625 -2.421875 0.90625q-1.328125 0 -2.203125 -0.78125q-0.875 -0.796875 -1.0 -2.046875zm7.0083923 5.453125l0 -0.890625l8.20311 0l0 0.890625l-8.20311 0zm9.070877 -2.796875l0 -10.0625l1.328125 0l0 4.984375l5.0 -4.984375l1.8125 0l-4.234375 4.078125l4.421875 5.984375l-1.765625 0l-3.578125 -5.09375l-1.65625 1.609375l0 3.484375l-1.328125 0zm12.255341 0.171875l2.921875 -10.40625l0.984375 0l-2.90625 10.40625l-1.0 0zm13.392151 2.625l0 -3.578125q-0.296875 0.40625 -0.8125 0.6875q-0.515625 0.265625 -1.09375 0.265625q-1.296875 0 -2.234375 -1.03125q-0.9375 -1.046875 -0.9375 -2.859375q0 -1.09375 0.375 -1.96875q0.375 -0.875 1.09375 -1.3125q0.734375 -0.453125 1.609375 -0.453125q1.34375 0 2.125 1.140625l0 -0.984375l1.109375 0l0 10.09375l-1.234375 0zm-3.8125 -6.46875q0 1.40625 0.59375 2.125q0.59375 0.703125 1.40625 0.703125q0.796875 0 1.359375 -0.671875q0.578125 -0.671875 0.578125 -2.046875q0 -1.453125 -0.609375 -2.1875q-0.59375 -0.734375 -1.40625 -0.734375q-0.796875 0 -1.359375 0.6875q-0.5625 0.6875 -0.5625 2.125zm10.602142 3.671875l0 -2.40625l-4.375 0l0 -1.140625l4.59375 -6.515625l1.015625 0l0 6.515625l1.359375 0l0 1.140625l-1.359375 0l0 2.40625l-1.234375 0zm0 -3.546875l0 -4.53125l-3.15625 4.53125l3.15625 0zm3.0552673 6.34375l0 -0.890625l8.203125 0l0 0.890625l-8.203125 0zm9.070892 -2.796875l0 -10.0625l1.328125 0l0 4.984375l5.0 -4.984375l1.8125 0l-4.234375 4.078125l4.421875 5.984375l-1.765625 0l-3.578125 -5.09375l-1.65625 1.609375l0 3.484375l-1.328125 0zm12.255341 0.171875l2.921875 -10.40625l0.984375 0l-2.90625 10.40625l-1.0 0zm9.454651 -0.171875l0 -1.40625l1.40625 0l0 1.40625l-1.40625 0zm4.6875 0l0 -1.40625l1.40625 0l0 1.40625l-1.40625 0zm4.6875 0l0 -1.40625l1.40625 0l0 1.40625l-1.40625 0z" fill-rule="nonzero"/><path fill="#000000" fill-opacity="0.0" d="m248.20735 175.00262l0 62.551178" fill-rule="evenodd"/><path stroke="#ffffff" stroke-width="1.0" stroke-linejoin="round" stroke-linecap="butt" d="m248.20735 175.00262l0 56.551178" fill-rule="evenodd"/><path fill="#ffffff" stroke="#ffffff" stroke-width="1.0" stroke-linecap="butt" d="m246.55562 231.5538l1.6517334 4.538101l1.6517334 -4.538101z" fill-rule="evenodd"/><path fill="#d9ead3" d="m356.04462 32.879433c0 -4.6068153 3.734558 -8.341375 8.34137 -8.341375l177.27002 0c2.2122803 0 4.3339233 0.8788204 5.8982544 2.4431324c1.56427 1.564312 2.4431152 3.6859722 2.4431152 5.898243l0 33.364494c0 4.6068115 -3.734558 8.341377 -8.34137 8.341377l-177.27002 0c-4.6068115 0 -8.34137 -3.7345657 -8.34137 -8.341377z" fill-rule="evenodd"/><path stroke="#a4c2f4" stroke-width="0.8792650918635171" stroke-linejoin="round" stroke-linecap="butt" d="m356.04462 32.879433c0 -4.6068153 3.734558 -8.341375 8.34137 -8.341375l177.27002 0c2.2122803 0 4.3339233 0.8788204 5.8982544 2.4431324c1.56427 1.564312 2.4431152 3.6859722 2.4431152 5.898243l0 33.364494c0 4.6068115 -3.734558 8.341377 -8.34137 8.341377l-177.27002 0c-4.6068115 0 -8.34137 -3.7345657 -8.34137 -8.341377z" fill-rule="evenodd"/><path fill="#000000" d="m430.27176 46.6771l1.203125 0.171875q0.078125 0.5625 0.421875 0.8125q0.453125 0.34375 1.25 0.34375q0.859375 0 1.328125 -0.34375q0.46875 -0.34375 0.625 -0.96875q0.09375 -0.375 0.09375 -1.578125q-0.8125 0.953125 -2.015625 0.953125q-1.515625 0 -2.34375 -1.078125q-0.8125 -1.09375 -0.8125 -2.609375q0 -1.046875 0.375 -1.921875q0.375 -0.890625 1.09375 -1.359375q0.71875 -0.484375 1.6875 -0.484375q1.296875 0 2.125 1.046875l0 -0.890625l1.140625 0l0 6.3125q0 1.703125 -0.34375 2.40625q-0.34375 0.71875 -1.09375 1.125q-0.75 0.40625 -1.859375 0.40625q-1.296875 0 -2.109375 -0.59375q-0.796875 -0.578125 -0.765625 -1.75zm1.015625 -4.390625q0 1.4375 0.5625 2.109375q0.578125 0.65625 1.4375 0.65625q0.859375 0 1.4375 -0.65625q0.578125 -0.65625 0.578125 -2.0625q0 -1.34375 -0.609375 -2.015625q-0.59375 -0.6875 -1.421875 -0.6875q-0.828125 0 -1.40625 0.671875q-0.578125 0.671875 -0.578125 1.984375zm7.0083923 3.78125l0 -7.296875l1.125 0l0 1.109375q0.421875 -0.78125 0.78125 -1.015625q0.359375 -0.25 0.796875 -0.25q0.625 0 1.265625 0.390625l-0.421875 1.15625q-0.453125 -0.28125 -0.90625 -0.28125q-0.40625 0 -0.734375 0.25q-0.3125 0.25 -0.453125 0.671875q-0.203125 0.671875 -0.203125 1.453125l0 3.8125l-1.25 0zm9.464172 -0.90625q-0.6875 0.59375 -1.328125 0.84375q-0.625 0.234375 -1.359375 0.234375q-1.203125 0 -1.84375 -0.59375q-0.640625 -0.59375 -0.640625 -1.5q0 -0.53125 0.234375 -0.96875q0.25 -0.453125 0.640625 -0.71875q0.390625 -0.265625 0.890625 -0.40625q0.359375 -0.09375 1.09375 -0.1875q1.5 -0.171875 2.203125 -0.421875q0.015625 -0.25 0.015625 -0.328125q0 -0.75 -0.359375 -1.0625q-0.46875 -0.421875 -1.40625 -0.421875q-0.875 0 -1.296875 0.3125q-0.40625 0.296875 -0.609375 1.078125l-1.203125 -0.171875q0.171875 -0.765625 0.546875 -1.234375q0.375 -0.484375 1.078125 -0.734375q0.71875 -0.265625 1.671875 -0.265625q0.921875 0 1.5 0.21875q0.59375 0.21875 0.859375 0.5625q0.28125 0.328125 0.390625 0.828125q0.0625 0.3125 0.0625 1.140625l0 1.640625q0 1.734375 0.078125 2.1875q0.078125 0.453125 0.3125 0.875l-1.28125 0q-0.203125 -0.390625 -0.25 -0.90625zm-0.109375 -2.75q-0.671875 0.265625 -2.015625 0.46875q-0.765625 0.109375 -1.078125 0.25q-0.3125 0.125 -0.484375 0.390625q-0.171875 0.265625 -0.171875 0.59375q0 0.484375 0.375 0.828125q0.375 0.328125 1.09375 0.328125q0.71875 0 1.265625 -0.3125q0.5625 -0.3125 0.828125 -0.859375q0.1875 -0.421875 0.1875 -1.234375l0 -0.453125zm3.1646423 6.453125l0 -10.09375l1.125 0l0 0.953125q0.40625 -0.5625 0.90625 -0.828125q0.5 -0.28125 1.21875 -0.28125q0.9375 0 1.640625 0.484375q0.71875 0.46875 1.078125 1.34375q0.375 0.875 0.375 1.921875q0 1.125 -0.40625 2.015625q-0.40625 0.890625 -1.171875 1.375q-0.765625 0.484375 -1.609375 0.484375q-0.625 0 -1.109375 -0.265625q-0.484375 -0.265625 -0.8125 -0.65625l0 3.546875l-1.234375 0zm1.125 -6.40625q0 1.40625 0.5625 2.09375q0.578125 0.671875 1.390625 0.671875q0.8125 0 1.40625 -0.703125q0.59375 -0.703125 0.59375 -2.15625q0 -1.40625 -0.578125 -2.09375q-0.578125 -0.6875 -1.375 -0.6875q-0.78125 0 -1.390625 0.734375q-0.609375 0.734375 -0.609375 2.140625zm6.6958923 3.609375l0 -10.0625l1.234375 0l0 3.609375q0.875 -1.0 2.1875 -1.0q0.8125 0 1.40625 0.328125q0.59375 0.3125 0.84375 0.875q0.265625 0.5625 0.265625 1.625l0 4.625l-1.234375 0l0 -4.625q0 -0.921875 -0.40625 -1.34375q-0.390625 -0.421875 -1.125 -0.421875q-0.546875 0 -1.03125 0.28125q-0.484375 0.28125 -0.703125 0.78125q-0.203125 0.484375 -0.203125 1.34375l0 3.984375l-1.234375 0zm8.180267 0l0 -1.40625l1.40625 0l0 1.40625l-1.40625 0zm8.313263 -2.671875l1.21875 0.15625q-0.203125 1.265625 -1.03125 1.984375q-0.8125 0.703125 -2.015625 0.703125q-1.484375 0 -2.40625 -0.984375q-0.90625 -0.984375 -0.90625 -2.8125q0 -1.171875 0.390625 -2.0625q0.390625 -0.890625 1.1875 -1.328125q0.8125 -0.4375 1.75 -0.4375q1.1875 0 1.9375 0.609375q0.765625 0.59375 0.96875 1.6875l-1.203125 0.1875q-0.171875 -0.734375 -0.609375 -1.09375q-0.4375 -0.375 -1.046875 -0.375q-0.9375 0 -1.53125 0.671875q-0.578125 0.65625 -0.578125 2.109375q0 1.46875 0.5625 2.140625q0.578125 0.671875 1.484375 0.671875q0.71875 0 1.203125 -0.453125q0.5 -0.453125 0.625 -1.375z" fill-rule="nonzero"/><path fill="#000000" d="m371.09567 63.067726l0 -7.296875l1.109375 0l0 1.03125q0.34375 -0.53125 0.90625 -0.859375q0.578125 -0.328125 1.3125 -0.328125q0.796875 0 1.3125 0.34375q0.53125 0.328125 0.734375 0.921875q0.875 -1.265625 2.265625 -1.265625q1.078125 0 1.65625 0.609375q0.59375 0.59375 0.59375 1.84375l0 5.0l-1.234375 0l0 -4.59375q0 -0.734375 -0.125 -1.0625q-0.109375 -0.328125 -0.4375 -0.53125q-0.3125 -0.203125 -0.734375 -0.203125q-0.765625 0 -1.28125 0.515625q-0.5 0.515625 -0.5 1.640625l0 4.234375l-1.234375 0l0 -4.734375q0 -0.828125 -0.3125 -1.234375q-0.296875 -0.421875 -0.984375 -0.421875q-0.515625 0 -0.96875 0.28125q-0.4375 0.265625 -0.640625 0.796875q-0.203125 0.53125 -0.203125 1.53125l0 3.78125l-1.234375 0zm11.729797 -8.640625l0 -1.421875l1.234375 0l0 1.421875l-1.234375 0zm0 8.640625l0 -7.296875l1.234375 0l0 7.296875l-1.234375 0zm3.108612 0l0 -7.296875l1.125 0l0 1.046875q0.796875 -1.203125 2.3125 -1.203125q0.65625 0 1.203125 0.234375q0.5625 0.234375 0.828125 0.625q0.28125 0.375 0.390625 0.90625q0.078125 0.34375 0.078125 1.203125l0 4.484375l-1.25 0l0 -4.4375q0 -0.75 -0.140625 -1.125q-0.140625 -0.375 -0.515625 -0.59375q-0.359375 -0.234375 -0.859375 -0.234375q-0.78125 0 -1.359375 0.5q-0.578125 0.5 -0.578125 1.90625l0 3.984375l-1.234375 0zm7.8365173 -8.640625l0 -1.421875l1.234375 0l0 1.421875l-1.234375 0zm0 8.640625l0 -7.296875l1.234375 0l0 7.296875l-1.234375 0zm3.108612 0l0 -7.296875l1.109375 0l0 1.03125q0.34375 -0.53125 0.90625 -0.859375q0.578125 -0.328125 1.3125 -0.328125q0.796875 0 1.3125 0.34375q0.53125 0.328125 0.734375 0.921875q0.875 -1.265625 2.265625 -1.265625q1.078125 0 1.65625 0.609375q0.59375 0.59375 0.59375 1.84375l0 5.0l-1.234375 0l0 -4.59375q0 -0.734375 -0.125 -1.0625q-0.109375 -0.328125 -0.4375 -0.53125q-0.3125 -0.203125 -0.734375 -0.203125q-0.765625 0 -1.28125 0.515625q-0.5 0.515625 -0.5 1.640625l0 4.234375l-1.234375 0l0 -4.734375q0 -0.828125 -0.3125 -1.234375q-0.296875 -0.421875 -0.984375 -0.421875q-0.515625 0 -0.96875 0.28125q-0.4375 0.265625 -0.640625 0.796875q-0.203125 0.53125 -0.203125 1.53125l0 3.78125l-1.234375 0zm16.479797 -0.90625q-0.6875 0.59375 -1.328125 0.84375q-0.625 0.234375 -1.359375 0.234375q-1.203125 0 -1.84375 -0.59375q-0.640625 -0.59375 -0.640625 -1.5q0 -0.53125 0.234375 -0.96875q0.25 -0.453125 0.640625 -0.71875q0.390625 -0.265625 0.890625 -0.40625q0.359375 -0.09375 1.09375 -0.1875q1.5 -0.171875 2.203125 -0.421875q0.015625 -0.25 0.015625 -0.328125q0 -0.75 -0.359375 -1.0625q-0.46875 -0.421875 -1.40625 -0.421875q-0.875 0 -1.296875 0.3125q-0.40625 0.296875 -0.609375 1.078125l-1.203125 -0.171875q0.171875 -0.765625 0.546875 -1.234375q0.375 -0.484375 1.078125 -0.734375q0.71875 -0.265625 1.671875 -0.265625q0.921875 0 1.5 0.21875q0.59375 0.21875 0.859375 0.5625q0.28125 0.328125 0.390625 0.828125q0.0625 0.3125 0.0625 1.140625l0 1.640625q0 1.734375 0.078125 2.1875q0.078125 0.453125 0.3125 0.875l-1.28125 0q-0.203125 -0.390625 -0.25 -0.90625zm-0.109375 -2.75q-0.671875 0.265625 -2.015625 0.46875q-0.765625 0.109375 -1.078125 0.25q-0.3125 0.125 -0.484375 0.390625q-0.171875 0.265625 -0.171875 0.59375q0 0.484375 0.375 0.828125q0.375 0.328125 1.09375 0.328125q0.71875 0 1.265625 -0.3125q0.5625 -0.3125 0.828125 -0.859375q0.1875 -0.421875 0.1875 -1.234375l0 -0.453125zm3.1490173 3.65625l0 -10.0625l1.234375 0l0 10.0625l-1.234375 0zm9.75 -1.109375l0.171875 1.09375q-0.515625 0.109375 -0.921875 0.109375q-0.671875 0 -1.046875 -0.203125q-0.375 -0.21875 -0.53125 -0.5625q-0.140625 -0.34375 -0.140625 -1.46875l0 -4.1875l-0.90625 0l0 -0.96875l0.90625 0l0 -1.796875l1.21875 -0.75l0 2.546875l1.25 0l0 0.96875l-1.25 0l0 4.265625q0 0.53125 0.0625 0.6875q0.078125 0.140625 0.21875 0.234375q0.15625 0.078125 0.421875 0.078125q0.203125 0 0.546875 -0.046875zm6.203888 -1.234375l1.28125 0.15625q-0.3125 1.109375 -1.125 1.734375q-0.8125 0.625 -2.09375 0.625q-1.59375 0 -2.53125 -0.984375q-0.9375 -1.0 -0.9375 -2.765625q0 -1.84375 0.9375 -2.859375q0.953125 -1.015625 2.46875 -1.015625q1.46875 0 2.390625 1.0q0.921875 0.984375 0.921875 2.796875q0 0.109375 0 0.328125l-5.4375 0q0.0625 1.203125 0.671875 1.84375q0.609375 0.640625 1.53125 0.640625q0.671875 0 1.15625 -0.359375q0.484375 -0.359375 0.765625 -1.140625zm-4.0625 -2.0l4.078125 0q-0.09375 -0.921875 -0.46875 -1.390625q-0.59375 -0.703125 -1.53125 -0.703125q-0.859375 0 -1.4375 0.578125q-0.578125 0.5625 -0.640625 1.515625zm6.8833923 4.34375l0 -7.296875l1.125 0l0 1.046875q0.796875 -1.203125 2.3125 -1.203125q0.65625 0 1.203125 0.234375q0.5625 0.234375 0.828125 0.625q0.28125 0.375 0.390625 0.90625q0.078125 0.34375 0.078125 1.203125l0 4.484375l-1.25 0l0 -4.4375q0 -0.75 -0.140625 -1.125q-0.140625 -0.375 -0.515625 -0.59375q-0.359375 -0.234375 -0.859375 -0.234375q-0.78125 0 -1.359375 0.5q-0.578125 0.5 -0.578125 1.90625l0 3.984375l-1.234375 0zm7.3365173 -2.171875l1.21875 -0.203125q0.109375 0.734375 0.578125 1.140625q0.46875 0.390625 1.3125 0.390625q0.84375 0 1.25 -0.34375q0.421875 -0.359375 0.421875 -0.828125q0 -0.421875 -0.359375 -0.65625q-0.265625 -0.15625 -1.265625 -0.421875q-1.359375 -0.34375 -1.890625 -0.59375q-0.515625 -0.25 -0.796875 -0.6875q-0.265625 -0.4375 -0.265625 -0.984375q0 -0.484375 0.21875 -0.890625q0.21875 -0.421875 0.609375 -0.703125q0.296875 -0.203125 0.78125 -0.34375q0.5 -0.15625 1.078125 -0.15625q0.859375 0 1.5 0.25q0.65625 0.234375 0.953125 0.65625q0.3125 0.421875 0.4375 1.140625l-1.21875 0.15625q-0.078125 -0.5625 -0.46875 -0.875q-0.390625 -0.3125 -1.125 -0.3125q-0.84375 0 -1.21875 0.28125q-0.359375 0.28125 -0.359375 0.65625q0 0.234375 0.15625 0.4375q0.15625 0.1875 0.46875 0.328125q0.1875 0.0625 1.09375 0.3125q1.3125 0.34375 1.828125 0.578125q0.515625 0.21875 0.8125 0.640625q0.296875 0.421875 0.296875 1.0625q0 0.609375 -0.359375 1.15625q-0.359375 0.546875 -1.046875 0.859375q-0.671875 0.296875 -1.53125 0.296875q-1.421875 0 -2.171875 -0.59375q-0.734375 -0.59375 -0.9375 -1.75zm7.0625 -1.46875q0 -2.03125 1.125 -3.0q0.9375 -0.8125 2.296875 -0.8125q1.5 0 2.453125 0.984375q0.953125 0.984375 0.953125 2.71875q0 1.40625 -0.421875 2.21875q-0.421875 0.796875 -1.234375 1.25q-0.796875 0.453125 -1.75 0.453125q-1.53125 0 -2.484375 -0.984375q-0.9375 -0.984375 -0.9375 -2.828125zm1.265625 0q0 1.390625 0.609375 2.09375q0.609375 0.703125 1.546875 0.703125q0.921875 0 1.53125 -0.703125q0.609375 -0.703125 0.609375 -2.140625q0 -1.359375 -0.625 -2.046875q-0.609375 -0.703125 -1.515625 -0.703125q-0.9375 0 -1.546875 0.703125q-0.609375 0.6875 -0.609375 2.09375zm6.9927673 3.640625l0 -7.296875l1.125 0l0 1.109375q0.421875 -0.78125 0.78125 -1.015625q0.359375 -0.25 0.796875 -0.25q0.625 0 1.265625 0.390625l-0.421875 1.15625q-0.453125 -0.28125 -0.90625 -0.28125q-0.40625 0 -0.734375 0.25q-0.3125 0.25 -0.453125 0.671875q-0.203125 0.671875 -0.203125 1.453125l0 3.8125l-1.25 0zm3.7766724 0.171875l2.921875 -10.40625l0.984375 0l-2.90625 10.40625l-1.0 0zm4.610138 0.4375l1.203125 0.171875q0.078125 0.5625 0.421875 0.8125q0.453125 0.34375 1.25 0.34375q0.859375 0 1.328125 -0.34375q0.46875 -0.34375 0.625 -0.96875q0.09375 -0.375 0.09375 -1.578125q-0.8125 0.953125 -2.015625 0.953125q-1.515625 0 -2.34375 -1.078125q-0.8125 -1.09375 -0.8125 -2.609375q0 -1.046875 0.375 -1.921875q0.375 -0.890625 1.09375 -1.359375q0.71875 -0.484375 1.6875 -0.484375q1.296875 0 2.125 1.046875l0 -0.890625l1.140625 0l0 6.3125q0 1.703125 -0.34375 2.40625q-0.34375 0.71875 -1.09375 1.125q-0.75 0.40625 -1.859375 0.40625q-1.296875 0 -2.109375 -0.59375q-0.796875 -0.578125 -0.765625 -1.75zm1.015625 -4.390625q0 1.4375 0.5625 2.109375q0.578125 0.65625 1.4375 0.65625q0.859375 0 1.4375 -0.65625q0.578125 -0.65625 0.578125 -2.0625q0 -1.34375 -0.609375 -2.015625q-0.59375 -0.6875 -1.421875 -0.6875q-0.828125 0 -1.40625 0.671875q-0.578125 0.671875 -0.578125 1.984375zm7.0083923 3.78125l0 -7.296875l1.125 0l0 1.109375q0.421875 -0.78125 0.78125 -1.015625q0.359375 -0.25 0.796875 -0.25q0.625 0 1.265625 0.390625l-0.421875 1.15625q-0.453125 -0.28125 -0.90625 -0.28125q-0.40625 0 -0.734375 0.25q-0.3125 0.25 -0.453125 0.671875q-0.203125 0.671875 -0.203125 1.453125l0 3.8125l-1.25 0zm9.464172 -0.90625q-0.6875 0.59375 -1.328125 0.84375q-0.625 0.234375 -1.359375 0.234375q-1.203125 0 -1.84375 -0.59375q-0.640625 -0.59375 -0.640625 -1.5q0 -0.53125 0.234375 -0.96875q0.25 -0.453125 0.640625 -0.71875q0.390625 -0.265625 0.890625 -0.40625q0.359375 -0.09375 1.09375 -0.1875q1.5 -0.171875 2.203125 -0.421875q0.015625 -0.25 0.015625 -0.328125q0 -0.75 -0.359375 -1.0625q-0.46875 -0.421875 -1.40625 -0.421875q-0.875 0 -1.296875 0.3125q-0.40625 0.296875 -0.609375 1.078125l-1.203125 -0.171875q0.171875 -0.765625 0.546875 -1.234375q0.375 -0.484375 1.078125 -0.734375q0.71875 -0.265625 1.671875 -0.265625q0.921875 0 1.5 0.21875q0.59375 0.21875 0.859375 0.5625q0.28125 0.328125 0.390625 0.828125q0.0625 0.3125 0.0625 1.140625l0 1.640625q0 1.734375 0.078125 2.1875q0.078125 0.453125 0.3125 0.875l-1.28125 0q-0.203125 -0.390625 -0.25 -0.90625zm-0.109375 -2.75q-0.671875 0.265625 -2.015625 0.46875q-0.765625 0.109375 -1.078125 0.25q-0.3125 0.125 -0.484375 0.390625q-0.171875 0.265625 -0.171875 0.59375q0 0.484375 0.375 0.828125q0.375 0.328125 1.09375 0.328125q0.71875 0 1.265625 -0.3125q0.5625 -0.3125 0.828125 -0.859375q0.1875 -0.421875 0.1875 -1.234375l0 -0.453125zm3.1646423 6.453125l0 -10.09375l1.125 0l0 0.953125q0.40625 -0.5625 0.90625 -0.828125q0.5 -0.28125 1.21875 -0.28125q0.9375 0 1.640625 0.484375q0.71875 0.46875 1.078125 1.34375q0.375 0.875 0.375 1.921875q0 1.125 -0.40625 2.015625q-0.40625 0.890625 -1.171875 1.375q-0.765625 0.484375 -1.609375 0.484375q-0.625 0 -1.109375 -0.265625q-0.484375 -0.265625 -0.8125 -0.65625l0 3.546875l-1.234375 0zm1.125 -6.40625q0 1.40625 0.5625 2.09375q0.578125 0.671875 1.390625 0.671875q0.8125 0 1.40625 -0.703125q0.59375 -0.703125 0.59375 -2.15625q0 -1.40625 -0.578125 -2.09375q-0.578125 -0.6875 -1.375 -0.6875q-0.78125 0 -1.390625 0.734375q-0.609375 0.734375 -0.609375 2.140625zm6.6958923 3.609375l0 -10.0625l1.234375 0l0 3.609375q0.875 -1.0 2.1875 -1.0q0.8125 0 1.40625 0.328125q0.59375 0.3125 0.84375 0.875q0.265625 0.5625 0.265625 1.625l0 4.625l-1.234375 0l0 -4.625q0 -0.921875 -0.40625 -1.34375q-0.390625 -0.421875 -1.125 -0.421875q-0.546875 0 -1.03125 0.28125q-0.484375 0.28125 -0.703125 0.78125q-0.203125 0.484375 -0.203125 1.34375l0 3.984375l-1.234375 0zm11.71228 0l0 -10.0625l1.234375 0l0 10.0625l-1.234375 0zm7.905487 -0.90625q-0.6875 0.59375 -1.328125 0.84375q-0.625 0.234375 -1.359375 0.234375q-1.203125 0 -1.84375 -0.59375q-0.640625 -0.59375 -0.640625 -1.5q0 -0.53125 0.234375 -0.96875q0.25 -0.453125 0.640625 -0.71875q0.390625 -0.265625 0.890625 -0.40625q0.359375 -0.09375 1.09375 -0.1875q1.5 -0.171875 2.203125 -0.421875q0.015625 -0.25 0.015625 -0.328125q0 -0.75 -0.359375 -1.0625q-0.46875 -0.421875 -1.40625 -0.421875q-0.875 0 -1.296875 0.3125q-0.40625 0.296875 -0.609375 1.078125l-1.203125 -0.171875q0.171875 -0.765625 0.546875 -1.234375q0.375 -0.484375 1.078125 -0.734375q0.71875 -0.265625 1.671875 -0.265625q0.921875 0 1.5 0.21875q0.59375 0.21875 0.859375 0.5625q0.28125 0.328125 0.390625 0.828125q0.0625 0.3125 0.0625 1.140625l0 1.640625q0 1.734375 0.078125 2.1875q0.078125 0.453125 0.3125 0.875l-1.28125 0q-0.203125 -0.390625 -0.25 -0.90625zm-0.109375 -2.75q-0.671875 0.265625 -2.015625 0.46875q-0.765625 0.109375 -1.078125 0.25q-0.3125 0.125 -0.484375 0.390625q-0.171875 0.265625 -0.171875 0.59375q0 0.484375 0.375 0.828125q0.375 0.328125 1.09375 0.328125q0.71875 0 1.265625 -0.3125q0.5625 -0.3125 0.828125 -0.859375q0.1875 -0.421875 0.1875 -1.234375l0 -0.453125zm3.1177368 6.46875l-0.140625 -1.171875q0.40625 0.125 0.703125 0.125q0.421875 0 0.65625 -0.140625q0.25 -0.140625 0.40625 -0.390625q0.125 -0.1875 0.390625 -0.921875q0.03125 -0.09375 0.109375 -0.296875l-2.765625 -7.3125l1.328125 0l1.515625 4.234375q0.296875 0.796875 0.53125 1.6875q0.203125 -0.859375 0.5 -1.671875l1.5625 -4.25l1.234375 0l-2.765625 7.421875q-0.453125 1.203125 -0.703125 1.65625q-0.328125 0.609375 -0.75 0.890625q-0.421875 0.28125 -1.015625 0.28125q-0.359375 0 -0.796875 -0.140625zm12.078125 -5.15625l1.28125 0.15625q-0.3125 1.109375 -1.125 1.734375q-0.8125 0.625 -2.09375 0.625q-1.59375 0 -2.53125 -0.984375q-0.9375 -1.0 -0.9375 -2.765625q0 -1.84375 0.9375 -2.859375q0.953125 -1.015625 2.46875 -1.015625q1.46875 0 2.390625 1.0q0.921875 0.984375 0.921875 2.796875q0 0.109375 0 0.328125l-5.4375 0q0.0625 1.203125 0.671875 1.84375q0.609375 0.640625 1.53125 0.640625q0.671875 0 1.15625 -0.359375q0.484375 -0.359375 0.765625 -1.140625zm-4.0625 -2.0l4.078125 0q-0.09375 -0.921875 -0.46875 -1.390625q-0.59375 -0.703125 -1.53125 -0.703125q-0.859375 0 -1.4375 0.578125q-0.578125 0.5625 -0.640625 1.515625zm6.867798 4.34375l0 -7.296875l1.125 0l0 1.109375q0.421875 -0.78125 0.78125 -1.015625q0.359375 -0.25 0.796875 -0.25q0.625 0 1.265625 0.390625l-0.421875 1.15625q-0.453125 -0.28125 -0.90625 -0.28125q-0.40625 0 -0.734375 0.25q-0.3125 0.25 -0.453125 0.671875q-0.203125 0.671875 -0.203125 1.453125l0 3.8125l-1.25 0z" fill-rule="nonzero"/></g></svg>