
<svg version="1.1" viewBox="0.0 0.0 625.0761154855643 290.3543307086614" 
    xmlns="http://www.w3.org/2000/svg"
    fill="none" stroke="none"
    width="640">
<path fill="#1c1c1c" d="m0 2.6246718E-7l625.07086 0l0 290.3622l-625.07086 0z" fill-rule="evenodd"/>
<path fill="#cfe2f3" d="m147.25381 34.583897c0 -2.7861214 2.2585907 -5.0447197 5.0447083 -5.0447197l71.07591 0c1.3379517 0 2.6210938 0.53149605 3.5671692 1.4775639c0.9460602 0.9460678 1.4775543 2.2292118 1.4775543 3.5671558l0 20.178276c0 2.7861214 -2.2585907 5.0447197 -5.0447235 5.0447197l-71.07591 0c-2.7861176 0 -5.0447083 -2.2585983 -5.0447083 -5.0447197z" fill-rule="evenodd"/>
<path stroke="#a4c2f4" stroke-width="0.8792650918635171" stroke-linejoin="round" stroke-linecap="butt" d="m147.25381 34.583897c0 -2.7861214 2.2585907 -5.0447197 5.0447083 -5.0447197l71.07591 0c1.3379517 0 2.6210938 0.53149605 3.5671692 1.4775639c0.9460602 0.9460678 1.4775543 2.2292118 1.4775543 3.5671558l0 20.178276c0 2.7861214 -2.2585907 5.0447197 -5.0447235 5.0447197l-71.07591 0c-2.7861176 0 -5.0447083 -2.2585983 -5.0447083 -5.0447197z" fill-rule="evenodd"/>
<path fill="#000000" d="m162.93137 48.569706l0.171875 1.09375q-0.515625 0.109375 -0.921875 0.109375q-0.671875 0 -1.046875 -0.203125q-0.375 -0.21875 -0.53125 -0.5625q-0.140625 -0.34375 -0.140625 -1.46875l0 -4.1875l-0.90625 0l0 -0.96875l0.90625 0l0 -1.796875l1.21875 -0.75l0 2.546875l1.25 0l0 0.96875l-1.25 0l0 4.265625q0 0.53125 0.0625 0.6875q0.078125 0.140625 0.21875 0.234375q0.15625 0.078125 0.421875 0.078125q0.203125 0 0.546875 -0.046875zm0.75076294 -2.53125q0 -2.03125 1.125 -3.0q0.9375 -0.8125 2.296875 -0.8125q1.5 0 2.453125 0.984375q0.953125 0.984375 0.953125 2.71875q0 1.40625 -0.421875 2.21875q-0.421875 0.796875 -1.234375 1.25q-0.796875 0.453125 -1.75 0.453125q-1.53125 0 -2.484375 -0.984375q-0.9375 -0.984375 -0.9375 -2.828125zm1.265625 0q0 1.390625 0.609375 2.09375q0.609375 0.703125 1.546875 0.703125q0.921875 0 1.53125 -0.703125q0.609375 -0.703125 0.609375 -2.140625q0 -1.359375 -0.625 -2.046875q-0.609375 -0.703125 -1.515625 -0.703125q-0.9375 0 -1.546875 0.703125q-0.609375 0.6875 -0.609375 2.09375zm7.0240173 3.640625l0 -10.0625l1.234375 0l0 5.734375l2.921875 -2.96875l1.59375 0l-2.78125 2.703125l3.0625 4.59375l-1.515625 0l-2.40625 -3.734375l-0.875 0.84375l0 2.890625l-1.234375 0zm12.015625 -2.34375l1.28125 0.15625q-0.3125 1.109375 -1.125 1.734375q-0.8125 0.625 -2.09375 0.625q-1.59375 0 -2.53125 -0.984375q-0.9375 -1.0 -0.9375 -2.765625q0 -1.84375 0.9375 -2.859375q0.953125 -1.015625 2.46875 -1.015625q1.46875 0 2.390625 1.0q0.921875 0.984375 0.921875 2.796875q0 0.109375 0 0.328125l-5.4375 0q0.0625 1.203125 0.671875 1.84375q0.609375 0.640625 1.53125 0.640625q0.671875 0 1.15625 -0.359375q0.484375 -0.359375 0.765625 -1.140625zm-4.0625 -2.0l4.078125 0q-0.09375 -0.921875 -0.46875 -1.390625q-0.59375 -0.703125 -1.53125 -0.703125q-0.859375 0 -1.4375 0.578125q-0.578125 0.5625 -0.640625 1.515625zm6.8833923 4.34375l0 -7.296875l1.125 0l0 1.046875q0.796875 -1.203125 2.3125 -1.203125q0.65625 0 1.203125 0.234375q0.5625 0.234375 0.828125 0.625q0.28125 0.375 0.390625 0.90625q0.078125 0.34375 0.078125 1.203125l0 4.484375l-1.25 0l0 -4.4375q0 -0.75 -0.140625 -1.125q-0.140625 -0.375 -0.515625 -0.59375q-0.359375 -0.234375 -0.859375 -0.234375q-0.78125 0 -1.359375 0.5q-0.578125 0.5 -0.578125 1.90625l0 3.984375l-1.234375 0zm7.8365173 -8.640625l0 -1.421875l1.234375 0l0 1.421875l-1.234375 0zm0 8.640625l0 -7.296875l1.234375 0l0 7.296875l-1.234375 0zm2.467987 0l0 -1.0l4.640625 -5.328125q-0.796875 0.03125 -1.40625 0.03125l-2.96875 0l0 -1.0l5.96875 0l0 0.828125l-3.953125 4.625l-0.765625 0.84375q0.828125 -0.0625 1.5625 -0.0625l3.375 0l0 1.0625l-6.453125 0zm12.671875 -2.34375l1.28125 0.15625q-0.3125 1.109375 -1.125 1.734375q-0.8125 0.625 -2.09375 0.625q-1.59375 0 -2.53125 -0.984375q-0.9375 -1.0 -0.9375 -2.765625q0 -1.84375 0.9375 -2.859375q0.953125 -1.015625 2.46875 -1.015625q1.46875 0 2.390625 1.0q0.921875 0.984375 0.921875 2.796875q0 0.109375 0 0.328125l-5.4375 0q0.0625 1.203125 0.671875 1.84375q0.609375 0.640625 1.53125 0.640625q0.671875 0 1.15625 -0.359375q0.484375 -0.359375 0.765625 -1.140625zm-4.0625 -2.0l4.078125 0q-0.09375 -0.921875 -0.46875 -1.390625q-0.59375 -0.703125 -1.53125 -0.703125q-0.859375 0 -1.4375 0.578125q-0.578125 0.5625 -0.640625 1.515625zm6.8677673 4.34375l0 -7.296875l1.125 0l0 1.109375q0.421875 -0.78125 0.78125 -1.015625q0.359375 -0.25 0.796875 -0.25q0.625 0 1.265625 0.390625l-0.421875 1.15625q-0.453125 -0.28125 -0.90625 -0.28125q-0.40625 0 -0.734375 0.25q-0.3125 0.25 -0.453125 0.671875q-0.203125 0.671875 -0.203125 1.453125l0 3.8125l-1.25 0z" fill-rule="nonzero"/>
<path fill="#cfe2f3" d="m32.37869 34.583897c0 -2.7861214 2.2585983 -5.0447197 5.0447197 -5.0447197l71.07591 0c1.337944 0 2.6210861 0.53149605 3.567154 1.4775639c0.94607544 0.9460678 1.4775696 2.2292118 1.4775696 3.5671558l0 20.178276c0 2.7861214 -2.2585983 5.0447197 -5.0447235 5.0447197l-71.07591 0c-2.7861214 0 -5.0447197 -2.2585983 -5.0447197 -5.0447197z" fill-rule="evenodd"/>
<path stroke="#a4c2f4" stroke-width="0.8792650918635171" stroke-linejoin="round" stroke-linecap="butt" d="m32.37869 34.583897c0 -2.7861214 2.2585983 -5.0447197 5.0447197 -5.0447197l71.07591 0c1.337944 0 2.6210861 0.53149605 3.567154 1.4775639c0.94607544 0.9460678 1.4775696 2.2292118 1.4775696 3.5671558l0 20.178276c0 2.7861214 -2.2585983 5.0447197 -5.0447235 5.0447197l-71.07591 0c-2.7861214 0 -5.0447197 -2.2585983 -5.0447197 -5.0447197z" fill-rule="evenodd"/>
<path fill="#000000" d="m65.25328 48.569706l0.171875 1.09375q-0.515625 0.109375 -0.921875 0.109375q-0.671875 0 -1.046875 -0.203125q-0.375 -0.21875 -0.53125 -0.5625q-0.140625 -0.34375 -0.140625 -1.46875l0 -4.1875l-0.90625 0l0 -0.96875l0.90625 0l0 -1.796875l1.21875 -0.75l0 2.546875l1.25 0l0 0.96875l-1.25 0l0 4.265625q0 0.53125 0.0625 0.6875q0.078125 0.140625 0.21875 0.234375q0.15625 0.078125 0.421875 0.078125q0.203125 0 0.546875 -0.046875zm6.203888 -1.234375l1.28125 0.15625q-0.3125 1.109375 -1.125 1.734375q-0.8125 0.625 -2.09375 0.625q-1.59375 0 -2.53125 -0.984375q-0.9375 -1.0 -0.9375 -2.765625q0 -1.84375 0.9375 -2.859375q0.953125 -1.015625 2.46875 -1.015625q1.46875 0 2.390625 1.0q0.921875 0.984375 0.921875 2.796875q0 0.109375 0 0.328125l-5.4375 0q0.0625 1.203125 0.671875 1.84375q0.609375 0.640625 1.53125 0.640625q0.671875 0 1.15625 -0.359375q0.484375 -0.359375 0.765625 -1.140625zm-4.0625 -2.0l4.078125 0q-0.09375 -0.921875 -0.46875 -1.390625q-0.59375 -0.703125 -1.53125 -0.703125q-0.859375 0 -1.4375 0.578125q-0.578125 0.5625 -0.640625 1.515625zm6.0708923 4.34375l2.65625 -3.796875l-2.46875 -3.5l1.546875 0l1.125 1.71875q0.3125 0.484375 0.5 0.8125q0.3125 -0.453125 0.5625 -0.796875l1.234375 -1.734375l1.46875 0l-2.515625 3.4375l2.703125 3.859375l-1.515625 0l-1.5 -2.265625l-0.390625 -0.609375l-1.921875 2.875l-1.484375 0zm10.546875 -1.109375l0.171875 1.09375q-0.515625 0.109375 -0.921875 0.109375q-0.671875 0 -1.046875 -0.203125q-0.375 -0.21875 -0.53125 -0.5625q-0.140625 -0.34375 -0.140625 -1.46875l0 -4.1875l-0.90625 0l0 -0.96875l0.90625 0l0 -1.796875l1.21875 -0.75l0 2.546875l1.25 0l0 0.96875l-1.25 0l0 4.265625q0 0.53125 0.0625 0.6875q0.078125 0.140625 0.21875 0.234375q0.15625 0.078125 0.421875 0.078125q0.203125 0 0.546875 -0.046875z" fill-rule="nonzero"/>
<path fill="#cfe2f3" d="m262.12894 34.583897c0 -2.7861214 2.2585754 -5.0447197 5.0447083 -5.0447197l71.07593 0c1.3379211 0 2.6210632 0.53149605 3.5671387 1.4775639c0.94607544 0.9460678 1.4775696 2.2292118 1.4775696 3.5671558l0 20.178276c0 2.7861214 -2.258606 5.0447197 -5.0447083 5.0447197l-71.07593 0c-2.7861328 0 -5.0447083 -2.2585983 -5.0447083 -5.0447197z" fill-rule="evenodd"/>
<path stroke="#a4c2f4" stroke-width="0.8792650918635171" stroke-linejoin="round" stroke-linecap="butt" d="m262.12894 34.583897c0 -2.7861214 2.2585754 -5.0447197 5.0447083 -5.0447197l71.07593 0c1.3379211 0 2.6210632 0.53149605 3.5671387 1.4775639c0.94607544 0.9460678 1.4775696 2.2292118 1.4775696 3.5671558l0 20.178276c0 2.7861214 -2.258606 5.0447197 -5.0447083 5.0447197l-71.07593 0c-2.7861328 0 -5.0447083 -2.2585983 -5.0447083 -5.0447197z" fill-rule="evenodd"/>
<path fill="#000000" d="m278.19443 48.569706l0.171875 1.09375q-0.515625 0.109375 -0.921875 0.109375q-0.671875 0 -1.046875 -0.203125q-0.375 -0.21875 -0.53125 -0.5625q-0.140625 -0.34375 -0.140625 -1.46875l0 -4.1875l-0.90625 0l0 -0.96875l0.90625 0l0 -1.796875l1.21875 -0.75l0 2.546875l1.25 0l0 0.96875l-1.25 0l0 4.265625q0 0.53125 0.0625 0.6875q0.078125 0.140625 0.21875 0.234375q0.15625 0.078125 0.421875 0.078125q0.203125 0 0.546875 -0.046875zm0.75076294 -2.53125q0 -2.03125 1.125 -3.0q0.9375 -0.8125 2.296875 -0.8125q1.5 0 2.453125 0.984375q0.953125 0.984375 0.953125 2.71875q0 1.40625 -0.421875 2.21875q-0.421875 0.796875 -1.234375 1.25q-0.796875 0.453125 -1.75 0.453125q-1.53125 0 -2.484375 -0.984375q-0.9375 -0.984375 -0.9375 -2.828125zm1.265625 0q0 1.390625 0.609375 2.09375q0.609375 0.703125 1.546875 0.703125q0.921875 0 1.53125 -0.703125q0.609375 -0.703125 0.609375 -2.140625q0 -1.359375 -0.625 -2.046875q-0.609375 -0.703125 -1.515625 -0.703125q-0.9375 0 -1.546875 0.703125q-0.609375 0.6875 -0.609375 2.09375zm7.0240173 3.640625l0 -10.0625l1.234375 0l0 5.734375l2.921875 -2.96875l1.59375 0l-2.78125 2.703125l3.0625 4.59375l-1.515625 0l-2.40625 -3.734375l-0.875 0.84375l0 2.890625l-1.234375 0zm12.015625 -2.34375l1.28125 0.15625q-0.3125 1.109375 -1.125 1.734375q-0.8125 0.625 -2.09375 0.625q-1.59375 0 -2.53125 -0.984375q-0.9375 -1.0 -0.9375 -2.765625q0 -1.84375 0.9375 -2.859375q0.953125 -1.015625 2.46875 -1.015625q1.46875 0 2.390625 1.0q0.921875 0.984375 0.921875 2.796875q0 0.109375 0 0.328125l-5.4375 0q0.0625 1.203125 0.671875 1.84375q0.609375 0.640625 1.53125 0.640625q0.671875 0 1.15625 -0.359375q0.484375 -0.359375 0.765625 -1.140625zm-4.0625 -2.0l4.078125 0q-0.09375 -0.921875 -0.46875 -1.390625q-0.59375 -0.703125 -1.53125 -0.703125q-0.859375 0 -1.4375 0.578125q-0.578125 0.5625 -0.640625 1.515625zm6.8833923 4.34375l0 -7.296875l1.125 0l0 1.046875q0.796875 -1.203125 2.3125 -1.203125q0.65625 0 1.203125 0.234375q0.5625 0.234375 0.828125 0.625q0.28125 0.375 0.390625 0.90625q0.078125 0.34375 0.078125 1.203125l0 4.484375l-1.25 0l0 -4.4375q0 -0.75 -0.140625 -1.125q-0.140625 -0.375 -0.515625 -0.59375q-0.359375 -0.234375 -0.859375 -0.234375q-0.78125 0 -1.359375 0.5q-0.578125 0.5 -0.578125 1.90625l0 3.984375l-1.234375 0zm11.74353 -8.640625l0 -1.421875l1.234375 0l0 1.421875l-1.234375 0zm0 8.640625l0 -7.296875l1.234375 0l0 7.296875l-1.234375 0zm7.842987 0l0 -0.921875q-0.6875 1.09375 -2.03125 1.09375q-0.875 0 -1.609375 -0.484375q-0.734375 -0.484375 -1.140625 -1.34375q-0.390625 -0.859375 -0.390625 -1.984375q0 -1.09375 0.359375 -1.984375q0.359375 -0.890625 1.09375 -1.359375q0.734375 -0.46875 1.625 -0.46875q0.65625 0 1.171875 0.28125q0.515625 0.265625 0.84375 0.71875l0 -3.609375l1.21875 0l0 10.0625l-1.140625 0zm-3.90625 -3.640625q0 1.40625 0.59375 2.109375q0.59375 0.6875 1.390625 0.6875q0.8125 0 1.375 -0.65625q0.5625 -0.671875 0.5625 -2.03125q0 -1.5 -0.578125 -2.203125q-0.5625 -0.703125 -1.40625 -0.703125q-0.828125 0 -1.390625 0.671875q-0.546875 0.671875 -0.546875 2.125zm6.5083923 1.46875l1.21875 -0.203125q0.109375 0.734375 0.578125 1.140625q0.46875 0.390625 1.3125 0.390625q0.8437805 0 1.2500305 -0.34375q0.421875 -0.359375 0.421875 -0.828125q0 -0.421875 -0.359375 -0.65625q-0.265625 -0.15625 -1.2656555 -0.421875q-1.359375 -0.34375 -1.890625 -0.59375q-0.515625 -0.25 -0.796875 -0.6875q-0.265625 -0.4375 -0.265625 -0.984375q0 -0.484375 0.21875 -0.890625q0.21875 -0.421875 0.609375 -0.703125q0.296875 -0.203125 0.78125 -0.34375q0.5 -0.15625 1.078125 -0.15625q0.8594055 0 1.5000305 0.25q0.65625 0.234375 0.953125 0.65625q0.3125 0.421875 0.4375 1.140625l-1.21875 0.15625q-0.078125 -0.5625 -0.46875 -0.875q-0.390625 -0.3125 -1.1250305 -0.3125q-0.84375 0 -1.21875 0.28125q-0.359375 0.28125 -0.359375 0.65625q0 0.234375 0.15625 0.4375q0.15625 0.1875 0.46875 0.328125q0.1875 0.0625 1.09375 0.3125q1.3125305 0.34375 1.8281555 0.578125q0.515625 0.21875 0.8125 0.640625q0.296875 0.421875 0.296875 1.0625q0 0.609375 -0.359375 1.15625q-0.359375 0.546875 -1.046875 0.859375q-0.671875 0.296875 -1.5312805 0.296875q-1.421875 0 -2.171875 -0.59375q-0.734375 -0.59375 -0.9375 -1.75z" fill-rule="nonzero"/>
<path fill="#cfe2f3" d="m243.11655 100.0261c0 -2.7861176 2.258606 -5.044716 5.0447235 -5.044716l109.09166 0c1.3379517 0 2.6210938 0.53149414 3.5671692 1.477562c0.9460449 0.9460678 1.4775391 2.22921 1.4775391 3.567154l0 20.178276c0 2.7861252 -2.2585754 5.0447235 -5.0447083 5.0447235l-109.09166 0c-2.7861176 0 -5.0447235 -2.2585983 -5.0447235 -5.0447235z" fill-rule="evenodd"/>
<path stroke="#a4c2f4" stroke-width="0.8792650918635171" stroke-linejoin="round" stroke-linecap="butt" d="m243.11655 100.0261c0 -2.7861176 2.258606 -5.044716 5.0447235 -5.044716l109.09166 0c1.3379517 0 2.6210938 0.53149414 3.5671692 1.477562c0.9460449 0.9460678 1.4775391 2.22921 1.4775391 3.567154l0 20.178276c0 2.7861252 -2.2585754 5.0447235 -5.0447083 5.0447235l-109.09166 0c-2.7861176 0 -5.0447235 -2.2585983 -5.0447235 -5.0447235z" fill-rule="evenodd"/>
<path fill="#000000" d="m257.12247 115.121284l0 -7.296875l1.109375 0l0 1.03125q0.34375 -0.53125 0.90625 -0.859375q0.578125 -0.328125 1.3125 -0.328125q0.796875 0 1.3125 0.34375q0.53125 0.328125 0.734375 0.921875q0.875 -1.265625 2.265625 -1.265625q1.078125 0 1.65625 0.609375q0.59375 0.59375 0.59375 1.84375l0 5.0l-1.234375 0l0 -4.59375q0 -0.734375 -0.125 -1.0625q-0.109375 -0.328125 -0.4375 -0.53125q-0.3125 -0.203125 -0.734375 -0.203125q-0.765625 0 -1.28125 0.515625q-0.5 0.515625 -0.5 1.640625l0 4.234375l-1.234375 0l0 -4.734375q0 -0.828125 -0.3125 -1.234375q-0.296875 -0.421875 -0.984375 -0.421875q-0.515625 0 -0.96875 0.28125q-0.4375 0.265625 -0.640625 0.796875q-0.203125 0.53125 -0.203125 1.53125l0 3.78125l-1.234375 0zm11.261047 -3.640625q0 -2.03125 1.125 -3.0q0.9375 -0.8125 2.296875 -0.8125q1.5 0 2.453125 0.984375q0.953125 0.984375 0.953125 2.71875q0 1.40625 -0.421875 2.21875q-0.421875 0.796875 -1.234375 1.25q-0.796875 0.453125 -1.75 0.453125q-1.53125 0 -2.484375 -0.984375q-0.9375 -0.984375 -0.9375 -2.828125zm1.265625 0q0 1.390625 0.609375 2.09375q0.609375 0.703125 1.546875 0.703125q0.921875 0 1.53125 -0.703125q0.609375 -0.703125 0.609375 -2.140625q0 -1.359375 -0.625 -2.046875q-0.609375 -0.703125 -1.515625 -0.703125q-0.9375 0 -1.546875 0.703125q-0.609375 0.6875 -0.609375 2.09375zm11.742767 3.640625l0 -0.921875q-0.6875 1.09375 -2.03125 1.09375q-0.875 0 -1.609375 -0.484375q-0.734375 -0.484375 -1.140625 -1.34375q-0.390625 -0.859375 -0.390625 -1.984375q0 -1.09375 0.359375 -1.984375q0.359375 -0.890625 1.09375 -1.359375q0.734375 -0.46875 1.625 -0.46875q0.65625 0 1.171875 0.28125q0.515625 0.265625 0.84375 0.71875l0 -3.609375l1.21875 0l0 10.0625l-1.140625 0zm-3.90625 -3.640625q0 1.40625 0.59375 2.109375q0.59375 0.6875 1.390625 0.6875q0.8125 0 1.375 -0.65625q0.5625 -0.671875 0.5625 -2.03125q0 -1.5 -0.578125 -2.203125q-0.5625 -0.703125 -1.40625 -0.703125q-0.828125 0 -1.390625 0.671875q-0.546875 0.671875 -0.546875 2.125zm11.992767 1.296875l1.28125 0.15625q-0.3125 1.109375 -1.125 1.734375q-0.8125 0.625 -2.09375 0.625q-1.59375 0 -2.53125 -0.984375q-0.9375 -1.0 -0.9375 -2.765625q0 -1.84375 0.9375 -2.859375q0.953125 -1.015625 2.46875 -1.015625q1.46875 0 2.390625 1.0q0.921875 0.984375 0.921875 2.796875q0 0.109375 0 0.328125l-5.4375 0q0.0625 1.203125 0.671875 1.84375q0.609375 0.640625 1.53125 0.640625q0.671875 0 1.15625 -0.359375q0.484375 -0.359375 0.765625 -1.140625zm-4.0625 -2.0l4.078125 0q-0.09375 -0.921875 -0.46875 -1.390625q-0.59375 -0.703125 -1.53125 -0.703125q-0.859375 0 -1.4375 0.578125q-0.578125 0.5625 -0.640625 1.515625zm6.8677673 4.34375l0 -10.0625l1.234375 0l0 10.0625l-1.234375 0zm1.9992371 2.796875l0 -0.890625l8.203125 0l0 0.890625l-8.203125 0zm9.258392 -2.796875l0 -6.328125l-1.09375 0l0 -0.96875l1.09375 0l0 -0.765625q0 -0.734375 0.140625 -1.09375q0.171875 -0.484375 0.625 -0.78125q0.453125 -0.296875 1.25 -0.296875q0.53125 0 1.15625 0.125l-0.1875 1.078125q-0.375 -0.078125 -0.71875 -0.078125q-0.5625 0 -0.796875 0.25q-0.234375 0.234375 -0.234375 0.890625l0 0.671875l1.421875 0l0 0.96875l-1.421875 0l0 6.328125l-1.234375 0zm3.157013 -3.640625q0 -2.03125 1.125 -3.0q0.9375 -0.8125 2.296875 -0.8125q1.5 0 2.453125 0.984375q0.953125 0.984375 0.953125 2.71875q0 1.40625 -0.421875 2.21875q-0.421875 0.796875 -1.234375 1.25q-0.796875 0.453125 -1.75 0.453125q-1.53125 0 -2.484375 -0.984375q-0.9375 -0.984375 -0.9375 -2.828125zm1.265625 0q0 1.390625 0.609375 2.09375q0.609375 0.703125 1.546875 0.703125q0.921875 0 1.53125 -0.703125q0.609375 -0.703125 0.609375 -2.140625q0 -1.359375 -0.625 -2.046875q-0.609375 -0.703125 -1.515625 -0.703125q-0.9375 0 -1.546875 0.703125q-0.609375 0.6875 -0.609375 2.09375zm6.9927673 3.640625l0 -7.296875l1.125 0l0 1.109375q0.421875 -0.78125 0.78125 -1.015625q0.359375 -0.25 0.796875 -0.25q0.625 0 1.265625 0.390625l-0.421875 1.15625q-0.453125 -0.28125 -0.90625 -0.28125q-0.40625 0 -0.734375 0.25q-0.3125 0.25 -0.453125 0.671875q-0.203125 0.671875 -0.203125 1.453125l0 3.8125l-1.25 0zm6.0422974 0l-2.21875 -7.296875l1.265625 0l1.171875 4.21875l0.421875 1.5625q0.03125 -0.125 0.375 -1.5l1.171875 -4.28125l1.265625 0l1.09375 4.234375l0.359375 1.390625l0.421875 -1.40625l1.25 -4.21875l1.203125 0l-2.28125 7.296875l-1.28125 0l-1.15625 -4.359375l-0.28125 -1.25l-1.484375 5.609375l-1.296875 0zm13.577362 -0.90625q-0.6875 0.59375 -1.328125 0.84375q-0.625 0.234375 -1.359375 0.234375q-1.203125 0 -1.84375 -0.59375q-0.640625 -0.59375 -0.640625 -1.5q0 -0.53125 0.234375 -0.96875q0.25 -0.453125 0.640625 -0.71875q0.390625 -0.265625 0.890625 -0.40625q0.359375 -0.09375 1.09375 -0.1875q1.5 -0.171875 2.203125 -0.421875q0.015625 -0.25 0.015625 -0.328125q0 -0.75 -0.359375 -1.0625q-0.46875 -0.421875 -1.40625 -0.421875q-0.875 0 -1.296875 0.3125q-0.40625 0.296875 -0.609375 1.078125l-1.203125 -0.171875q0.171875 -0.765625 0.546875 -1.234375q0.375 -0.484375 1.078125 -0.734375q0.71875 -0.265625 1.671875 -0.265625q0.921875 0 1.5 0.21875q0.59375 0.21875 0.859375 0.5625q0.28125 0.328125 0.390625 0.828125q0.0625 0.3125 0.0625 1.140625l0 1.640625q0 1.734375 0.078125 2.1875q0.078125 0.453125 0.3125 0.875l-1.28125 0q-0.203125 -0.390625 -0.25 -0.90625zm-0.109375 -2.75q-0.671875 0.265625 -2.015625 0.46875q-0.765625 0.109375 -1.078125 0.25q-0.3125 0.125 -0.484375 0.390625q-0.171875 0.265625 -0.171875 0.59375q0 0.484375 0.375 0.828125q0.375 0.328125 1.09375 0.328125q0.71875 0 1.265625 -0.3125q0.5625 -0.3125 0.828125 -0.859375q0.1875 -0.421875 0.1875 -1.234375l0 -0.453125zm3.1490173 3.65625l0 -7.296875l1.125 0l0 1.109375q0.421875 -0.78125 0.78125 -1.015625q0.359375 -0.25 0.796875 -0.25q0.625 0 1.265625 0.390625l-0.421875 1.15625q-0.453125 -0.28125 -0.90625 -0.28125q-0.40625 0 -0.734375 0.25q-0.3125 0.25 -0.453125 0.671875q-0.203125 0.671875 -0.203125 1.453125l0 3.8125l-1.25 0zm9.432922 0l0 -0.921875q-0.6875 1.09375 -2.03125 1.09375q-0.875 0 -1.609375 -0.484375q-0.734375 -0.484375 -1.140625 -1.34375q-0.390625 -0.859375 -0.390625 -1.984375q0 -1.09375 0.359375 -1.984375q0.359375 -0.890625 1.09375 -1.359375q0.734375 -0.46875 1.625 -0.46875q0.65625 0 1.171875 0.28125q0.515625 0.265625 0.84375 0.71875l0 -3.609375l1.21875 0l0 10.0625l-1.140625 0zm-3.90625 -3.640625q0 1.40625 0.59375 2.109375q0.59375 0.6875 1.390625 0.6875q0.8125 0 1.375 -0.65625q0.5625 -0.671875 0.5625 -2.03125q0 -1.5 -0.578125 -2.203125q-0.5625 -0.703125 -1.40625 -0.703125q-0.828125 0 -1.390625 0.671875q-0.546875 0.671875 -0.546875 2.125z" fill-rule="nonzero"/>
<path fill="#cfe2f3" d="m394.27628 100.0261c0 -2.7861176 2.258606 -5.044716 5.044739 -5.044716l71.0759 0c1.3379517 0 2.6210938 0.53149414 3.5671692 1.477562c0.9460449 0.9460678 1.4775696 2.22921 1.4775696 3.567154l0 20.178276c0 2.7861252 -2.258606 5.0447235 -5.044739 5.0447235l-71.0759 0c-2.7861328 0 -5.044739 -2.2585983 -5.044739 -5.0447235z" fill-rule="evenodd"/>
<path stroke="#a4c2f4" stroke-width="0.8792650918635171" stroke-linejoin="round" stroke-linecap="butt" d="m394.27628 100.0261c0 -2.7861176 2.258606 -5.044716 5.044739 -5.044716l71.0759 0c1.3379517 0 2.6210938 0.53149414 3.5671692 1.477562c0.9460449 0.9460678 1.4775696 2.22921 1.4775696 3.567154l0 20.178276c0 2.7861252 -2.258606 5.0447235 -5.044739 5.0447235l-71.0759 0c-2.7861328 0 -5.044739 -2.2585983 -5.044739 -5.0447235z" fill-rule="evenodd"/>
<path fill="#000000" d="m419.35095 115.121284l0 -10.0625l1.234375 0l0 10.0625l-1.234375 0zm2.686737 -3.640625q0 -2.03125 1.125 -3.0q0.9375 -0.8125 2.296875 -0.8125q1.5 0 2.453125 0.984375q0.953125 0.984375 0.953125 2.71875q0 1.40625 -0.421875 2.21875q-0.421875 0.796875 -1.234375 1.25q-0.796875 0.453125 -1.75 0.453125q-1.53125 0 -2.484375 -0.984375q-0.9375 -0.984375 -0.9375 -2.828125zm1.265625 0q0 1.390625 0.609375 2.09375q0.609375 0.703125 1.546875 0.703125q0.921875 0 1.53125 -0.703125q0.609375 -0.703125 0.609375 -2.140625q0 -1.359375 -0.625 -2.046875q-0.609375 -0.703125 -1.515625 -0.703125q-0.9375 0 -1.546875 0.703125q-0.609375 0.6875 -0.609375 2.09375zm6.7896423 4.25l1.203125 0.171875q0.078125 0.5625 0.421875 0.8125q0.453125 0.34375 1.25 0.34375q0.859375 0 1.328125 -0.34375q0.46875 -0.34375 0.625 -0.96875q0.09375 -0.375 0.09375 -1.578125q-0.8125 0.953125 -2.015625 0.953125q-1.515625 0 -2.34375 -1.078125q-0.8125 -1.09375 -0.8125 -2.609375q0 -1.046875 0.375 -1.921875q0.375 -0.890625 1.09375 -1.359375q0.71875 -0.484375 1.6875 -0.484375q1.296875 0 2.125 1.046875l0 -0.890625l1.140625 0l0 6.3125q0 1.703125 -0.34375 2.40625q-0.34375 0.71875 -1.09375 1.125q-0.75 0.40625 -1.859375 0.40625q-1.296875 0 -2.109375 -0.59375q-0.796875 -0.578125 -0.765625 -1.75zm1.015625 -4.390625q0 1.4375 0.5625 2.109375q0.578125 0.65625 1.4375 0.65625q0.859375 0 1.4375 -0.65625q0.578125 -0.65625 0.578125 -2.0625q0 -1.34375 -0.609375 -2.015625q-0.59375 -0.6875 -1.421875 -0.6875q-0.828125 0 -1.40625 0.671875q-0.578125 0.671875 -0.578125 1.984375zm7.0396423 -4.859375l0 -1.421875l1.234375 0l0 1.421875l-1.234375 0zm0 8.640625l0 -7.296875l1.234375 0l0 7.296875l-1.234375 0zm5.811737 -1.109375l0.171875 1.09375q-0.515625 0.109375 -0.921875 0.109375q-0.671875 0 -1.046875 -0.203125q-0.375 -0.21875 -0.53125 -0.5625q-0.140625 -0.34375 -0.140625 -1.46875l0 -4.1875l-0.90625 0l0 -0.96875l0.90625 0l0 -1.796875l1.21875 -0.75l0 2.546875l1.25 0l0 0.96875l-1.25 0l0 4.265625q0 0.53125 0.0625 0.6875q0.078125 0.140625 0.21875 0.234375q0.15625 0.078125 0.421875 0.078125q0.203125 0 0.546875 -0.046875zm0.71951294 -1.0625l1.21875 -0.203125q0.109375 0.734375 0.578125 1.140625q0.46875 0.390625 1.3125 0.390625q0.84375 0 1.25 -0.34375q0.421875 -0.359375 0.421875 -0.828125q0 -0.421875 -0.359375 -0.65625q-0.265625 -0.15625 -1.265625 -0.421875q-1.359375 -0.34375 -1.890625 -0.59375q-0.515625 -0.25 -0.796875 -0.6875q-0.265625 -0.4375 -0.265625 -0.984375q0 -0.484375 0.21875 -0.890625q0.21875 -0.421875 0.609375 -0.703125q0.296875 -0.203125 0.78125 -0.34375q0.5 -0.15625 1.078125 -0.15625q0.859375 0 1.5 0.25q0.65625 0.234375 0.953125 0.65625q0.3125 0.421875 0.4375 1.140625l-1.21875 0.15625q-0.078125 -0.5625 -0.46875 -0.875q-0.390625 -0.3125 -1.125 -0.3125q-0.84375 0 -1.21875 0.28125q-0.359375 0.28125 -0.359375 0.65625q0 0.234375 0.15625 0.4375q0.15625 0.1875 0.46875 0.328125q0.1875 0.0625 1.09375 0.3125q1.3125 0.34375 1.828125 0.578125q0.515625 0.21875 0.8125 0.640625q0.296875 0.421875 0.296875 1.0625q0 0.609375 -0.359375 1.15625q-0.359375 0.546875 -1.046875 0.859375q-0.671875 0.296875 -1.53125 0.296875q-1.421875 0 -2.171875 -0.59375q-0.734375 -0.59375 -0.9375 -1.75z" fill-rule="nonzero"/>
<path fill="#cfe2f3" d="m501.36688 165.35735c0 -2.7861328 2.258606 -5.0447235 5.044739 -5.0447235l78.85541 0c1.3379517 0 2.6210938 0.53149414 3.5671997 1.4775696c0.9460449 0.9460602 1.4775391 2.2292023 1.4775391 3.567154l0 20.178268c0 2.7861328 -2.258606 5.0447235 -5.044739 5.0447235l-78.85541 0c-2.7861328 0 -5.044739 -2.2585907 -5.044739 -5.0447235z" fill-rule="evenodd"/>
<path stroke="#a4c2f4" stroke-width="0.8792650918635171" stroke-linejoin="round" stroke-linecap="butt" d="m501.36688 165.35735c0 -2.7861328 2.258606 -5.0447235 5.044739 -5.0447235l78.85541 0c1.3379517 0 2.6210938 0.53149414 3.5671997 1.4775696c0.9460449 0.9460602 1.4775391 2.2292023 1.4775391 3.567154l0 20.178268c0 2.7861328 -2.258606 5.0447235 -5.044739 5.0447235l-78.85541 0c-2.7861328 0 -5.044739 -2.2585907 -5.044739 -5.0447235z" fill-rule="evenodd"/>
<path fill="#000000" d="m528.0813 179.54628q-0.6875 0.59375 -1.328125 0.84375q-0.625 0.234375 -1.359375 0.234375q-1.203125 0 -1.84375 -0.59375q-0.640625 -0.59375 -0.640625 -1.5q0 -0.53125 0.234375 -0.96875q0.25 -0.453125 0.640625 -0.71875q0.390625 -0.265625 0.890625 -0.40625q0.359375 -0.09375 1.09375 -0.1875q1.5 -0.171875 2.203125 -0.421875q0.015625 -0.25 0.015625 -0.328125q0 -0.75 -0.359375 -1.0625q-0.46875 -0.421875 -1.40625 -0.421875q-0.875 0 -1.296875 0.3125q-0.40625 0.296875 -0.609375 1.078125l-1.203125 -0.171875q0.171875 -0.765625 0.546875 -1.234375q0.375 -0.484375 1.078125 -0.734375q0.71875 -0.265625 1.671875 -0.265625q0.921875 0 1.5 0.21875q0.59375 0.21875 0.859375 0.5625q0.28125 0.328125 0.390625 0.828125q0.0625 0.3125 0.0625 1.140625l0 1.640625q0 1.734375 0.078125 2.1875q0.078125 0.453125 0.3125 0.875l-1.28125 0q-0.203125 -0.390625 -0.25 -0.90625zm-0.109375 -2.75q-0.671875 0.265625 -2.015625 0.46875q-0.765625 0.109375 -1.078125 0.25q-0.3125 0.125 -0.484375 0.390625q-0.171875 0.265625 -0.171875 0.59375q0 0.484375 0.375 0.828125q0.375 0.328125 1.09375 0.328125q0.71875 0 1.265625 -0.3125q0.5625 -0.3125 0.828125 -0.859375q0.1875 -0.421875 0.1875 -1.234375l0 -0.453125zm3.1490479 3.65625l0 -7.296875l1.125 0l0 1.109375q0.421875 -0.78125 0.78125 -1.015625q0.359375 -0.25 0.796875 -0.25q0.625 0 1.265625 0.390625l-0.421875 1.15625q-0.453125 -0.28125 -0.90625 -0.28125q-0.40625 0 -0.734375 0.25q-0.3125 0.25 -0.453125 0.671875q-0.203125 0.671875 -0.203125 1.453125l0 3.8125l-1.25 0zm4.4797974 0.609375l1.203125 0.171875q0.078125 0.5625 0.421875 0.8125q0.453125 0.34375 1.25 0.34375q0.859375 0 1.328125 -0.34375q0.46875 -0.34375 0.625 -0.96875q0.09375 -0.375 0.09375 -1.578125q-0.8125 0.953125 -2.015625 0.953125q-1.515625 0 -2.34375 -1.078125q-0.8125 -1.09375 -0.8125 -2.609375q0 -1.046875 0.375 -1.921875q0.375 -0.890625 1.09375 -1.359375q0.71875 -0.484375 1.6875 -0.484375q1.296875 0 2.125 1.046875l0 -0.890625l1.140625 0l0 6.3125q0 1.703125 -0.34375 2.40625q-0.34375 0.71875 -1.09375 1.125q-0.75 0.40625 -1.859375 0.40625q-1.296875 0 -2.109375 -0.59375q-0.796875 -0.578125 -0.765625 -1.75zm1.015625 -4.390625q0 1.4375 0.5625 2.109375q0.578125 0.65625 1.4375 0.65625q0.859375 0 1.4375 -0.65625q0.578125 -0.65625 0.578125 -2.0625q0 -1.34375 -0.609375 -2.015625q-0.59375 -0.6875 -1.421875 -0.6875q-0.828125 0 -1.40625 0.671875q-0.578125 0.671875 -0.578125 1.984375zm7.023987 3.78125l0 -7.296875l1.109375 0l0 1.03125q0.34375 -0.53125 0.90625 -0.859375q0.578125 -0.328125 1.3125 -0.328125q0.796875 0 1.3125 0.34375q0.53125 0.328125 0.734375 0.921875q0.875 -1.265625 2.265625 -1.265625q1.078125 0 1.65625 0.609375q0.59375 0.59375 0.59375 1.84375l0 5.0l-1.234375 0l0 -4.59375q0 -0.734375 -0.125 -1.0625q-0.109375 -0.328125 -0.4375 -0.53125q-0.3125 -0.203125 -0.734375 -0.203125q-0.765625 0 -1.28125 0.515625q-0.5 0.515625 -0.5 1.640625l0 4.234375l-1.234375 0l0 -4.734375q0 -0.828125 -0.3125 -1.234375q-0.296875 -0.421875 -0.984375 -0.421875q-0.515625 0 -0.96875 0.28125q-0.4375 0.265625 -0.640625 0.796875q-0.203125 0.53125 -0.203125 1.53125l0 3.78125l-1.234375 0zm16.479797 -0.90625q-0.6875 0.59375 -1.328125 0.84375q-0.625 0.234375 -1.359375 0.234375q-1.203125 0 -1.84375 -0.59375q-0.640625 -0.59375 -0.640625 -1.5q0 -0.53125 0.234375 -0.96875q0.25 -0.453125 0.640625 -0.71875q0.390625 -0.265625 0.890625 -0.40625q0.359375 -0.09375 1.09375 -0.1875q1.5 -0.171875 2.203125 -0.421875q0.015625 -0.25 0.015625 -0.328125q0 -0.75 -0.359375 -1.0625q-0.46875 -0.421875 -1.40625 -0.421875q-0.875 0 -1.296875 0.3125q-0.40625 0.296875 -0.609375 1.078125l-1.203125 -0.171875q0.171875 -0.765625 0.546875 -1.234375q0.375 -0.484375 1.078125 -0.734375q0.71875 -0.265625 1.671875 -0.265625q0.921875 0 1.5 0.21875q0.59375 0.21875 0.859375 0.5625q0.28125 0.328125 0.390625 0.828125q0.0625 0.3125 0.0625 1.140625l0 1.640625q0 1.734375 0.078125 2.1875q0.078125 0.453125 0.3125 0.875l-1.28125 0q-0.203125 -0.390625 -0.25 -0.90625zm-0.109375 -2.75q-0.671875 0.265625 -2.015625 0.46875q-0.765625 0.109375 -1.078125 0.25q-0.3125 0.125 -0.484375 0.390625q-0.171875 0.265625 -0.171875 0.59375q0 0.484375 0.375 0.828125q0.375 0.328125 1.09375 0.328125q0.71875 0 1.265625 -0.3125q0.5625 -0.3125 0.828125 -0.859375q0.1875 -0.421875 0.1875 -1.234375l0 -0.453125zm2.3521729 3.65625l2.65625 -3.796875l-2.46875 -3.5l1.546875 0l1.125 1.71875q0.3125 0.484375 0.5 0.8125q0.3125 -0.453125 0.5625 -0.796875l1.234375 -1.734375l1.46875 0l-2.515625 3.4375l2.703125 3.859375l-1.515625 0l-1.5 -2.265625l-0.390625 -0.609375l-1.921875 2.875l-1.484375 0z" fill-rule="nonzero"/>
<path fill="#cfe2f3" d="m383.37845 233.74458c0 -2.7861176 2.2585754 -5.0447235 5.0447083 -5.0447235l78.85544 0c1.3379517 0 2.6210938 0.53149414 3.5671692 1.4775696c0.9460449 0.9460602 1.4775391 2.2292175 1.4775391 3.567154l0 20.178284c0 2.7861176 -2.2585754 5.0447235 -5.0447083 5.0447235l-78.85544 0c-2.7861328 0 -5.0447083 -2.258606 -5.0447083 -5.0447235z" fill-rule="evenodd"/>
<path stroke="#a4c2f4" stroke-width="0.8792650918635171" stroke-linejoin="round" stroke-linecap="butt" d="m383.37845 233.74458c0 -2.7861176 2.2585754 -5.0447235 5.0447083 -5.0447235l78.85544 0c1.3379517 0 2.6210938 0.53149414 3.5671692 1.4775696c0.9460449 0.9460602 1.4775391 2.2292175 1.4775391 3.567154l0 20.178284c0 2.7861176 -2.2585754 5.0447235 -5.0447083 5.0447235l-78.85544 0c-2.7861328 0 -5.0447083 -2.258606 -5.0447083 -5.0447235z" fill-rule="evenodd"/>
<path fill="#000000" d="m396.32874 248.83977l0 -7.296875l1.125 0l0 1.046875q0.796875 -1.203125 2.3125 -1.203125q0.65625 0 1.203125 0.234375q0.5625 0.234375 0.828125 0.625q0.28125 0.375 0.390625 0.90625q0.078125 0.34375 0.078125 1.203125l0 4.484375l-1.25 0l0 -4.4375q0 -0.75 -0.140625 -1.125q-0.140625 -0.375 -0.515625 -0.59375q-0.359375 -0.234375 -0.859375 -0.234375q-0.78125 0 -1.359375 0.5q-0.578125 0.5 -0.578125 1.90625l0 3.984375l-1.234375 0zm12.820892 -2.34375l1.28125 0.15625q-0.3125 1.109375 -1.125 1.734375q-0.8125 0.625 -2.09375 0.625q-1.59375 0 -2.53125 -0.984375q-0.9375 -1.0 -0.9375 -2.765625q0 -1.84375 0.9375 -2.859375q0.953125 -1.015625 2.46875 -1.015625q1.46875 0 2.390625 1.0q0.921875 0.984375 0.921875 2.796875q0 0.109375 0 0.328125l-5.4375 0q0.0625 1.203125 0.671875 1.84375q0.609375 0.640625 1.53125 0.640625q0.671875 0 1.15625 -0.359375q0.484375 -0.359375 0.765625 -1.140625zm-4.0625 -2.0l4.078125 0q-0.09375 -0.921875 -0.46875 -1.390625q-0.59375 -0.703125 -1.53125 -0.703125q-0.859375 0 -1.4375 0.578125q-0.578125 0.5625 -0.640625 1.515625zm6.0708923 4.34375l2.65625 -3.796875l-2.46875 -3.5l1.546875 0l1.125 1.71875q0.3125 0.484375 0.5 0.8125q0.3125 -0.453125 0.5625 -0.796875l1.234375 -1.734375l1.46875 0l-2.515625 3.4375l2.703125 3.859375l-1.515625 0l-1.5 -2.265625l-0.390625 -0.609375l-1.921875 2.875l-1.484375 0zm10.546875 -1.109375l0.171875 1.09375q-0.515625 0.109375 -0.921875 0.109375q-0.671875 0 -1.046875 -0.203125q-0.375 -0.21875 -0.53125 -0.5625q-0.140625 -0.34375 -0.140625 -1.46875l0 -4.1875l-0.90625 0l0 -0.96875l0.90625 0l0 -1.796875l1.21875 -0.75l0 2.546875l1.25 0l0 0.96875l-1.25 0l0 4.265625q0 0.53125 0.0625 0.6875q0.078125 0.140625 0.21875 0.234375q0.15625 0.078125 0.421875 0.078125q0.203125 0 0.546875 -0.046875zm7.814026 0l0.171875 1.09375q-0.515625 0.109375 -0.921875 0.109375q-0.671875 0 -1.046875 -0.203125q-0.375 -0.21875 -0.53125 -0.5625q-0.140625 -0.34375 -0.140625 -1.46875l0 -4.1875l-0.90625 0l0 -0.96875l0.90625 0l0 -1.796875l1.21875 -0.75l0 2.546875l1.25 0l0 0.96875l-1.25 0l0 4.265625q0 0.53125 0.0625 0.6875q0.078125 0.140625 0.21875 0.234375q0.15625 0.078125 0.421875 0.078125q0.203125 0 0.546875 -0.046875zm0.75076294 -2.53125q0 -2.03125 1.125 -3.0q0.9375 -0.8125 2.296875 -0.8125q1.5 0 2.453125 0.984375q0.953125 0.984375 0.953125 2.71875q0 1.40625 -0.421875 2.21875q-0.421875 0.796875 -1.234375 1.25q-0.796875 0.453125 -1.75 0.453125q-1.53125 0 -2.484375 -0.984375q-0.9375 -0.984375 -0.9375 -2.828125zm1.265625 0q0 1.390625 0.609375 2.09375q0.609375 0.703125 1.546875 0.703125q0.921875 0 1.53125 -0.703125q0.609375 -0.703125 0.609375 -2.140625q0 -1.359375 -0.625 -2.046875q-0.609375 -0.703125 -1.515625 -0.703125q-0.9375 0 -1.546875 0.703125q-0.609375 0.6875 -0.609375 2.09375zm7.0240173 3.640625l0 -10.0625l1.234375 0l0 5.734375l2.921875 -2.96875l1.59375 0l-2.78125 2.703125l3.0625 4.59375l-1.515625 0l-2.40625 -3.734375l-0.875 0.84375l0 2.890625l-1.234375 0zm12.015625 -2.34375l1.28125 0.15625q-0.3125 1.109375 -1.125 1.734375q-0.8125 0.625 -2.09375 0.625q-1.59375 0 -2.53125 -0.984375q-0.9375 -1.0 -0.9375 -2.765625q0 -1.84375 0.9375 -2.859375q0.953125 -1.015625 2.46875 -1.015625q1.46875 0 2.390625 1.0q0.921875 0.984375 0.921875 2.796875q0 0.109375 0 0.328125l-5.4375 0q0.0625 1.203125 0.671875 1.84375q0.609375 0.640625 1.53125 0.640625q0.671875 0 1.15625 -0.359375q0.484375 -0.359375 0.765625 -1.140625zm-4.0625 -2.0l4.078125 0q-0.09375 -0.921875 -0.46875 -1.390625q-0.59375 -0.703125 -1.53125 -0.703125q-0.859375 0 -1.4375 0.578125q-0.578125 0.5625 -0.640625 1.515625zm6.8833923 4.34375l0 -7.296875l1.125 0l0 1.046875q0.796875 -1.203125 2.3125 -1.203125q0.65625 0 1.203125 0.234375q0.5625 0.234375 0.828125 0.625q0.28125 0.375 0.390625 0.90625q0.078125 0.34375 0.078125 1.203125l0 4.484375l-1.25 0l0 -4.4375q0 -0.75 -0.140625 -1.125q-0.140625 -0.375 -0.515625 -0.59375q-0.359375 -0.234375 -0.859375 -0.234375q-0.78125 0 -1.359375 0.5q-0.578125 0.5 -0.578125 1.90625l0 3.984375l-1.234375 0z" fill-rule="nonzero"/>
<path fill="#000000" fill-opacity="0.0" d="m113.544044 44.673035l33.700783 0" fill-rule="evenodd"/>
<path stroke="#ffffff" stroke-width="0.8792650918635171" stroke-linejoin="round" stroke-linecap="butt" d="m113.544044 44.673035l28.425194 0" fill-rule="evenodd"/>
<path fill="#ffffff" stroke="#ffffff" stroke-width="0.8792650918635171" stroke-linecap="butt" d="m141.96924 46.125343l3.9901886 -1.4523087l-3.9901886 -1.4523125z" fill-rule="evenodd"/>
<path fill="#000000" fill-opacity="0.0" d="m228.41916 44.673035l33.700806 0" fill-rule="evenodd"/>
<path stroke="#ffffff" stroke-width="0.8792650918635171" stroke-linejoin="round" stroke-linecap="butt" d="m228.41917 44.673035l28.425186 0" fill-rule="evenodd"/>
<path fill="#ffffff" stroke="#ffffff" stroke-width="0.8792650918635171" stroke-linecap="butt" d="m256.84436 46.125343l3.9902039 -1.4523087l-3.9902039 -1.4523125z" fill-rule="evenodd"/>
<path fill="#000000" fill-opacity="0.0" d="m302.7116 59.806892l0 35.181107" fill-rule="evenodd"/>
<path stroke="#ffffff" stroke-width="0.8792650918635171" stroke-linejoin="round" stroke-linecap="butt" d="m302.7116 59.806892l0 29.90551" fill-rule="evenodd"/>
<path fill="#ffffff" stroke="#ffffff" stroke-width="0.8792650918635171" stroke-linecap="butt" d="m301.2593 89.7124l1.452301 3.9901886l1.452301 -3.9901886z" fill-rule="evenodd"/>
<path fill="#000000" fill-opacity="0.0" d="m362.29764 110.11524l31.968506 0" fill-rule="evenodd"/>
<path stroke="#ffffff" stroke-width="0.8792650918635171" stroke-linejoin="round" stroke-linecap="butt" d="m362.29767 110.11524l26.692902 0" fill-rule="evenodd"/>
<path fill="#ffffff" stroke="#ffffff" stroke-width="0.8792650918635171" stroke-linecap="butt" d="m388.99057 111.56755l3.9901733 -1.4523087l-3.9901733 -1.4523163z" fill-rule="evenodd"/>
<path fill="#000000" fill-opacity="0.0" d="m475.44165 110.11524c35.19684 0 70.39368 25.102364 70.39368 50.20472" fill-rule="evenodd"/>
<path stroke="#ffffff" stroke-width="0.8792650918635171" stroke-linejoin="round" stroke-linecap="butt" d="m475.44165 110.11524c17.59842 0 35.19684 6.275589 48.39569 15.688972c6.599365 4.7066956 12.098877 10.19783 15.948547 16.081207c1.9248047 2.941681 3.4371948 5.981415 4.4683228 9.07019c0.2578125 0.7721863 0.48553467 1.5474396 0.6821289 2.324997c0.09820557 0.3887787 0.1887207 0.77812195 0.27130127 1.1679535c0.0413208 0.19491577 0.08062744 0.3899536 0.11791992 0.58509827l0.006286621 0.03479004" fill-rule="evenodd"/>
<path fill="#ffffff" stroke="#ffffff" stroke-width="0.8792650918635171" stroke-linecap="butt" d="m543.88617 155.20706l1.826477 3.833374l1.0648804 -4.1105804z" fill-rule="evenodd"/>
<path fill="#000000" fill-opacity="0.0" d="m545.83936 190.58034c0 26.629929 -36.75592 53.259842 -73.51184 53.259842" fill-rule="evenodd"/>
<path stroke="#ffffff" stroke-width="0.8792650918635171" stroke-linejoin="round" stroke-linecap="butt" d="m545.8393 190.58034c0 13.314957 -9.188965 26.629929 -22.972412 36.61615c-6.8917236 4.993103 -14.932098 9.154022 -23.546753 12.066681c-4.3073425 1.4563141 -8.75824 2.6005707 -13.280914 3.3807373c-2.261383 0.39009094 -4.54068 0.6891632 -6.828949 0.8907013c-0.28601074 0.02520752 -0.5722351 0.0488739 -0.8585205 0.070999146l-0.751709 0.05404663" fill-rule="evenodd"/>
<path fill="#ffffff" stroke="#ffffff" stroke-width="0.8792650918635171" stroke-linecap="butt" d="m477.55032 242.20819l-3.9381714 1.5880127l4.037567 1.3149109z" fill-rule="evenodd"/>
<path fill="#000000" fill-opacity="0.0" d="m383.37845 243.83372c-40.33072 0 -80.66144 -59.291336 -80.66144 -118.58268" fill-rule="evenodd"/>
<path stroke="#ffffff" stroke-width="0.8792650918635171" stroke-linejoin="round" stroke-linecap="butt" d="m383.37845 243.83372c-20.165344 0 -40.33072 -14.82283 -55.454742 -37.057083c-7.561981 -11.117126 -13.863678 -24.087112 -18.274841 -37.98352c-2.205597 -6.9481964 -3.9385376 -14.128006 -5.120117 -21.42363c-0.5907898 -3.647812 -1.0437012 -7.3245697 -1.348938 -11.015793c-0.15261841 -1.8456268 -0.26831055 -3.6948547 -0.3458557 -5.5458984l-0.010345459 -0.28224182" fill-rule="evenodd"/>
<path fill="#ffffff" stroke="#ffffff" stroke-width="0.8792650918635171" stroke-linecap="butt" d="m304.2756 130.49623l-1.5326233 -3.9600449l-1.3713989 4.018715z" fill-rule="evenodd"/>
<path fill="#000000" fill-opacity="0.0" d="m256.93848 164.74162l119.18112 0l0 35.2126l-119.18112 0z" fill-rule="evenodd"/>
<path fill="#ffffff" d="m270.62598 185.34142q-0.6875 0.59375 -1.328125 0.84375q-0.625 0.234375 -1.359375 0.234375q-1.203125 0 -1.84375 -0.59375q-0.640625 -0.59375 -0.640625 -1.5q0 -0.53125 0.234375 -0.96875q0.25 -0.453125 0.640625 -0.71875q0.390625 -0.265625 0.890625 -0.40625q0.359375 -0.09375 1.09375 -0.1875q1.5 -0.171875 2.203125 -0.421875q0.015625 -0.25 0.015625 -0.328125q0 -0.75 -0.359375 -1.0625q-0.46875 -0.421875 -1.40625 -0.421875q-0.875 0 -1.296875 0.3125q-0.40625 0.296875 -0.609375 1.078125l-1.203125 -0.171875q0.171875 -0.765625 0.546875 -1.234375q0.375 -0.484375 1.078125 -0.734375q0.71875 -0.265625 1.671875 -0.265625q0.921875 0 1.5 0.21875q0.59375 0.21875 0.859375 0.5625q0.28125 0.328125 0.390625 0.828125q0.0625 0.3125 0.0625 1.140625l0 1.640625q0 1.734375 0.078125 2.1875q0.078125 0.453125 0.3125 0.875l-1.28125 0q-0.203125 -0.390625 -0.25 -0.90625zm-0.109375 -2.75q-0.671875 0.265625 -2.015625 0.46875q-0.765625 0.109375 -1.078125 0.25q-0.3125 0.125 -0.484375 0.390625q-0.171875 0.265625 -0.171875 0.59375q0 0.484375 0.375 0.828125q0.375 0.328125 1.09375 0.328125q0.71875 0 1.265625 -0.3125q0.5625 -0.3125 0.828125 -0.859375q0.1875 -0.421875 0.1875 -1.234375l0 -0.453125zm3.1646423 6.453125l0 -10.09375l1.125 0l0 0.953125q0.40625 -0.5625 0.90625 -0.828125q0.5 -0.28125 1.21875 -0.28125q0.9375 0 1.640625 0.484375q0.71875 0.46875 1.078125 1.34375q0.375 0.875 0.375 1.921875q0 1.125 -0.40625 2.015625q-0.40625 0.890625 -1.171875 1.375q-0.765625 0.484375 -1.609375 0.484375q-0.625 0 -1.109375 -0.265625q-0.484375 -0.265625 -0.8125 -0.65625l0 3.546875l-1.234375 0zm1.125 -6.40625q0 1.40625 0.5625 2.09375q0.578125 0.671875 1.390625 0.671875q0.8125 0 1.40625 -0.703125q0.59375 -0.703125 0.59375 -2.15625q0 -1.40625 -0.578125 -2.09375q-0.578125 -0.6875 -1.375 -0.6875q-0.78125 0 -1.390625 0.734375q-0.609375 0.734375 -0.609375 2.140625zm6.6958923 6.40625l0 -10.09375l1.125 0l0 0.953125q0.40625 -0.5625 0.90625 -0.828125q0.5 -0.28125 1.21875 -0.28125q0.9375 0 1.640625 0.484375q0.71875 0.46875 1.078125 1.34375q0.375 0.875 0.375 1.921875q0 1.125 -0.40625 2.015625q-0.40625 0.890625 -1.171875 1.375q-0.765625 0.484375 -1.609375 0.484375q-0.625 0 -1.109375 -0.265625q-0.484375 -0.265625 -0.8125 -0.65625l0 3.546875l-1.234375 0zm1.125 -6.40625q0 1.40625 0.5625 2.09375q0.578125 0.671875 1.390625 0.671875q0.8125 0 1.40625 -0.703125q0.59375 -0.703125 0.59375 -2.15625q0 -1.40625 -0.578125 -2.09375q-0.578125 -0.6875 -1.375 -0.6875q-0.78125 0 -1.390625 0.734375q-0.609375 0.734375 -0.609375 2.140625zm11.695892 1.265625l1.28125 0.15625q-0.3125 1.109375 -1.125 1.734375q-0.8125 0.625 -2.09375 0.625q-1.59375 0 -2.53125 -0.984375q-0.9375 -1.0 -0.9375 -2.765625q0 -1.84375 0.9375 -2.859375q0.953125 -1.015625 2.46875 -1.015625q1.46875 0 2.390625 1.0q0.921875 0.984375 0.921875 2.796875q0 0.109375 0 0.328125l-5.4375 0q0.0625 1.203125 0.671875 1.84375q0.609375 0.640625 1.53125 0.640625q0.671875 0 1.15625 -0.359375q0.484375 -0.359375 0.765625 -1.140625zm-4.0625 -2.0l4.078125 0q-0.09375 -0.921875 -0.46875 -1.390625q-0.59375 -0.703125 -1.53125 -0.703125q-0.859375 0 -1.4375 0.578125q-0.578125 0.5625 -0.640625 1.515625zm6.8833923 4.34375l0 -7.296875l1.125 0l0 1.046875q0.796875 -1.203125 2.3125 -1.203125q0.65625 0 1.203125 0.234375q0.5625 0.234375 0.828125 0.625q0.28125 0.375 0.390625 0.90625q0.078125 0.34375 0.078125 1.203125l0 4.484375l-1.25 0l0 -4.4375q0 -0.75 -0.140625 -1.125q-0.140625 -0.375 -0.515625 -0.59375q-0.359375 -0.234375 -0.859375 -0.234375q-0.78125 0 -1.359375 0.5q-0.578125 0.5 -0.578125 1.90625l0 3.984375l-1.234375 0zm12.555267 0l0 -0.921875q-0.6875 1.09375 -2.03125 1.09375q-0.875 0 -1.609375 -0.484375q-0.734375 -0.484375 -1.140625 -1.34375q-0.390625 -0.859375 -0.390625 -1.984375q0 -1.09375 0.359375 -1.984375q0.359375 -0.890625 1.09375 -1.359375q0.734375 -0.46875 1.625 -0.46875q0.65625 0 1.171875 0.28125q0.515625 0.265625 0.84375 0.71875l0 -3.609375l1.21875 0l0 10.0625l-1.140625 0zm-3.90625 -3.640625q0 1.40625 0.59375 2.109375q0.59375 0.6875 1.390625 0.6875q0.8125 0 1.375 -0.65625q0.5625 -0.671875 0.5625 -2.03125q0 -1.5 -0.578125 -2.203125q-0.5625 -0.703125 -1.40625 -0.703125q-0.828125 0 -1.390625 0.671875q-0.546875 0.671875 -0.546875 2.125zm7.3208923 3.640625l0 -1.40625l1.40625 0l0 1.40625q0 0.78125 -0.28125 1.25q-0.265625 0.484375 -0.859375 0.734375l-0.34375 -0.515625q0.390625 -0.171875 0.5625 -0.515625q0.1875 -0.328125 0.21875 -0.953125l-0.703125 0zm7.470276 0l0 -7.296875l1.125 0l0 1.109375q0.421875 -0.78125 0.78125 -1.015625q0.359375 -0.25 0.796875 -0.25q0.625 0 1.265625 0.390625l-0.421875 1.15625q-0.453125 -0.28125 -0.90625 -0.28125q-0.40625 0 -0.734375 0.25q-0.3125 0.25 -0.453125 0.671875q-0.203125 0.671875 -0.203125 1.453125l0 3.8125l-1.25 0zm9.698547 -2.34375l1.28125 0.15625q-0.3125 1.109375 -1.125 1.734375q-0.8125 0.625 -2.09375 0.625q-1.59375 0 -2.53125 -0.984375q-0.9375 -1.0 -0.9375 -2.765625q0 -1.84375 0.9375 -2.859375q0.953125 -1.015625 2.46875 -1.015625q1.46875 0 2.390625 1.0q0.921875 0.984375 0.921875 2.796875q0 0.109375 0 0.328125l-5.4375 0q0.0625 1.203125 0.671875 1.84375q0.609375 0.640625 1.53125 0.640625q0.671875 0 1.15625 -0.359375q0.484375 -0.359375 0.765625 -1.140625zm-4.0625 -2.0l4.078125 0q-0.09375 -0.921875 -0.46875 -1.390625q-0.59375 -0.703125 -1.53125 -0.703125q-0.859375 0 -1.4375 0.578125q-0.578125 0.5625 -0.640625 1.515625zm6.8833923 7.140625l0 -10.09375l1.125 0l0 0.953125q0.40625 -0.5625 0.90625 -0.828125q0.5 -0.28125 1.21875 -0.28125q0.9375 0 1.640625 0.484375q0.71875 0.46875 1.078125 1.34375q0.375 0.875 0.375 1.921875q0 1.125 -0.40625 2.015625q-0.40625 0.890625 -1.171875 1.375q-0.765625 0.484375 -1.609375 0.484375q-0.625 0 -1.109375 -0.265625q-0.484375 -0.265625 -0.8125 -0.65625l0 3.546875l-1.234375 0zm1.125 -6.40625q0 1.40625 0.5625 2.09375q0.578125 0.671875 1.390625 0.671875q0.8125 0 1.40625 -0.703125q0.59375 -0.703125 0.59375 -2.15625q0 -1.40625 -0.578125 -2.09375q-0.578125 -0.6875 -1.375 -0.6875q-0.78125 0 -1.390625 0.734375q-0.609375 0.734375 -0.609375 2.140625zm11.695892 1.265625l1.28125 0.15625q-0.3125 1.109375 -1.125 1.734375q-0.8125 0.625 -2.09375 0.625q-1.59375 0 -2.53125 -0.984375q-0.9375 -1.0 -0.9375 -2.765625q0 -1.84375 0.9375 -2.859375q0.953125 -1.015625 2.46875 -1.015625q1.46875 0 2.390625 1.0q0.921875 0.984375 0.921875 2.796875q0 0.109375 0 0.328125l-5.4375 0q0.0625 1.203125 0.671875 1.84375q0.609375 0.640625 1.53125 0.640625q0.671875 0 1.15625 -0.359375q0.484375 -0.359375 0.765625 -1.140625zm-4.0625 -2.0l4.078125 0q-0.09375 -0.921875 -0.46875 -1.390625q-0.59375 -0.703125 -1.53125 -0.703125q-0.859375 0 -1.4375 0.578125q-0.578125 0.5625 -0.640625 1.515625zm11.649017 3.4375q-0.6875 0.59375 -1.328125 0.84375q-0.625 0.234375 -1.359375 0.234375q-1.203125 0 -1.84375 -0.59375q-0.640625 -0.59375 -0.640625 -1.5q0 -0.53125 0.234375 -0.96875q0.25 -0.453125 0.640625 -0.71875q0.390625 -0.265625 0.890625 -0.40625q0.359375 -0.09375 1.09375 -0.1875q1.5 -0.171875 2.203125 -0.421875q0.015625 -0.25 0.015625 -0.328125q0 -0.75 -0.359375 -1.0625q-0.46875 -0.421875 -1.40625 -0.421875q-0.875 0 -1.296875 0.3125q-0.40625 0.296875 -0.609375 1.078125l-1.203125 -0.171875q0.171875 -0.765625 0.546875 -1.234375q0.375 -0.484375 1.078125 -0.734375q0.71875 -0.265625 1.671875 -0.265625q0.921875 0 1.5 0.21875q0.59375 0.21875 0.859375 0.5625q0.28125 0.328125 0.390625 0.828125q0.0625 0.3125 0.0625 1.140625l0 1.640625q0 1.734375 0.078125 2.1875q0.078125 0.453125 0.3125 0.875l-1.28125 0q-0.203125 -0.390625 -0.25 -0.90625zm-0.109375 -2.75q-0.671875 0.265625 -2.015625 0.46875q-0.765625 0.109375 -1.078125 0.25q-0.3125 0.125 -0.484375 0.390625q-0.171875 0.265625 -0.171875 0.59375q0 0.484375 0.375 0.828125q0.375 0.328125 1.09375 0.328125q0.71875 0 1.265625 -0.3125q0.5625 -0.3125 0.828125 -0.859375q0.1875 -0.421875 0.1875 -1.234375l0 -0.453125zm5.8677673 2.546875l0.171875 1.09375q-0.515625 0.109375 -0.921875 0.109375q-0.671875 0 -1.046875 -0.203125q-0.375 -0.21875 -0.53125 -0.5625q-0.140625 -0.34375 -0.140625 -1.46875l0 -4.1875l-0.90625 0l0 -0.96875l0.90625 0l0 -1.796875l1.21875 -0.75l0 2.546875l1.25 0l0 0.96875l-1.25 0l0 4.265625q0 0.53125 0.0625 0.6875q0.078125 0.140625 0.21875 0.234375q0.15625 0.078125 0.421875 0.078125q0.203125 0 0.546875 -0.046875z" fill-rule="nonzero"/>
</svg>