<svg xmlns="http://www.w3.org/2000/svg" viewBox="0 0 760 400" font-family="Helvetica, Arial, sans-serif">
  <rect width="760" height="400" fill="#ffffff"/>
  <rect x="82.0" y="64.0" width="618.0" height="258.0" fill="#eef3ee"/>
  <text x="88.0" y="78.0" font-size="10" fill="#5f8a66">conversational zone (&lt; 1 s)</text>
  <line x1="82.0" y1="322.0" x2="700.0" y2="322.0" stroke="#555b61" stroke-width="1"/>
  <line x1="82.0" y1="322.0" x2="82.0" y2="64.0" stroke="#555b61" stroke-width="1"/>
  <line x1="82.0" y1="257.5" x2="700.0" y2="257.5" stroke="#e6e8eb" stroke-width="1"/>
  <text x="74.0" y="260.5" font-size="10" fill="#555b61" text-anchor="end">0.25 s</text>
  <line x1="82.0" y1="193.0" x2="700.0" y2="193.0" stroke="#e6e8eb" stroke-width="1"/>
  <text x="74.0" y="196.0" font-size="10" fill="#555b61" text-anchor="end">0.50 s</text>
  <line x1="82.0" y1="128.5" x2="700.0" y2="128.5" stroke="#e6e8eb" stroke-width="1"/>
  <text x="74.0" y="131.5" font-size="10" fill="#555b61" text-anchor="end">0.75 s</text>
  <line x1="82.0" y1="64.0" x2="700.0" y2="64.0" stroke="#e6e8eb" stroke-width="1"/>
  <text x="74.0" y="67.0" font-size="10" fill="#555b61" text-anchor="end">1.00 s</text>
  <line x1="82.0" y1="322.0" x2="82.0" y2="326.0" stroke="#555b61" stroke-width="1"/>
  <text x="82.0" y="338.0" font-size="10" fill="#555b61" text-anchor="middle">0</text>
  <line x1="236.5" y1="322.0" x2="236.5" y2="326.0" stroke="#555b61" stroke-width="1"/>
  <text x="236.5" y="338.0" font-size="10" fill="#555b61" text-anchor="middle">2k</text>
  <line x1="391.0" y1="322.0" x2="391.0" y2="326.0" stroke="#555b61" stroke-width="1"/>
  <text x="391.0" y="338.0" font-size="10" fill="#555b61" text-anchor="middle">4k</text>
  <line x1="545.5" y1="322.0" x2="545.5" y2="326.0" stroke="#555b61" stroke-width="1"/>
  <text x="545.5" y="338.0" font-size="10" fill="#555b61" text-anchor="middle">6k</text>
  <line x1="700.0" y1="322.0" x2="700.0" y2="326.0" stroke="#555b61" stroke-width="1"/>
  <text x="700.0" y="338.0" font-size="10" fill="#555b61" text-anchor="middle">8k</text>
  <text x="391.0" y="356.0" font-size="11" fill="#1f2328" text-anchor="middle">conversation depth (context tokens; one turn ≈ 178)</text>
  <text x="20" y="193.0" font-size="11" fill="#1f2328" text-anchor="middle" transform="rotate(-90 20 193.0)">seconds after end of speech</text>
  <line x1="659.4" y1="322.0" x2="659.4" y2="100.1" stroke="#9aa0a6" stroke-width="1.5" stroke-dasharray="4 3"/>
  <text x="655.4" y="89.8" font-size="10" fill="#555b61" text-anchor="end">context full · 42 turns</text>
  <polyline fill="none" stroke="#3e6fbf" stroke-width="2.5" points="82.0,194.8 95.7,187.3 109.4,179.8 123.2,177.0 136.9,174.7 150.7,176.2 164.4,174.4 178.2,172.6 191.9,170.8 205.7,169.0 219.4,167.2 233.2,168.2 246.9,166.7 260.7,165.1 274.4,163.6 288.2,162.6 301.9,160.8 315.7,161.8 329.4,160.0 343.2,158.4 356.9,157.1 370.7,155.6 384.4,154.6 398.2,148.6 411.9,147.3 425.7,145.5 439.4,144.2 453.2,142.4 466.9,143.5 480.7,136.5 494.4,140.4 508.2,139.1 521.9,138.0 535.7,136.0 549.4,136.5 563.2,135.2 576.9,133.7 590.7,132.4 604.4,130.8 618.2,129.5 631.9,129.8 645.7,128.8"/>
  <polyline fill="none" stroke="#c47a3d" stroke-width="2" points="82.0,258.5 95.7,254.7 109.4,250.3 123.2,248.2 136.9,246.9 150.7,246.4 164.4,245.1 178.2,244.1 191.9,242.8 205.7,241.8 219.4,240.5 233.2,240.0 246.9,238.7 260.7,237.6 274.4,236.3 288.2,235.6 301.9,234.3 315.7,234.0 329.4,232.5 343.2,231.2 356.9,230.2 370.7,228.9 384.4,227.8 398.2,226.0 411.9,225.0 425.7,223.7 439.4,222.7 453.2,221.4 466.9,220.9 480.7,214.4 494.4,218.5 508.2,217.5 521.9,217.0 535.7,215.2 549.4,214.4 563.2,213.4 576.9,212.1 590.7,211.1 604.4,209.8 618.2,209.0 631.9,208.0 645.7,206.9"/>
  <circle cx="82.0" cy="194.8" r="3.5" fill="#3e6fbf"/>
  <circle cx="82.0" cy="258.5" r="3.5" fill="#c47a3d"/>
  <circle cx="178.2" cy="172.6" r="3.5" fill="#3e6fbf"/>
  <circle cx="178.2" cy="244.1" r="3.5" fill="#c47a3d"/>
  <circle cx="274.4" cy="163.6" r="3.5" fill="#3e6fbf"/>
  <circle cx="274.4" cy="236.3" r="3.5" fill="#c47a3d"/>
  <circle cx="370.7" cy="155.6" r="3.5" fill="#3e6fbf"/>
  <circle cx="370.7" cy="228.9" r="3.5" fill="#c47a3d"/>
  <circle cx="466.9" cy="143.5" r="3.5" fill="#3e6fbf"/>
  <circle cx="466.9" cy="220.9" r="3.5" fill="#c47a3d"/>
  <circle cx="563.2" cy="135.2" r="3.5" fill="#3e6fbf"/>
  <circle cx="563.2" cy="213.4" r="3.5" fill="#c47a3d"/>
  <circle cx="645.7" cy="128.8" r="3.5" fill="#3e6fbf"/>
  <circle cx="645.7" cy="206.9" r="3.5" fill="#c47a3d"/>
  <text x="639.7" y="122.8" font-size="10" fill="#3e6fbf" text-anchor="end">0.75 s</text>
  <text x="639.7" y="200.9" font-size="10" fill="#c47a3d" text-anchor="end">0.45 s</text>
  <rect x="90.0" y="89.8" width="16" height="3" fill="#3e6fbf"/>
  <text x="112.0" y="93.8" font-size="11" fill="#1f2328">first audio (TTFB) = TTFS + 0.10 s streaming vocoder</text>
  <rect x="90.0" y="110.4" width="16" height="3" fill="#c47a3d"/>
  <text x="112.0" y="114.4" font-size="11" fill="#1f2328">TTFT (first token)</text>
  <text x="380.0" y="26" font-size="13" font-weight="bold" fill="#1f2328" text-anchor="middle">Session aging: responsiveness as one conversation fills the 8K window — E2B QAT, one Orin NX</text>
  <text x="380.0" y="392.0" font-size="10" fill="#555b61" text-anchor="middle">Plain serve, pinned clocks. TTFT 0.25→0.45 s and first audio 0.49→0.75 s across a full session — both stay inside the conversational band. Decode 39.6→28.6 tok/s.</text>
</svg>