<svg xmlns="http://www.w3.org/2000/svg" viewBox="0 0 760 235" font-family="Helvetica, Arial, sans-serif">
  <!-- Figure 3: three tiers vs production voice-AI latency bands.
       x(t) = 60 + t*165 px (axis 0..4 s). Bands per hamming.ai telemetry. -->
  <rect width="760" height="235" fill="#ffffff"/>

  <!-- latency bands -->
  <rect x="60" y="52" width="165" height="118" fill="#eaf1ea"/>
  <rect x="291" y="52" width="49.5" height="118" fill="#e6e8eb"/>
  <rect x="555" y="52" width="175" height="118" fill="#dcdfe3"/>
  <g font-size="10" fill="#555b61" text-anchor="middle">
    <text x="142" y="46">&lt; 1 s — natural conversation</text>
    <text x="316" y="46">1.4–1.7 s median</text>
    <text x="642" y="46">3–5 s — P90, talk-overs →</text>
  </g>

  <!-- tier rows: lollipops -->
  <g font-size="12" fill="#1f2328">
    <text x="52" y="79" text-anchor="end" font-weight="bold">12B</text>
    <line x1="60" y1="75" x2="654" y2="75" stroke="#8a9099" stroke-width="2"/>
    <circle cx="654" cy="75" r="6" fill="#8a9099"/>
    <text x="642" y="70" font-size="11" text-anchor="end" fill="#555b61">≈3.6 s (est.) — the strongest answers</text>

    <text x="52" y="114" text-anchor="end" font-weight="bold">E4B</text>
    <line x1="60" y1="110" x2="307.5" y2="110" stroke="#8a9099" stroke-width="2"/>
    <circle cx="307.5" cy="110" r="6" fill="#8a9099"/>
    <text x="322" y="114" font-size="11" fill="#555b61">≈1.5 s (est.) — at the industry median</text>

    <text x="52" y="149" text-anchor="end" font-weight="bold">E2B</text>
    <line x1="60" y1="145" x2="195.3" y2="145" stroke="#3e6fbf" stroke-width="3"/>
    <circle cx="195.3" cy="145" r="7" fill="#3e6fbf"/>
    <text x="210" y="149" font-size="11" font-weight="bold" fill="#3e6fbf">0.82 s measured — inside the natural window</text>
  </g>

  <!-- axis -->
  <line x1="60" y1="170" x2="730" y2="170" stroke="#555b61" stroke-width="1"/>
  <g stroke="#555b61" stroke-width="1">
    <line x1="60" y1="170" x2="60" y2="175"/><line x1="225" y1="170" x2="225" y2="175"/>
    <line x1="390" y1="170" x2="390" y2="175"/><line x1="555" y1="170" x2="555" y2="175"/>
    <line x1="720" y1="170" x2="720" y2="175"/>
  </g>
  <g font-size="10" fill="#555b61" text-anchor="middle">
    <text x="60" y="188">0</text><text x="225" y="188">1</text><text x="390" y="188">2</text>
    <text x="555" y="188">3</text><text x="720" y="188">4 s</text>
  </g>
  <text x="380" y="185" font-size="10" fill="#555b61" text-anchor="middle" opacity="0">.</text>

  <text x="380" y="215" font-size="12" fill="#1f2328" text-anchor="middle">Time from end of speech to first audio, Jetson Orin NX 16GB. E2B QAT measured end-to-end;</text>
  <text x="380" y="229" font-size="12" fill="#1f2328" text-anchor="middle">E4B/12B estimated as measured TTFS + first-clause synthesis. Bands: production telemetry (hamming.ai).</text>
</svg>
