<svg xmlns="http://www.w3.org/2000/svg" viewBox="0 0 760 400" font-family="Helvetica, Arial, sans-serif">
  <rect width="760" height="400" fill="#ffffff"/>
  <rect x="70.0" y="268.9" width="635.0" height="61.1" fill="#eef3ee"/>
  <text x="76.0" y="262.9" font-size="10" fill="#5f8a66">conversational zone (&lt; 1 s)</text>
  <line x1="70.0" y1="330.0" x2="705.0" y2="330.0" stroke="#555b61" stroke-width="1"/>
  <line x1="70.0" y1="330.0" x2="70.0" y2="55.0" stroke="#555b61" stroke-width="1"/>
  <line x1="70.0" y1="268.9" x2="705.0" y2="268.9" stroke="#e6e8eb" stroke-width="1"/>
  <text x="62.0" y="271.9" font-size="10" fill="#555b61" text-anchor="end">1 s</text>
  <line x1="70.0" y1="207.8" x2="705.0" y2="207.8" stroke="#e6e8eb" stroke-width="1"/>
  <text x="62.0" y="210.8" font-size="10" fill="#555b61" text-anchor="end">2 s</text>
  <line x1="70.0" y1="146.7" x2="705.0" y2="146.7" stroke="#e6e8eb" stroke-width="1"/>
  <text x="62.0" y="149.7" font-size="10" fill="#555b61" text-anchor="end">3 s</text>
  <line x1="70.0" y1="85.6" x2="705.0" y2="85.6" stroke="#e6e8eb" stroke-width="1"/>
  <text x="62.0" y="88.6" font-size="10" fill="#555b61" text-anchor="end">4 s</text>
  <line x1="166.2" y1="330.0" x2="166.2" y2="334.0" stroke="#555b61" stroke-width="1"/>
  <text x="166.2" y="346.0" font-size="10" fill="#555b61" text-anchor="middle">5</text>
  <line x1="262.4" y1="330.0" x2="262.4" y2="334.0" stroke="#555b61" stroke-width="1"/>
  <text x="262.4" y="346.0" font-size="10" fill="#555b61" text-anchor="middle">10</text>
  <line x1="358.6" y1="330.0" x2="358.6" y2="334.0" stroke="#555b61" stroke-width="1"/>
  <text x="358.6" y="346.0" font-size="10" fill="#555b61" text-anchor="middle">15</text>
  <line x1="454.8" y1="330.0" x2="454.8" y2="334.0" stroke="#555b61" stroke-width="1"/>
  <text x="454.8" y="346.0" font-size="10" fill="#555b61" text-anchor="middle">20</text>
  <line x1="551.1" y1="330.0" x2="551.1" y2="334.0" stroke="#555b61" stroke-width="1"/>
  <text x="551.1" y="346.0" font-size="10" fill="#555b61" text-anchor="middle">25</text>
  <line x1="647.3" y1="330.0" x2="647.3" y2="334.0" stroke="#555b61" stroke-width="1"/>
  <text x="647.3" y="346.0" font-size="10" fill="#555b61" text-anchor="middle">30</text>
  <text x="387.5" y="364.0" font-size="11" fill="#1f2328" text-anchor="middle">length of spoken prompt (seconds)</text>
  <text x="18" y="192.5" font-size="11" fill="#1f2328" text-anchor="middle" transform="rotate(-90 18 192.5)">time to first audio (TTFB)</text>
  <line x1="89.2" y1="257.3" x2="705.0" y2="74.3" stroke="#c47a3d" stroke-width="2"/>
  <circle cx="143.9" cy="229.4" r="4" fill="#c47a3d"/>
  <circle cx="297.6" cy="206.2" r="4" fill="#c47a3d"/>
  <circle cx="329.2" cy="196.0" r="4" fill="#c47a3d"/>
  <circle cx="421.4" cy="170.2" r="4" fill="#c47a3d"/>
  <circle cx="529.3" cy="97.4" r="4" fill="#c47a3d"/>
  <circle cx="688.1" cy="87.4" r="4" fill="#c47a3d"/>
  <text x="688.1" y="103.4" font-size="10" fill="#a5632c" text-anchor="middle">4.0 s</text>
  <text x="368.3" y="212.0" font-size="11" fill="#a5632c" font-weight="bold">HuggingFace speech-to-speech</text>
  <text x="368.3" y="225.0" font-size="10" fill="#a5632c">perfect-VAD floor — the serial ASR pass sets the slope</text>
  <line x1="70.0" y1="268.9" x2="705.0" y2="268.9" stroke="#3e6fbf" stroke-width="1.5" stroke-dasharray="5 3"/>
  <text x="705.0" y="262.9" font-size="10" fill="#3e6fbf" text-anchor="end">live mic, + streaming-ASR commit  ≈ 1.0 s</text>
  <line x1="70.0" y1="290.3" x2="705.0" y2="290.3" stroke="#3e6fbf" stroke-width="2.5"/>
  <circle cx="143.9" cy="290.3" r="4" fill="#3e6fbf"/>
  <circle cx="297.6" cy="290.3" r="4" fill="#3e6fbf"/>
  <circle cx="329.2" cy="290.3" r="4" fill="#3e6fbf"/>
  <circle cx="421.4" cy="290.3" r="4" fill="#3e6fbf"/>
  <circle cx="529.3" cy="290.3" r="4" fill="#3e6fbf"/>
  <circle cx="688.1" cy="290.3" r="4" fill="#3e6fbf"/>
  <text x="77.7" y="307.3" font-size="11" fill="#3e6fbf" font-weight="bold">little-gemma (§5.4) — 0.65 s, flat</text>
  <text x="77.7" y="320.3" font-size="10" fill="#3e6fbf">prefill hides under speech; ASR streams during it</text>
  <text x="380.0" y="26" font-size="13" font-weight="bold" fill="#1f2328" text-anchor="middle">Time to first audio vs. spoken prompt length — E2B QAT, one Orin NX</text>
  <text x="380.0" y="392.0" font-size="10" fill="#555b61" text-anchor="middle">Same board, same E2B weights. HF floor = measured base-int8 ASR + 0.45 s downstream — its BEST case; real long input replies into ongoing speech.</text>
</svg>