<?xml version="1.0" encoding="UTF-8" standalone="no"?>
<svg width="1000" height="640" viewBox="0 0 1000 640" version="1.1" xmlns="http://www.w3.org/2000/svg" xmlns:xlink="http://www.w3.org/1999/xlink" xml:space="preserve" xmlns:serif="http://www.serif.com/" style="fill-rule:evenodd;clip-rule:evenodd;">
    <path d="M994,20L994,620C994,627.727 987.727,634 980,634L20,634C12.273,634 6,627.727 6,620L6,20C6,12.273 12.273,6 20,6L980,6C987.727,6 994,12.273 994,20Z" style="fill:white;stroke:rgb(226,232,240);stroke-width:2px;"/>
    <g transform="matrix(1,0,0,1,36,50)">
        <text x="0px" y="0px" style="font-family:'Arial-BoldMT', 'Arial', sans-serif;font-weight:700;font-size:25px;fill:rgb(15,23,42);">Decode attention — block count vs. walk length</text>
    </g>
    <g transform="matrix(1,0,0,1,36,76)">
        <text x="0px" y="0px" style="font-family:'ArialMT', 'Arial', sans-serif;font-size:13.5px;fill:rgb(100,116,139);">One generated token attends over a 512-key KV cache (one head). <tspan x="405.771px 414.018px " y="0px 0px ">Th</tspan>e math is identical — the gap is how that KV walk is split across the GPU&apos;s SMs.</text>
    </g>
    <path d="M964,104L964,128C964,132.415 960.415,136 956,136L44,136C39.585,136 36,132.415 36,128L36,104C36,99.585 39.585,96 44,96L956,96C960.415,96 964,99.585 964,104Z" style="fill:rgb(248,250,252);stroke:rgb(226,232,240);stroke-width:1px;"/>
    <g transform="matrix(1,0,0,1,52,121)">
        <text x="0px" y="0px" style="font-family:'Arial-BoldMT', 'Arial', sans-serif;font-weight:700;font-size:11.5px;fill:rgb(148,163,184);">PER-STEP<tspan x="57.303px 60.499px " y="0px 0px "> F</tspan>LOW</text>
    </g>
    <g transform="matrix(1,0,0,1,168,121)">
        <text x="0px" y="0px" style="font-family:'ArialMT', 'Arial', sans-serif;font-size:13px;fill:rgb(51,65,85);">query q + K,V rows</text>
    </g>
    <path d="M300,116L342,116" style="fill:none;fill-rule:nonzero;stroke:rgb(148,163,184);stroke-width:1.6px;"/>
    <g transform="matrix(1,0,0,1,352,121)">
        <text x="0px" y="0px" style="font-family:'ArialMT', 'Arial', sans-serif;font-size:13px;fill:rgb(51,65,85);">each block → partial (m, l, O)</text>
    </g>
    <path d="M540,116L582,116" style="fill:none;fill-rule:nonzero;stroke:rgb(148,163,184);stroke-width:1.6px;"/>
    <g transform="matrix(1,0,0,1,592,121)">
        <text x="0px" y="0px" style="font-family:'ArialMT', 'Arial', sans-serif;font-size:13px;fill:rgb(51,65,85);">combine (LSE merge)</text>
    </g>
    <path d="M742,116L784,116" style="fill:none;fill-rule:nonzero;stroke:rgb(148,163,184);stroke-width:1.6px;"/>
    <g transform="matrix(1,0,0,1,794,121)">
        <text x="0px" y="0px" style="font-family:'Arial-BoldMT', 'Arial', sans-serif;font-weight:700;font-size:13px;fill:rgb(15,23,42);">attn out</text>
    </g>
    <g transform="matrix(1,0,0,1,36,184)">
        <text x="0px" y="0px" style="font-family:'Arial-BoldMT', 'Arial', sans-serif;font-weight:700;font-size:16px;fill:rgb(220,38,38);">BEFORE · little-gemma</text>
    </g>
    <g transform="matrix(1,0,0,1,235,184)">
        <text x="0px" y="0px" style="font-family:'Consolas', monospace;font-size:13.5px;fill:rgb(71,85,105);">SPLIT_KEYS = 1024  →  n_split = ⌈512 / 1024⌉ = 1</text>
    </g>
    <g transform="matrix(1,0,0,1,52,228)">
        <text x="0px" y="0px" style="font-family:'ArialMT', 'Arial', sans-serif;font-size:13px;fill:rgb(51,65,85);">query q</text>
    </g>
    <g transform="matrix(1.046512,0,0,1,-5.116279,0)">
        <path d="M110,223L196,223" style="fill:none;fill-rule:nonzero;"/>
        <g transform="matrix(0.955556,-0,-0,1,4.888889,-0)">
            <path d="M191.709,220.236L200,223L191.709,225.764L191.709,220.236Z" style="fill:rgb(148,163,184);fill-rule:nonzero;"/>
            <path d="M110,223L193.368,223" style="fill:none;fill-rule:nonzero;stroke:rgb(148,163,184);stroke-width:1.84px;"/>
        </g>
    </g>
    <path d="M820,209L820,239C820,242.863 816.863,246 813,246L207,246C203.137,246 200,242.863 200,239L200,209C200,205.137 203.137,202 207,202L813,202C816.863,202 820,205.137 820,209Z" style="fill:rgb(254,242,242);stroke:rgb(220,38,38);stroke-width:2px;"/>
    <g transform="matrix(1,0,0,1,510,229)">
        <text x="-90.66px" y="0px" style="font-family:'ArialMT', 'Arial', sans-serif;font-size:13.5px;fill:rgb(153,27,27);">block 0  ·  walks keys 0 … 51<tspan x="83.152px " y="0px ">1</tspan></text>
    </g>
    <g>
        <path d="M200,266L820,266" style="fill:none;fill-rule:nonzero;"/>
        <path d="M811,263L820,266L811,269L811,263Z" style="fill:rgb(220,38,38);fill-rule:nonzero;"/>
        <path d="M200,266L812.8,266" style="fill:none;fill-rule:nonzero;stroke:rgb(220,38,38);stroke-width:2px;"/>
    </g>
    <g transform="matrix(1,0,0,1,510,285)">
        <text x="-137.634px" y="0px" style="font-family:'ArialMT', 'Arial', sans-serif;font-size:12.5px;fill:rgb(220,38,38);">one block walks the full depth — serial, length = <tspan x="129.999px " y="0px ">T</tspan></text>
    </g>
    <g transform="matrix(1,0,0,1,838,221)">
        <text x="0px" y="0px" style="font-family:'ArialMT', 'Arial', sans-serif;font-size:12.5px;fill:rgb(100,116,139);">1 partial</text>
    </g>
    <g transform="matrix(1,0,0,1,838,238)">
        <text x="0px" y="0px" style="font-family:'ArialMT', 'Arial', sans-serif;font-size:12.5px;fill:rgb(100,116,139);">→ out</text>
    </g>
    <path d="M820,314C820,321.727 813.727,328 806,328L214,328C206.273,328 200,321.727 200,314C200,306.273 206.273,300 214,300L806,300C813.727,300 820,306.273 820,314Z" style="fill:rgb(254,242,242);stroke:rgb(254,202,202);stroke-width:1px;"/>
    <g transform="matrix(1,0,0,1,510,319)">
        <text x="-301.993px" y="0px" style="font-family:'Arial-BoldMT', 'Arial', sans-serif;font-weight:700;font-size:12.5px;fill:rgb(185,28,28);">per-block work</text>
        <text x="-209.61px" y="0px" style="font-family:'SimHei', monospace;font-size:12.5px;fill:rgb(185,28,28);">∝</text>
        <text x="-193.637px" y="0px" style="font-family:'Arial-BoldMT', 'Arial', sans-serif;font-weight:700;font-size:12.5px;fill:rgb(185,28,28);">depth  ·  −14.3% droop (shallow → deep)  ·  8 blocks leave 56 of 64 SMs idle (A5000)</text>
    </g>
    <path d="M36,352L964,352" style="fill:none;fill-rule:nonzero;stroke:rgb(226,232,240);stroke-width:1.5px;"/>
    <g transform="matrix(1,0,0,1,36,390)">
        <text x="0px" y="0px" style="font-family:'Arial-BoldMT', 'Arial', sans-serif;font-weight:700;font-size:16px;fill:rgb(22,163,74);">AFTER · SPLIT_KEYS = 64</text>
    </g>
    <g transform="matrix(1,0,0,1,270,390)">
        <text x="0px" y="0px" style="font-family:'Consolas', monospace;font-size:13.5px;fill:rgb(71,85,105);">and llama.cpp (nbatch_fa = 128)  →  n_split grows with depth</text>
    </g>
    <g transform="matrix(1,0,0,1,52,432)">
        <text x="0px" y="0px" style="font-family:'ArialMT', 'Arial', sans-serif;font-size:13px;fill:rgb(51,65,85);">query q</text>
    </g>
    <g transform="matrix(1.046512,0,0,1,-5.116279,0)">
        <path d="M110,427L196,427" style="fill:none;fill-rule:nonzero;"/>
        <g transform="matrix(0.955556,-0,-0,1,4.888889,-0)">
            <path d="M191.709,424.236L200,427L191.709,429.764L191.709,424.236Z" style="fill:rgb(148,163,184);fill-rule:nonzero;"/>
            <path d="M110,427L193.368,427" style="fill:none;fill-rule:nonzero;stroke:rgb(148,163,184);stroke-width:1.84px;"/>
        </g>
    </g>
    <g>
        <path d="M274,412L274,444C274,447.311 271.311,450 268,450L206,450C202.689,450 200,447.311 200,444L200,412C200,408.689 202.689,406 206,406L268,406C271.311,406 274,408.689 274,412Z" style="fill:rgb(240,253,244);stroke:rgb(22,163,74);stroke-width:1.8px;"/>
        <g transform="matrix(1,0,0,1,237,426)">
            <text x="-6.674px" y="0px" style="font-family:'ArialMT', 'Arial', sans-serif;font-size:12px;fill:rgb(20,83,45);">b0</text>
        </g>
        <g transform="matrix(1,0,0,1,237,441)">
            <text x="-8.306px" y="0px" style="font-family:'ArialMT', 'Arial', sans-serif;font-size:10px;fill:rgb(77,124,15);">≤64</text>
        </g>
        <path d="M352,412L352,444C352,447.311 349.311,450 346,450L284,450C280.689,450 278,447.311 278,444L278,412C278,408.689 280.689,406 284,406L346,406C349.311,406 352,408.689 352,412Z" style="fill:rgb(240,253,244);stroke:rgb(22,163,74);stroke-width:1.8px;"/>
        <g transform="matrix(1,0,0,1,315,426)">
            <text x="-6.674px" y="0px" style="font-family:'ArialMT', 'Arial', sans-serif;font-size:12px;fill:rgb(20,83,45);">b1</text>
        </g>
        <g transform="matrix(1,0,0,1,315,441)">
            <text x="-8.306px" y="0px" style="font-family:'ArialMT', 'Arial', sans-serif;font-size:10px;fill:rgb(77,124,15);">≤64</text>
        </g>
        <path d="M430,412L430,444C430,447.311 427.311,450 424,450L362,450C358.689,450 356,447.311 356,444L356,412C356,408.689 358.689,406 362,406L424,406C427.311,406 430,408.689 430,412Z" style="fill:rgb(240,253,244);stroke:rgb(22,163,74);stroke-width:1.8px;"/>
        <g transform="matrix(1,0,0,1,393,426)">
            <text x="-6.674px" y="0px" style="font-family:'ArialMT', 'Arial', sans-serif;font-size:12px;fill:rgb(20,83,45);">b2</text>
        </g>
        <g transform="matrix(1,0,0,1,393,441)">
            <text x="-8.306px" y="0px" style="font-family:'ArialMT', 'Arial', sans-serif;font-size:10px;fill:rgb(77,124,15);">≤64</text>
        </g>
        <path d="M508,412L508,444C508,447.311 505.311,450 502,450L440,450C436.689,450 434,447.311 434,444L434,412C434,408.689 436.689,406 440,406L502,406C505.311,406 508,408.689 508,412Z" style="fill:rgb(240,253,244);stroke:rgb(22,163,74);stroke-width:1.8px;"/>
        <g transform="matrix(1,0,0,1,471,426)">
            <text x="-6.674px" y="0px" style="font-family:'ArialMT', 'Arial', sans-serif;font-size:12px;fill:rgb(20,83,45);">b3</text>
        </g>
        <g transform="matrix(1,0,0,1,471,441)">
            <text x="-8.306px" y="0px" style="font-family:'ArialMT', 'Arial', sans-serif;font-size:10px;fill:rgb(77,124,15);">≤64</text>
        </g>
        <path d="M586,412L586,444C586,447.311 583.311,450 580,450L518,450C514.689,450 512,447.311 512,444L512,412C512,408.689 514.689,406 518,406L580,406C583.311,406 586,408.689 586,412Z" style="fill:rgb(240,253,244);stroke:rgb(22,163,74);stroke-width:1.8px;"/>
        <g transform="matrix(1,0,0,1,549,426)">
            <text x="-6.674px" y="0px" style="font-family:'ArialMT', 'Arial', sans-serif;font-size:12px;fill:rgb(20,83,45);">b4</text>
        </g>
        <g transform="matrix(1,0,0,1,549,441)">
            <text x="-8.306px" y="0px" style="font-family:'ArialMT', 'Arial', sans-serif;font-size:10px;fill:rgb(77,124,15);">≤64</text>
        </g>
        <path d="M664,412L664,444C664,447.311 661.311,450 658,450L596,450C592.689,450 590,447.311 590,444L590,412C590,408.689 592.689,406 596,406L658,406C661.311,406 664,408.689 664,412Z" style="fill:rgb(240,253,244);stroke:rgb(22,163,74);stroke-width:1.8px;"/>
        <g transform="matrix(1,0,0,1,627,426)">
            <text x="-6.674px" y="0px" style="font-family:'ArialMT', 'Arial', sans-serif;font-size:12px;fill:rgb(20,83,45);">b5</text>
        </g>
        <g transform="matrix(1,0,0,1,627,441)">
            <text x="-8.306px" y="0px" style="font-family:'ArialMT', 'Arial', sans-serif;font-size:10px;fill:rgb(77,124,15);">≤64</text>
        </g>
        <path d="M742,412L742,444C742,447.311 739.311,450 736,450L674,450C670.689,450 668,447.311 668,444L668,412C668,408.689 670.689,406 674,406L736,406C739.311,406 742,408.689 742,412Z" style="fill:rgb(240,253,244);stroke:rgb(22,163,74);stroke-width:1.8px;"/>
        <g transform="matrix(1,0,0,1,705,426)">
            <text x="-6.674px" y="0px" style="font-family:'ArialMT', 'Arial', sans-serif;font-size:12px;fill:rgb(20,83,45);">b6</text>
        </g>
        <g transform="matrix(1,0,0,1,705,441)">
            <text x="-8.306px" y="0px" style="font-family:'ArialMT', 'Arial', sans-serif;font-size:10px;fill:rgb(77,124,15);">≤64</text>
        </g>
        <path d="M820,412L820,444C820,447.311 817.311,450 814,450L752,450C748.689,450 746,447.311 746,444L746,412C746,408.689 748.689,406 752,406L814,406C817.311,406 820,408.689 820,412Z" style="fill:rgb(240,253,244);stroke:rgb(22,163,74);stroke-width:1.8px;"/>
        <g transform="matrix(1,0,0,1,783,426)">
            <text x="-6.674px" y="0px" style="font-family:'ArialMT', 'Arial', sans-serif;font-size:12px;fill:rgb(20,83,45);">b7</text>
        </g>
        <g transform="matrix(1,0,0,1,783,441)">
            <text x="-8.306px" y="0px" style="font-family:'ArialMT', 'Arial', sans-serif;font-size:10px;fill:rgb(77,124,15);">≤64</text>
        </g>
    </g>
    <g transform="matrix(1,0,0,1,864,425)">
        <text x="0px" y="0px" style="font-family:'ArialMT', 'Arial', sans-serif;font-size:12px;fill:rgb(22,163,74);">8 blocks,</text>
    </g>
    <g transform="matrix(1,0,0,1,864,441)">
        <text x="0px" y="0px" style="font-family:'ArialMT', 'Arial', sans-serif;font-size:12px;fill:rgb(22,163,74);">parallel</text>
    </g>
    <g transform="matrix(1,0,0,1.2,0,-90)">
        <path d="M510,450L510,470" style="fill:none;fill-rule:nonzero;"/>
        <g transform="matrix(1,-0,-0,0.833333,-0,75)">
            <path d="M513,465L510,474L507,465L513,465Z" style="fill:rgb(22,163,74);fill-rule:nonzero;"/>
            <path d="M510,450L510,466.8" style="fill:none;fill-rule:nonzero;stroke:rgb(22,163,74);stroke-width:2px;"/>
        </g>
    </g>
    <g transform="matrix(1,0,0,1,524,465)">
        <text x="0px" y="0px" style="font-family:'ArialMT', 'Arial', sans-serif;font-size:11.5px;fill:rgb(77,124,15);">8 partials (mᵢ, lᵢ, Oᵢ)</text>
    </g>
    <path d="M660,481L660,507C660,510.863 656.863,514 653,514L367,514C363.137,514 360,510.863 360,507L360,481C360,477.137 363.137,474 367,474L653,474C656.863,474 660,477.137 660,481Z" style="fill:rgb(239,246,255);stroke:rgb(37,99,235);stroke-width:1.8px;"/>
    <g transform="matrix(1,0,0,1,510,499)">
        <text x="-134.186px" y="0px" style="font-family:'ArialMT', 'Arial', sans-serif;font-size:13px;fill:rgb(30,64,175);">combine (LSE): rescale by exp(mᵢ − M), then Σ</text>
    </g>
    <g transform="matrix(1.083333,0,0,1,-55,0)">
        <path d="M660,494L708,494" style="fill:none;fill-rule:nonzero;"/>
        <g transform="matrix(0.923077,-0,-0,1,50.769231,-0)">
            <path d="M703,491L712,494L703,497L703,491Z" style="fill:rgb(148,163,184);fill-rule:nonzero;"/>
            <path d="M660,494L704.8,494" style="fill:none;fill-rule:nonzero;stroke:rgb(148,163,184);stroke-width:2px;"/>
        </g>
    </g>
    <path d="M820,483L820,505C820,508.863 816.863,512 813,512L719,512C715.137,512 712,508.863 712,505L712,483C712,479.137 715.137,476 719,476L813,476C816.863,476 820,479.137 820,483Z" style="fill:rgb(248,250,252);stroke:rgb(203,213,225);stroke-width:1px;"/>
    <g transform="matrix(1,0,0,1,766,499)">
        <text x="-23.826px" y="0px" style="font-family:'Arial-BoldMT', 'Arial', sans-serif;font-weight:700;font-size:13px;fill:rgb(15,23,42);">attn out</text>
    </g>
    <path d="M820,550C820,557.727 813.727,564 806,564L214,564C206.273,564 200,557.727 200,550C200,542.273 206.273,536 214,536L806,536C813.727,536 820,542.273 820,550Z" style="fill:rgb(240,253,244);stroke:rgb(187,247,208);stroke-width:1px;"/>
    <g transform="matrix(1,0,0,1,510,555)">
        <g transform="matrix(12.5,0,0,12.5,-75.83313,0)">
        </g>
        <g transform="matrix(12.5,0,0,12.5,-71.670532,0)">
        </g>
        <g transform="matrix(12.5,0,0,12.5,110.671997,0)">
        </g>
        <g transform="matrix(12.5,0,0,12.5,114.834595,0)">
        </g>
        <text x="-303.647px" y="0px" style="font-family:'Arial-BoldMT', 'Arial', sans-serif;font-weight:700;font-size:12.5px;fill:rgb(21,128,61);">per-block work capped  ·  block count ﬁlls the device  ·  −0.6% droop (ﬂat — matches llama.cpp&apos;s ~1%)</text>
    </g>
    <g transform="matrix(1,0,0,1,36,600)">
        <text x="0px" y="0px" style="font-family:'Arial-BoldMT', 'Arial', sans-serif;font-weight:700;font-size:13px;fill:rgb(51,65,85);">The dial:</text>
        <text x="57.059px" y="0px" style="font-family:'ArialMT', 'Arial', sans-serif;font-size:13px;fill:rgb(51,65,85);">llama.cpp (and now us) cap the keys one block walks and grow the</text>
        <text x="445.821px" y="0px" style="font-family:'Arial-ItalicMT', 'Arial', sans-serif;font-style:italic;font-size:13px;fill:rgb(51,65,85);">block count</text>
        <text x="515.195px" y="0px" style="font-family:'ArialMT', 'Arial', sans-serif;font-size:13px;fill:rgb(51,65,85);">with depth; the old code capped the block count and grew the</text>
        <text x="872.219px" y="0px" style="font-family:'Arial-ItalicMT', 'Arial', sans-serif;font-style:italic;font-size:13px;fill:rgb(51,65,85);">walk</text>
        <text x="898.225px" y="0px" style="font-family:'ArialMT', 'Arial', sans-serif;font-size:13px;fill:rgb(51,65,85);">.</text>
    </g>
    <g transform="matrix(1,0,0,1,36,620)">
        <text x="0px" y="0px" style="font-family:'ArialMT', 'Arial', sans-serif;font-size:13px;fill:rgb(51,65,85);">One constant,</text>
        <text x="84.551px" y="0px" style="font-family:'Consolas', monospace;font-size:13px;fill:rgb(71,85,105);">SPLIT_KEYS 1024 → 64</text>
        <text x="231.112px" y="0px" style="font-family:'ArialMT', 'Arial', sans-serif;font-size:13px;fill:rgb(51,65,85);">— desktop decode 0.70–0.81× → parity<tspan x="459.602px 463.214px " y="0px 0px ">, </tspan>Orin E4B 1.17× → 1.27×.</text>
    </g>
</svg>
