<svg xmlns="http://www.w3.org/2000/svg" viewBox="0 0 760 342" font-family="Helvetica, Arial, sans-serif">
  <!-- Figure 4: six operating points vs production voice-AI latency bands,
       sorted by latency; blue marks the sub-second class. Whisper rows: the
       30-s instruction. Native-ears rows: conversational turn (E2B/E4B
       stream 3 s chunks; 12B whole-span).
       x(t) = 60 + t*165 px (axis 0..4 s). Bands per hamming.ai telemetry. -->
  <rect width="760" height="342" fill="#ffffff"/>

  <!-- latency bands -->
  <rect x="60" y="52" width="165" height="223" fill="#eaf1ea"/>
  <rect x="291" y="52" width="49.5" height="223" fill="#e6e8eb"/>
  <rect x="555" y="52" width="175" height="223" fill="#dcdfe3"/>
  <g font-size="10" fill="#555b61" text-anchor="middle">
    <text x="142" y="46">&lt; 1 s — natural conversation</text>
    <text x="316" y="46">1.4–1.7 s median</text>
    <text x="642" y="46">3–5 s — P90, talk-overs →</text>
  </g>

  <g font-size="12" fill="#1f2328">
    <text x="52" y="79" text-anchor="end" font-weight="bold">12B</text>
    <line x1="60" y1="75" x2="335.6" y2="75" stroke="#8a9099" stroke-width="2"/>
    <circle cx="335.6" cy="75" r="6" fill="#8a9099"/>
    <text x="349" y="79" font-size="11" text-anchor="start" fill="#555b61">≈1.7 s — the strongest answers, at the industry median</text>

    <text x="52" y="114" text-anchor="end" font-weight="bold">12B</text>
    <text x="52" y="125" text-anchor="end" font-size="9" fill="#555b61">native ears</text>
    <line x1="60" y1="114" x2="305.9" y2="114" stroke="#8a9099" stroke-width="2"/>
    <circle cx="305.9" cy="114" r="6" fill="#8a9099"/>
    <text x="320" y="118" font-size="11" fill="#555b61">≈1.5 s — whole-span (its encoder is bidirectional), hearing included</text>

    <text x="52" y="149" text-anchor="end" font-weight="bold">E4B</text>
    <line x1="60" y1="145" x2="249.8" y2="145" stroke="#8a9099" stroke-width="2"/>
    <circle cx="249.8" cy="145" r="6" fill="#8a9099"/>
    <text x="264" y="149" font-size="11" fill="#555b61">≈1.15 s — under the industry median</text>

    <text x="52" y="184" text-anchor="end" font-weight="bold">E2B</text>
    <line x1="60" y1="180" x2="167.3" y2="180" stroke="#3e6fbf" stroke-width="3"/>
    <circle cx="167.3" cy="180" r="7" fill="#3e6fbf"/>
    <text x="182" y="184" font-size="11" font-weight="bold" fill="#3e6fbf">0.65 s — well inside the natural window</text>

    <text x="52" y="219" text-anchor="end" font-weight="bold">E4B</text>
    <text x="52" y="230" text-anchor="end" font-size="9" fill="#555b61">native ears</text>
    <line x1="60" y1="219" x2="149.1" y2="219" stroke="#3e6fbf" stroke-width="3"/>
    <circle cx="149.1" cy="219" r="7" fill="#3e6fbf"/>
    <text x="164" y="223" font-size="11" font-weight="bold" fill="#3e6fbf">0.54 s — a mid-family model inside the window, hearing included</text>

    <text x="52" y="254" text-anchor="end" font-weight="bold">E2B</text>
    <text x="52" y="265" text-anchor="end" font-size="9" fill="#555b61">native ears</text>
    <line x1="60" y1="254" x2="135.9" y2="254" stroke="#3e6fbf" stroke-width="3"/>
    <circle cx="135.9" cy="254" r="7" fill="#3e6fbf"/>
    <text x="151" y="258" font-size="11" font-weight="bold" fill="#3e6fbf">0.46 s — the fastest point, hearing included (whisper lane on the same turn ≈0.8 s)</text>
  </g>

  <!-- axis -->
  <line x1="60" y1="275" x2="730" y2="275" stroke="#555b61" stroke-width="1"/>
  <g stroke="#555b61" stroke-width="1">
    <line x1="60" y1="275" x2="60" y2="280"/><line x1="225" y1="275" x2="225" y2="280"/>
    <line x1="390" y1="275" x2="390" y2="280"/><line x1="555" y1="275" x2="555" y2="280"/>
    <line x1="720" y1="275" x2="720" y2="280"/>
  </g>
  <g font-size="10" fill="#555b61" text-anchor="middle">
    <text x="60" y="293">0</text><text x="225" y="293">1</text><text x="390" y="293">2</text>
    <text x="555" y="293">3</text><text x="720" y="293">4 s</text>
  </g>

  <text x="380" y="320" font-size="12" fill="#1f2328" text-anchor="middle">Time from end of speech to first audio, Jetson Orin NX 16GB, streaming vocoder (§4.4), sorted by latency; blue = sub-second.</text>
  <text x="380" y="334" font-size="12" fill="#1f2328" text-anchor="middle">Whisper rows: the 30-s instruction. Native-ears rows: conversational turn (§5.5) — E2B/E4B stream 3 s chunks; 12B whole-span.</text>
</svg>
